<svg width="478" height="90" viewBox="0 0 478 90" fill="none" xmlns="http://www.w3.org/2000/svg">
<path d="M7.93262 25.4767L61.1715 90L478 0L7.93262 25.4767Z" fill="#D84618"/>
<path d="M42.3872 87.062C23.1902 87.062 0 68.1977 0 44.7847C0 18.9193 27.9976 4.61426 47.3464 4.61426C56.7766 4.61426 69.9832 11.6587 75.0511 17.7307C76.0706 18.9508 76.574 20.5177 76.4545 22.1004C76.335 23.6831 75.602 25.1575 74.4108 26.2121L57.6013 41.1221C56.3957 42.1967 54.8121 42.7531 53.1961 42.6701C51.58 42.5871 50.0623 41.8714 48.9742 40.6791C46.4022 37.8808 45.7837 34.0236 45.2411 30.6203C45.1652 30.1448 45.0783 29.5398 44.9698 29.0212C39.0665 30.1666 30.9385 35.0068 30.9385 44.7847C30.9385 56.3454 42.0616 61.1532 48.0084 61.1532C48.9416 61.1532 49.7337 60.451 52.1864 57.9119C53.3799 56.6478 54.7473 55.2217 56.4293 53.7523C57.5519 52.7798 58.989 52.2427 60.4771 52.2398L67.6718 52.3586C69.2839 52.3897 70.8195 53.0483 71.9495 54.1937C73.0795 55.3388 73.7137 56.8793 73.7163 58.4845C73.7163 77.1113 61.6815 82.8592 48.6812 86.3057C46.6247 86.8273 44.5092 87.0817 42.3872 87.062Z" fill="#15047C"/>
<path d="M74.8024 84.5973C73.1707 84.5973 71.6056 83.9518 70.4517 82.8031C69.2978 81.6541 68.6494 80.0958 68.6494 78.4712V26.0271C68.6494 24.4022 69.2978 22.8441 70.4517 21.6952C71.6056 20.5464 73.1707 19.901 74.8024 19.901H84.5692C85.3952 19.9037 86.2123 20.0725 86.9713 20.3974C87.7303 20.7223 88.4154 21.1966 88.9858 21.7917C91.7846 19.7386 95.1569 18.6055 98.633 18.5504C101.405 18.4809 104.154 19.0697 106.652 20.2683C107.863 20.8406 108.852 21.7913 109.469 22.9754C110.086 24.1594 110.298 25.5117 110.071 26.8265L108.041 38.7113C107.888 39.587 107.546 40.419 107.038 41.1501C106.53 41.8815 105.869 42.4942 105.101 42.9465C104.332 43.3987 103.474 43.6793 102.586 43.7688C101.698 43.8582 100.801 43.7548 99.957 43.4651C99.0689 43.1186 98.1219 42.9462 97.1681 42.9573C96.2021 42.9573 94.3466 44.3727 92.8923 48.1867V78.4388C92.9012 80.0561 92.2671 81.6113 91.1286 82.7649C89.9903 83.9187 88.4397 84.5773 86.8154 84.5973H74.8024Z" fill="#15047C"/>
<path d="M129.223 85.905C112.219 85.905 100.336 72.0648 100.336 52.2497C100.336 42.9472 103.179 34.4117 108.323 28.2208C110.648 25.2881 113.597 22.904 116.957 21.2397C120.318 19.5752 124.006 18.6718 127.758 18.5942C143.07 18.5942 153.01 30.8031 153.01 49.6999C153.042 52.3669 152.784 55.0295 152.24 57.6411C151.891 58.9457 151.119 60.099 150.043 60.9216C148.968 61.7442 147.649 62.1899 146.293 62.1897H146.239C146.382 62.4068 146.51 62.6343 146.619 62.8703L150.699 71.2977C151.3 72.5489 151.458 73.9658 151.147 75.3176C150.835 76.6696 150.073 77.8765 148.984 78.7418C143.383 83.2542 136.428 85.7753 129.223 85.905ZM127.454 62.2113C128.427 62.8202 129.562 63.1215 130.71 63.0756C132.057 63.0755 133.387 62.7803 134.606 62.2113H127.454Z" fill="#15047C"/>
<path d="M166.77 85.9044C155.376 85.9044 147.096 76.7964 147.096 64.2418C147.096 55.4902 150.796 49.7964 156.092 46.0148C155.024 45.3904 154.17 44.4605 153.639 43.3461L149.298 34.2597C148.692 32.9673 148.557 31.5046 148.918 30.124C149.278 28.7432 150.111 27.5311 151.273 26.6966C158.783 21.2945 166.401 18.626 173.921 18.626C181.04 18.626 197.589 21.4675 197.589 47.8841V78.4711C197.589 80.0958 196.941 81.6539 195.788 82.8028C194.632 83.9518 193.068 84.5971 191.437 84.5971H181.67C180.11 84.5949 178.609 84.0041 177.47 82.9439C174.228 84.8545 170.537 85.8758 166.77 85.9044ZM173.411 61.0545C171.935 61.6379 171.013 62.2862 170.839 62.9236C171.284 62.9236 171.925 62.7616 173.411 61.4327V61.0545Z" fill="#15047C"/>
<path d="M218.826 85.9047C212.467 85.9047 197.687 83.3982 197.687 60.1148V43.0116H197.404C195.773 43.0116 194.207 42.3661 193.054 41.2174C191.9 40.0684 191.252 38.5103 191.252 36.8855V26.6755C191.254 25.1507 191.826 23.6816 192.856 22.5546C193.888 21.4278 195.304 20.7244 196.829 20.5818L198.858 20.3982L199.749 11.2901C199.898 9.77604 200.606 8.37104 201.737 7.34853C202.869 6.32602 204.341 5.75916 205.869 5.7583H215.809C217.441 5.7583 219.007 6.40373 220.16 7.55258C221.313 8.70143 221.962 10.2596 221.962 11.8843V19.9012H227.051C228.683 19.9012 230.249 20.5465 231.402 21.6955C232.556 22.8442 233.204 24.4025 233.204 26.0272V36.8855C233.204 38.5103 232.556 40.0684 231.402 41.2174C230.249 42.3661 228.683 43.0116 227.051 43.0116H221.962V60.1148C221.94 61.0087 222.03 61.9017 222.233 62.7727C222.809 62.6552 223.37 62.4739 223.904 62.2325C224.752 61.8437 225.677 61.6519 226.609 61.6711C227.542 61.6906 228.456 61.9208 229.287 62.3443C230.117 62.7679 230.839 63.3737 231.4 64.1162C231.96 64.8587 232.344 65.7182 232.521 66.6298L234.486 76.6455C234.759 78.0592 234.524 79.5235 233.825 80.7832C233.124 82.0428 232.003 83.018 230.654 83.5386C226.896 85.0596 222.883 85.8622 218.826 85.9047Z" fill="#15047C"/>
<path d="M253.857 85.9049C250.054 85.8849 246.301 85.036 242.863 83.4176C239.424 81.7994 236.384 79.451 233.954 76.5375C228.615 70.3358 225.794 61.941 225.794 52.2494C225.794 42.5578 228.615 34.163 233.954 27.9613C236.37 25.0321 239.408 22.6727 242.85 21.0525C246.29 19.4325 250.051 18.5923 253.857 18.5923C257.662 18.5923 261.423 19.4325 264.863 21.0525C268.305 22.6727 271.343 25.0321 273.759 27.9613C279.098 34.163 281.93 42.5578 281.93 52.2494C281.93 61.941 279.098 70.3358 273.759 76.5375C271.333 79.4544 268.293 81.8052 264.854 83.4238C261.414 85.0423 257.661 85.8894 253.857 85.9049ZM253.857 42.0717C251.838 42.0717 250.319 46.4475 250.319 52.2494C250.319 58.0513 251.838 62.4163 253.857 62.4163C255.875 62.4163 257.405 58.0945 257.405 52.2494C257.405 46.4043 255.875 42.0717 253.857 42.0717Z" fill="#15047C"/>
<path d="M285.794 84.5973C284.163 84.5973 282.597 83.9518 281.443 82.8031C280.29 81.6541 279.642 80.0958 279.642 78.4712V26.0271C279.642 24.4022 280.29 22.8441 281.443 21.6952C282.597 20.5464 284.163 19.901 285.794 19.901H295.56C296.39 19.9006 297.212 20.0682 297.974 20.3931C298.738 20.7182 299.426 21.1939 299.998 21.7917C302.799 19.7417 306.171 18.6091 309.645 18.5504C312.419 18.4809 315.168 19.0697 317.666 20.2683C318.877 20.8404 319.866 21.7904 320.485 22.9743C321.105 24.1581 321.318 25.5107 321.095 26.8265L319.055 38.7113C318.903 39.5865 318.564 40.4186 318.057 41.1498C317.552 41.8811 316.891 42.4942 316.125 42.9465C315.177 43.5089 314.092 43.8039 312.988 43.8001C312.301 43.8005 311.619 43.6873 310.971 43.4651C310.082 43.1176 309.135 42.9451 308.18 42.9573C307.226 42.9573 305.359 44.3727 303.906 48.1867V78.4388C303.906 79.2432 303.746 80.0399 303.437 80.7831C303.127 81.5263 302.674 82.2017 302.104 82.7706C301.532 83.3394 300.853 83.7907 300.107 84.0985C299.361 84.4063 298.561 84.5649 297.753 84.5649L285.794 84.5973Z" fill="#15047C"/>
<path d="M322.299 84.5979C320.668 84.5979 319.101 83.9525 317.948 82.8037C316.795 81.6548 316.146 80.0967 316.146 78.4718V9.07576C316.146 7.45104 316.795 5.89285 317.948 4.74398C319.101 3.59513 320.668 2.94971 322.299 2.94971H334.345C335.976 2.94971 337.541 3.59513 338.696 4.74398C339.849 5.89285 340.497 7.45104 340.497 9.07576V60.7312H358.869C359.677 60.7312 360.475 60.8898 361.221 61.1978C361.967 61.5057 362.646 61.9572 363.217 62.5262C363.787 63.0951 364.238 63.7705 364.548 64.5137C364.855 65.2569 365.013 66.0533 365.011 66.8573V78.4718C365.013 79.2759 364.855 80.0722 364.548 80.8154C364.238 81.5586 363.787 82.234 363.217 82.803C362.646 83.372 361.967 83.8234 361.221 84.1314C360.475 84.4394 359.677 84.5979 358.869 84.5979H322.299Z" fill="#15047C"/>
<path d="M401.516 84.598C400.131 84.5989 398.786 84.1341 397.699 83.2793C396.611 82.4245 395.845 81.2293 395.527 79.8874L391.283 62.0926L387.582 46.2535L379.421 79.9522C379.101 81.2903 378.335 82.4815 377.251 83.3342C376.166 84.1868 374.824 84.6511 373.443 84.652H361.223C360.276 84.6511 359.342 84.4325 358.493 84.0131C357.645 83.5937 356.905 82.9848 356.331 82.2342C355.759 81.4832 355.368 80.6108 355.188 79.6847C355.009 78.7586 355.047 77.8037 355.299 76.8945L374.603 7.43351C374.962 6.14354 375.737 5.00635 376.807 4.19641C377.877 3.38646 379.184 2.9485 380.53 2.94971H394.701C396.046 2.95151 397.354 3.39042 398.426 4.19974C399.497 5.00904 400.274 6.14449 400.638 7.43351L420.019 76.8297C420.272 77.7396 420.312 78.6956 420.135 79.6231C419.955 80.5507 419.564 81.4247 418.99 82.1768C418.418 82.929 417.678 83.5388 416.827 83.9588C415.978 84.3789 415.041 84.5976 414.093 84.598H401.516Z" fill="#15047C"/>
<path d="M421.179 84.5979C420.332 84.5976 419.494 84.4226 418.717 84.084C417.94 83.7456 417.241 83.251 416.666 82.6311C416.09 82.0112 415.65 81.2795 415.371 80.4821C415.092 79.6845 414.983 78.8383 415.049 77.9964L420.475 8.58958C420.595 7.05333 421.293 5.61895 422.43 4.57329C423.568 3.52762 425.058 2.94779 426.606 2.94971H441.092C449.068 2.94971 455.472 4.55956 460.138 7.74684C464.217 10.5344 469.079 15.9905 469.079 26.2113C469.164 31.2071 467.708 36.1085 464.913 40.2571C469.568 44.3627 472.173 50.5427 472.173 58.0085C472.173 74.1394 460.584 84.5547 442.644 84.5547L421.179 84.5979ZM441.668 61.6712C448.179 61.6712 448.179 59.4239 448.179 57.263C448.179 55.4586 448.179 53.7409 441.614 53.7409H441.006L440.106 61.7252L441.668 61.6712ZM440.29 31.2355C445.13 31.2355 445.13 29.7984 445.13 28.275C445.186 27.712 445.099 27.1439 444.88 26.6219C444.88 26.6219 444.022 25.9305 440.584 25.9305L440.04 31.3327L440.29 31.2355Z" fill="#15047C"/>
<path d="M6.15234 44.7847C6.15234 21.9335 32.1098 10.7402 47.3891 10.7402C54.9855 10.7402 66.445 16.9635 70.3624 21.6418L53.5097 36.5517C50.4168 33.1808 52.1532 22.6899 47.5845 22.6899C38.4581 22.6899 24.7958 29.9504 24.7958 44.8387C24.7958 59.9646 38.4907 67.3333 48.0187 67.3333C53.2383 67.3333 55.4087 62.8063 60.4874 58.3873L67.5736 58.5061C67.5736 72.8003 59.12 77.2301 47.107 80.4065C32.3703 84.2744 6.15234 67.9167 6.15234 44.7847Z" fill="#FFCB08"/>
<path d="M74.8018 26.0269H84.5683L85.4691 35.2971H85.7295C89.0719 28.458 93.9552 24.709 98.6865 24.709C100.539 24.6308 102.382 25.0015 104.058 25.7893L102.007 37.728C100.47 37.1565 98.8406 36.8708 97.1999 36.8854C93.608 36.8854 89.2998 39.6081 86.7713 47.1927V78.4712H74.8343L74.8018 26.0269Z" fill="#FFCB08"/>
<path d="M106.488 52.2498C106.488 35.2978 116.917 24.7095 127.758 24.7095C140.303 24.7095 146.814 35.2978 146.814 49.7216C146.856 51.8569 146.667 53.9904 146.249 56.0853H118.143C119.12 64.7287 124.003 69.2017 130.775 69.2017C134.517 69.1437 138.136 67.8603 141.073 65.5499L145.153 73.9773C140.649 77.6109 135.062 79.6552 129.266 79.79C116.429 79.79 106.488 69.5799 106.488 52.2498ZM136.559 46.9125C136.559 39.8896 133.781 35.395 127.877 35.395C123.07 35.395 118.827 39.3278 117.937 46.9125H136.559Z" fill="#FFCB08"/>
<path d="M153.249 64.2418C153.249 52.9945 161.149 47.0954 179.565 44.7939C179.326 39.6403 177.394 35.7075 171.74 35.7075C167.508 35.7075 163.439 37.8684 159.196 40.6775L154.855 31.5911C160.281 27.7448 166.792 24.6548 173.922 24.6548C185.489 24.6548 191.437 32.6174 191.437 47.7976V78.471H181.671L180.856 72.8528H180.53C176.537 76.7857 171.979 79.7891 166.759 79.7891C158.631 79.7891 153.249 73.1336 153.249 64.2418ZM179.565 63.8636V53.2753C168.409 54.8744 164.654 58.4291 164.654 63.1073C164.654 67.2345 167.183 69.0172 170.688 69.0172C174.193 69.0172 176.635 67.1373 179.565 63.8636Z" fill="#FFCB08"/>
<path d="M203.84 60.1153V36.886H197.405V26.6758L204.492 26.0277L205.881 11.8848H215.81V26.0277H227.052V36.886H215.81V60.1153C215.81 66.1117 217.981 68.9208 222.006 68.9208C223.558 68.8558 225.08 68.4888 226.489 67.8404L228.441 77.856C225.392 79.119 222.129 79.7901 218.827 79.8331C207.997 79.7899 203.84 71.8272 203.84 60.1153Z" fill="#FFCB08"/>
<path d="M231.946 52.2498C231.946 34.8332 242.451 24.7095 253.856 24.7095C265.261 24.7095 275.777 34.8332 275.777 52.2498C275.777 69.6663 265.261 79.79 253.856 79.79C242.451 79.79 231.946 69.6663 231.946 52.2498ZM263.558 52.2498C263.558 42.4179 260.052 35.9568 253.856 35.9568C247.661 35.9568 244.166 42.4395 244.166 52.2498C244.166 62.06 247.671 68.5427 253.856 68.5427C260.041 68.5427 263.558 62.179 263.558 52.2498Z" fill="#FFCB08"/>
<path d="M285.793 26.0269H295.559L296.448 35.2971H296.698C300.03 28.4578 304.924 24.7088 309.644 24.7088C311.514 24.6253 313.378 24.9961 315.07 25.7892L313.03 37.674C311.495 37.1018 309.865 36.8161 308.223 36.8313C304.641 36.8313 300.323 39.5539 297.796 47.1386V78.4712H285.858L285.793 26.0269Z" fill="#FFCB08"/>
<path d="M322.299 9.07568H334.345V66.8571H358.869V78.4718H322.299V9.07568Z" fill="#FFCB08"/>
<path d="M380.529 9.07568H394.701L414.092 78.4718H401.516L397.274 60.6772L387.658 19.6206L373.442 78.4718H361.223L380.529 9.07568ZM382.081 42.3206L387.614 19.6314L392.834 42.3206C390.956 35.1141 389.329 27.1945 387.614 19.6314H387.214C385.662 27.1945 383.872 35.0925 382.081 42.3206Z" fill="#FFCB08"/>
<path d="M426.65 9.07568H441.136C453.519 9.07568 462.97 13.2894 462.97 26.2113C462.97 32.5859 459.878 39.1766 454.745 41.1969V41.6615C461.256 43.4442 466.063 48.6951 466.063 58.0517C466.063 72.0109 455.97 78.4718 442.688 78.4718H421.18L426.65 9.07568ZM440.247 37.3614C447.897 37.3614 451.239 33.796 451.239 28.275C451.239 22.1813 447.658 19.7504 440.388 19.7504L435.027 19.653L433.215 37.3614H440.247ZM441.669 67.7971C449.905 67.7971 454.375 64.4262 454.375 57.209C454.375 50.4671 449.981 47.5606 441.669 47.5606H435.549L433.28 67.7971H441.669Z" fill="#FFCB08"/>
</svg>
