<svg xmlns="http://www.w3.org/2000/svg" viewBox="0 0 746.56817 935.17019"><defs><style>.cls-1{fill:#7394ff;}.cls-2{fill:#abbfff;}.cls-3{fill:#ffdb00;}.cls-4{fill:#f2f2f2;}.cls-5{fill:#fff;}.cls-6{fill:#bfbfbf;}.cls-10,.cls-7,.cls-8,.cls-9{fill:none;stroke:#000;stroke-miterlimit:10;}.cls-7{stroke-width:1.59318px;}.cls-8{stroke-width:1.18707px;}.cls-9{stroke-width:0.91592px;}</style></defs><g id="圖層_2" data-name="圖層 2"><g id="圖層_2-2" data-name="圖層 2"><path d="M745.91463,514.22269c1.03.76.89,3-.76,2.79-.25-.03-.51-.06-.76-.1l.01-.1c.25-.93.5-1.86.75-2.8l.17-.23C745.52463,513.93269,745.71463,514.07269,745.91463,514.22269Z"/><path d="M745.32463,513.78269l-.17.23c-1.73-.21-3.46-.44-5.19-.68-.16-.13-.32-.27-.48-.4q-1.83-1.545-3.56-3.19a1.59715,1.59715,0,0,0,.23-2.6l.67-.69A85.16206,85.16206,0,0,0,745.32463,513.78269Z"/><path d="M745.15463,514.01269c-.25.94-.5,1.87-.75,2.8-1.51-1.12-3-2.27-4.44-3.48C741.69463,513.57269,743.42463,513.80269,745.15463,514.01269Z"/><path d="M744.40463,516.81269l-.01.1q-15.855-1.98-31.56-5.09-14.205-2.82-28.2-6.57c-3.92-1.05-7.93-2.02-11.76-3.4a65.01937,65.01937,0,0,1-7.92-3.5,93.36972,93.36972,0,0,1-16.98-11.09,41.35945,41.35945,0,0,1-8.73-9.22c.18-1.08.35-2.15.52-3.23.09-.59.19-1.19.28-1.78q.06.12.12.27a21.10914,21.10914,0,0,0,4.6,6.87,59.09077,59.09077,0,0,0,7.81,6.93,93.56048,93.56048,0,0,0,16.51,9.95c6.65,3.1,13.95,4.72,21.02,6.53a437.75467,437.75467,0,0,0,49.86,9.75C741.40463,514.54269,742.89463,515.69269,744.40463,516.81269Z"/><path class="cls-1" d="M739.48463,512.93269c.16.13.32.27.48.4a437.75467,437.75467,0,0,1-49.86-9.75c-7.07-1.81-14.37-3.43-21.02-6.53a93.56048,93.56048,0,0,1-16.51-9.95,59.09077,59.09077,0,0,1-7.81-6.93,21.10914,21.10914,0,0,1-4.6-6.87q-.06-.15-.12-.27,2.07-13.155,3.92-26.34c.2.31.41.62.62.93,1.65,2.45,3.42,4.82,5.2,7.17q5.745,7.545,11.87,14.78c1.26,1.49,2.53,2.98,3.87,4.4a63.73855,63.73855,0,0,0,11.05,8.93,200.87853,200.87853,0,0,0,26.31,14.4,284.56126,284.56126,0,0,0,32,12.49,1.31594,1.31594,0,0,0,1.04-.05Q737.64963,511.39269,739.48463,512.93269Z"/><path d="M736.82463,506.45269l-.67.69a1.59936,1.59936,0,0,0-.47-.24c-1.29-.42-2.57-.84-3.85-1.27a114.4643,114.4643,0,0,1-20.72-32.44c-6.84-15.69-11.08-32.36-14.26-49.14-1.58-8.33-2.77-16.71-4.17-25.07q-2.085-12.51-5.19-24.83a257.80854,257.80854,0,0,0-17.85-50.02c-6.65-13.62-14.83-26.7-25.3-37.75q-.525-2.715-1.1-5.41,2.01,1.965,3.92,4.01c11.59,12.46,20.44,27.3,27.47,42.73a271.69421,271.69421,0,0,1,16.84,50.09c3.88,16.43,5.77,33.19,9.1,49.73,3.35,16.59,7.81,33.16,15.11,48.49A107.13316,107.13316,0,0,0,736.82463,506.45269Z"/><path d="M736.15463,507.14269a1.59715,1.59715,0,0,1-.23,2.6c-1.41-1.32-2.77-2.7-4.09-4.11,1.28.43,2.56.85,3.85,1.27A1.59936,1.59936,0,0,1,736.15463,507.14269Z"/><path class="cls-1" d="M735.92463,509.74269a1.31594,1.31594,0,0,1-1.04.05,284.56126,284.56126,0,0,1-32-12.49,200.87853,200.87853,0,0,1-26.31-14.4,63.73855,63.73855,0,0,1-11.05-8.93c-1.34-1.42-2.61-2.91-3.87-4.4q-6.12-7.23-11.87-14.78c-1.78-2.35-3.55-4.72-5.2-7.17-.21-.31-.42-.62-.62-.93.22-1.61.44-3.21.65-4.82.01-.01.01-.01,0-.02.04.07.06.15.1.22.1.18.2.37.3.56.24.45.49.88.76,1.31.69,1.14,1.44,2.24,2.2,3.33,1.88,2.7,3.86,5.33,5.88,7.93,3.63,4.67,7.35,9.28,11.21,13.76a69.55485,69.55485,0,0,0,16.59,13.62,247.43913,247.43913,0,0,0,50.18,23.05C733.15463,507.04269,734.51463,508.42269,735.92463,509.74269Z"/><path class="cls-2" d="M711.11463,473.19269a114.4643,114.4643,0,0,0,20.72,32.44,247.43913,247.43913,0,0,1-50.18-23.05,69.55485,69.55485,0,0,1-16.59-13.62c-3.86-4.48-7.58-9.09-11.21-13.76-2.02-2.6-4-5.23-5.88-7.93-.76-1.09-1.51-2.19-2.2-3.33-.27-.43-.52-.86-.76-1.31-.1-.19-.2-.38-.3-.56-.04-.07-.06-.15-.1-.22,2.71-20.2,4.82-40.48,5.75-60.86,1.44-31.61.08-63.53-6.02-94.61,10.47,11.05,18.65,24.13,25.3,37.75a257.80854,257.80854,0,0,1,17.85,50.02q3.105,12.3,5.19,24.83c1.4,8.36,2.59,16.74,4.17,25.07C700.03463,440.83269,704.27463,457.50269,711.11463,473.19269Z"/><path d="M693.59463,32.73269a1.76525,1.76525,0,0,1-.08,2.01,1.9934,1.9934,0,0,0-3.11-.63c-.1.09-.21.19-.31.28-7.59-10.05-14.67-20.47-22.23-30.52.3-.02.61-.03.91-.05a1.99143,1.99143,0,0,0,1.67-2.84C678.34463,11.43269,685.69463,22.28269,693.59463,32.73269Z"/><path d="M693.51463,34.74269a1.625,1.625,0,0,1-.4,2.07c-.14.13-.29.26-.43.38a1.99925,1.99925,0,0,0-1.05-1.63,1.77833,1.77833,0,0,0,1.27-.22A1.83877,1.83877,0,0,0,693.51463,34.74269Z"/><path d="M693.51463,34.74269a1.83877,1.83877,0,0,1-.61.6,1.77833,1.77833,0,0,1-1.27.22,1.43033,1.43033,0,0,0-.38-.17.56625.56625,0,0,0-.18-.03,2.46514,2.46514,0,0,1-.78-.7c-.07-.09-.14-.18-.2-.27.1-.09.21-.19.31-.28A1.9934,1.9934,0,0,1,693.51463,34.74269Z"/><path d="M692.68463,37.19269a1.30907,1.30907,0,0,1-.1.55,142.62594,142.62594,0,0,1-23.05,37.92q-5.145,6.135-10.87,11.74a1.83081,1.83081,0,0,0-2.16-.01l-1.3-1.94a145.91249,145.91249,0,0,0,30.97-42.49Q689.45963,40.09769,692.68463,37.19269Z"/><path d="M691.63463,35.56269a1.99925,1.99925,0,0,1,1.05,1.63q-3.225,2.91-6.51,5.77c.96-2.05,1.88-4.13,2.73-6.23a1.96433,1.96433,0,0,1,2.17-1.37A1.71364,1.71364,0,0,0,691.63463,35.56269Z"/><path d="M691.25463,35.39269a1.43033,1.43033,0,0,1,.38.17,1.71364,1.71364,0,0,1-.56-.2A.56625.56625,0,0,1,691.25463,35.39269Z"/><path class="cls-1" d="M691.07463,35.36269a1.96433,1.96433,0,0,0-2.17,1.37c-.85,2.1-1.77,4.18-2.73,6.23q-15.465,13.515-31.76,26.04-17.895,13.77-36.68,26.33c-12.21,8.2-24.78,16.12-38.42,21.74a165.14532,165.14532,0,0,1-20.21,6.74c-6.68,1.8-13.45,3.14-20.16,4.8-11.08,2.73-23.25,6.44-30.88,15.45-.05-.15-.09-.3-.14-.45a1.96277,1.96277,0,0,0-3.76.14,2.24431,2.24431,0,0,1,.52-1.57c8.54-10.82,23.1-14.9,35.93-17.9,13.76-3.22,27.5-6.32,40.48-12.09,13.49-6,25.96-14.2,38.13-22.48a664.53239,664.53239,0,0,0,70.87-55.32c.06.09.13.18.2.27A2.46514,2.46514,0,0,0,691.07463,35.36269Z"/><path d="M678.22463,209.59269a33.77568,33.77568,0,0,1,.61,6.95c-.21,9.31-4.44,17.97-10.41,24.95-6.69,7.82-15.36,13.22-24.78,17.15-1.81.76-3.64,1.45-5.49,2.1-.04-.15-.09-.3-.13-.45a1.46146,1.46146,0,0,0-1.97-.96l-.57-1.7a91.33454,91.33454,0,0,0,10.31-4.09c8.8-4.13,16.85-10.01,22.48-18.04,4.49-6.41,7.21-14.03,6.65-21.81,1.06,1.25,3.57.9,3.39-1.1a10.68939,10.68939,0,0,0-1.24-4.23A1.56225,1.56225,0,0,1,678.22463,209.59269Z"/><path d="M678.31463,212.59269c.18,2-2.33,2.35-3.39,1.1-.03-.49-.07-.98-.14-1.48.71-.08,1.41-.17,2.11-.27-.78-.44-1.57-.89-2.35-1.33.1.53.18,1.07.24,1.6a1.861,1.861,0,0,1-.34.04,4.3547,4.3547,0,0,0-2.11-3.54q1.77-.21,3.54-.45a2.71584,2.71584,0,0,1,1.2.1A10.68939,10.68939,0,0,1,678.31463,212.59269Z"/><path d="M676.89463,211.94269c-.7.1-1.4.19-2.11.27-.06-.53-.14-1.07-.24-1.6C675.32463,211.05269,676.11463,211.50269,676.89463,211.94269Z"/><path d="M671.23463,204.54269a7.20835,7.20835,0,0,1,5.84,3.82,2.71584,2.71584,0,0,0-1.2-.1q-1.77.24-3.54.45a1.86465,1.86465,0,0,0-.2-.1,5.08565,5.08565,0,0,0-2.76-.2c-1.47.25-2.92.59-4.39.84q-1.83.3-3.66.54l-.26-1.92a1.788,1.788,0,0,0,1.57-1.82v-.28c.37-.05.73-.11,1.1-.17C666.17463,205.20269,668.74463,204.31269,671.23463,204.54269Z"/><path class="cls-2" d="M674.92463,213.69269c.56,7.78-2.16,15.4-6.65,21.81-5.63,8.03-13.68,13.91-22.48,18.04a91.33454,91.33454,0,0,1-10.31,4.09,122.42142,122.42142,0,0,1-19.6,4.63c-5.28.82-10.61,1.33-15.95,1.62-2.77.15-5.54.24-8.32.29-2.45.03-5.02.3-7.4-.37-1.58-.43-3.85-1.21-4.64-2.78a42.4246,42.4246,0,0,0-2.38-4.95,24.96533,24.96533,0,0,0-5.89-6.11l-.03-.03a1.34322,1.34322,0,0,0-.31-.22q-.945-.705-1.95-1.32c-6.98-4.32-15.42-6.22-23.55-6.63a107.35318,107.35318,0,0,0-13.88.68l-1.17.09h-.03q-8.58.675-17.17,1.05-18.27.825-36.56.44a692.113,692.113,0,0,1-71.5-5.29c-.42-.05-.85-.1-1.27-.15-2.95-.37-5.91-.75-8.85-1.15a1.98148,1.98148,0,0,0-2.35,1.33,1.86753,1.86753,0,0,0,.02,1.02v.01a2.1128,2.1128,0,0,0-.09.68c.38,13.64,3.89,27.02,4.36,40.65-8.84,9.81-16.95,20.38-24.77,31.01a156.93836,156.93836,0,0,0-10.16,15.66c1.37-10.53,4.03-20.88,4.69-31.5a78.797,78.797,0,0,0,.01-9.84c-.19-3-.62-5.97-.76-8.98-.29-5.7-.1-11.42-.42-17.13a92.44544,92.44544,0,0,0-.97-9.24c-.54-3.38-1.45-6.64-2.19-9.98a58.1378,58.1378,0,0,1-1.14-16.28c.74-12.13,3.92-24.01,5.59-36.02,1.26-9.06,2.41-18.08,5.78-26.65,1.1-2.79,2.28-5.55,3.23-8.4,1.72-5.14,3.16-10.37,4.79-15.54,3.56-11.24,7.49-22.61,13.79-32.65a154.84166,154.84166,0,0,1,10.5-13.97c3.04-3.8,6.14-7.56,9.37-11.19a124.71342,124.71342,0,0,1,17.98-16.93,186.77088,186.77088,0,0,1,23.82-14.82c2.57-1.39,5.16-2.75,7.75-4.09a1.48482,1.48482,0,0,0,.58-.52q7.32-3.375,14.68-6.65a322.7767,322.7767,0,0,1,39.53-15,294.85082,294.85082,0,0,1,41.83-8.64c28.89-4.14,58.03-6.75,87.14-8.69,6.75-.45,13.49-.84,20.24-1.21,7.56,10.05,14.64,20.47,22.23,30.52a664.53239,664.53239,0,0,1-70.87,55.32c-12.17,8.28-24.64,16.48-38.13,22.48-12.98,5.77-26.72,8.87-40.48,12.09-12.83,3-27.39,7.08-35.93,17.9a2.24431,2.24431,0,0,0-.52,1.57,1.90309,1.90309,0,0,0,.07.87,195.06242,195.06242,0,0,0,18.01,41.2,1.99164,1.99164,0,0,0,.24.33,1.74681,1.74681,0,0,0,.86,2.05c16.71,9.57,35.53,15.06,54.21,19.26a284.47833,284.47833,0,0,0,63.04,7,271.62236,271.62236,0,0,0,33.85-2.21c.02.12.03.23.04.34A2.02348,2.02348,0,0,0,674.92463,213.69269Zm-88.86-144.83c2.09-1.29.17-4.6-1.93-3.3-5.37,3.31-12.72.91-18.3-.58-4.55-1.21-9.09-2.44-13.6-3.78a1.7823,1.7823,0,0,0-2.11-.65c-2.17-.66-4.33-1.37-6.48-2.11-6.86-2.38-13.53-5.3-20.49-7.37-6.72-2-14.04-3.37-21.03-2.16a14.50462,14.50462,0,0,0-9.06,4.9c-1.97,2.43-3.12,5.71-5.73,7.55-1.99,1.41-.09,4.73,1.93,3.3,2.51-1.77,3.95-4.25,5.57-6.79a10.72456,10.72456,0,0,1,6.71-4.94c6.68-1.72,14.14-.09,20.59,1.83,3.17.94,6.29,2.06,9.38,3.22a17.34875,17.34875,0,0,0-4.41,7.15l-.01.01a2.00276,2.00276,0,0,0-.52,1.81,30.642,30.642,0,0,0-.64,3.44c-.62,4.85-.65,10.24,2.85,14.07a11.29425,11.29425,0,0,0,13.36,2.5,19.07278,19.07278,0,0,0,8.95-10.07,27.895,27.895,0,0,0,1.79-11.52c3.96,1.16,7.94,2.24,11.93,3.3C571.48463,70.45269,579.70463,72.78269,586.06463,68.86269Zm-78.9,117.91c1.66.56-24.26-15.13-41.81-32.31a262.529,262.529,0,0,1-29.04-34.52c1.19,7.05,5.69,27.02,25.47,44.8C477.60463,178.95269,500.14463,184.42269,507.16463,186.77269Zm-32.28,7.37c1.24.41-18.07-11.28-31.15-24.08a195.85949,195.85949,0,0,1-21.64-25.72c.89,5.25,4.24,20.13,18.98,33.38C452.85463,188.31269,469.65463,192.38269,474.88463,194.14269Zm-18.15,13.11c.96.32-13.94-8.71-24.03-18.58a151.21024,151.21024,0,0,1-16.7-19.85,44.83882,44.83882,0,0,0,14.65,25.76C439.74463,202.75269,452.70463,205.89269,456.73463,207.25269Z"/><path d="M674.78463,212.21269c.07.5.11.99.14,1.48a2.02348,2.02348,0,0,1-.44-1.1c-.01-.11-.02-.22-.04-.34A1.861,1.861,0,0,0,674.78463,212.21269Z"/><path class="cls-1" d="M672.33463,208.71269a4.3547,4.3547,0,0,1,2.11,3.54,271.62236,271.62236,0,0,1-33.85,2.21,284.47833,284.47833,0,0,1-63.04-7c-18.68-4.2-37.5-9.69-54.21-19.26a1.74681,1.74681,0,0,1-.86-2.05,1.96377,1.96377,0,0,0,3.29-.97,151.114,151.114,0,0,0,28.61,12.14,283.13927,283.13927,0,0,0,58.6,12.01q13.155,1.275,26.42,1.32h.09q3.405.15,6.84.14a117.34548,117.34548,0,0,0,14.52-.94.55371.55371,0,0,0,.18-.02Q666.70463,209.41269,672.33463,208.71269Z"/><path d="M670.44463.98269a1.99143,1.99143,0,0,1-1.67,2.84c-.3.02-.61.03-.91.05-.24-.33-.49-.66-.74-.99a1.92916,1.92916,0,0,1,.69-2.62,1.976,1.976,0,0,1,2.61.69C670.43463.96269,670.44463.97269,670.44463.98269Z"/><path class="cls-1" d="M686.17463,42.96269a145.91249,145.91249,0,0,1-30.97,42.49,171.05427,171.05427,0,0,1-15.07,12.93,200.23128,200.23128,0,0,1-74.95,35.4q-3.42.81-6.9,1.48c-13.34,2.62-27.07,4.3-39.25,10.57-1.71.88-.91,3.07.56,3.47v.04c-.02,1.02-.03,2.04,0,3.06a78.43235,78.43235,0,0,0,4.64,25.18,2.44842,2.44842,0,0,0,1.9,1.55,64.22068,64.22068,0,0,0,15.11,10.5,89.98132,89.98132,0,0,0,8.75,3.86,140.45043,140.45043,0,0,0,13.88,4.37,1.59848,1.59848,0,0,0,.21.05c5.1,1.35,10.25,2.26,15.43,3.26.84.16,1.67.32,2.51.49,10.21,2,20.44,4.21,30.72,5.95a215.394,215.394,0,0,0,26.66,3.04q-13.245-.03-26.42-1.32a283.13927,283.13927,0,0,1-58.6-12.01,151.114,151.114,0,0,1-28.61-12.14,1.76105,1.76105,0,0,0-.23-1.29,189.93345,189.93345,0,0,1-17.48-39.83c7.63-9.01,19.8-12.72,30.88-15.45,6.71-1.66,13.48-3,20.16-4.8a165.14532,165.14532,0,0,0,20.21-6.74c13.64-5.62,26.21-13.54,38.42-21.74q18.735-12.6,36.68-26.33Q670.68963,56.47769,686.17463,42.96269Z"/><path d="M668.77463.00269a1.6014,1.6014,0,0,1,1.65.95,1.976,1.976,0,0,0-2.61-.69,1.92916,1.92916,0,0,0-.69,2.62c.25.33.5.66.74.99-6.75.37-13.49.76-20.24,1.21-29.11,1.94-58.25,4.55-87.14,8.69a294.85082,294.85082,0,0,0-41.83,8.64,322.7767,322.7767,0,0,0-39.53,15q-7.365,3.27-14.68,6.65a1.557,1.557,0,0,0-2.09-2.07l-.42-.91c11.44-5.31,22.92-10.54,34.67-15.11a251.93462,251.93462,0,0,1,41.13-12.2c14.12-2.86,28.43-4.7,42.72-6.39C609.80463,3.93269,639.27463,1.56269,668.77463.00269Z"/><path d="M654.35463,168.11269a88.61244,88.61244,0,0,1,8.28,37.66c-1.26.2-2.54.36-3.81.5a1.5483,1.5483,0,0,1-.01-.22,83.97989,83.97989,0,0,0-7.09-34.48c.64-1.04,1.26-2.08,1.89-3.12Z"/><path d="M662.63463,205.77269v.28a1.788,1.788,0,0,1-1.57,1.82,1.83251,1.83251,0,0,1-2.24-1.6C660.09463,206.13269,661.37463,205.97269,662.63463,205.77269Z"/><path d="M661.06463,207.87269l.26,1.92c-.1.02-.2.03-.29.04a.55371.55371,0,0,1-.18.02q-10.65.84-21.36.8h-.09a215.394,215.394,0,0,1-26.66-3.04l.29-1.76a1.72182,1.72182,0,0,0,2.15-1.73c.55.1,1.1.19,1.65.28a1.96456,1.96456,0,0,0,2.77,1.16c.37-.19.75-.39,1.11-.58.27.04.55.08.82.12a155.016,155.016,0,0,0,33.89,1.5c1.13-.09,2.27-.2,3.4-.33A1.83251,1.83251,0,0,0,661.06463,207.87269Z"/><path d="M658.66463,87.40269a1.86426,1.86426,0,0,1,.66,2.51c-3.12,5.81-4.68,12.23-5.82,18.68-1,5.6-1.73,11.25-2.99,16.8a105.75964,105.75964,0,0,1-5.29,16.75,115.496,115.496,0,0,1-7.78,15.63c-2.09,3.48-4.91,9.11-9.34,9.73l-.23-2.06q.06-.915.09-1.83c1.87-.53,3.23-3.05,4.16-4.5q2.565-3.99,4.79-8.17a108.072,108.072,0,0,0,10.88-31.28c1.74-9.52,2.71-19.26,6.54-28.17C655.80463,90.16269,657.24463,88.79269,658.66463,87.40269Z"/><path class="cls-3" d="M651.72463,171.57269a83.97989,83.97989,0,0,1,7.09,34.48,1.5483,1.5483,0,0,0,.01.22c-1.13.13-2.27.24-3.4.33a155.016,155.016,0,0,1-33.89-1.5c-.27-.04-.55-.08-.82-.12,11.52-6.25,20.04-16.24,27.09-27.12C649.15463,175.79269,650.45463,173.68269,651.72463,171.57269Z"/><path d="M656.50463,87.39269a1.83081,1.83081,0,0,1,2.16.01c-1.42,1.39-2.86,2.76-4.33,4.09.51-1.18,1.07-2.35,1.69-3.5A2.11225,2.11225,0,0,1,656.50463,87.39269Z"/><path d="M655.20463,85.45269l1.3,1.94a2.11225,2.11225,0,0,0-.48.6c-.62,1.15-1.18,2.32-1.69,3.5a188.45549,188.45549,0,0,1-35.64,25.5,1.69419,1.69419,0,0,0-2.34,1.25.03674.03674,0,0,1-.01.03q-6.21,3.36-12.63,6.28a204.6356,204.6356,0,0,1-40.97,13.7c-.45.1-.89.19-1.34.28-.33-.36-.67-.72-1.01-1.07a2.0885,2.0885,0,0,0-1.79-.53l-.32-1.67q3.48-.675,6.9-1.48a200.23128,200.23128,0,0,0,74.95-35.4A171.05427,171.05427,0,0,0,655.20463,85.45269Z"/><path d="M654.35463,168.11269l-.74.34h-3.3l-.85-.51c.28-.47.57-.95.85-1.42a1.92861,1.92861,0,0,1,3.3,0C653.86463,167.05269,654.11463,167.58269,654.35463,168.11269Z"/><path d="M650.31463,168.45269h3.3c-.63,1.04-1.25,2.08-1.89,3.12C651.28463,170.52269,650.80463,169.48269,650.31463,168.45269Z"/><path d="M650.31463,168.45269c.49,1.03.97,2.07,1.41,3.12-1.27,2.11-2.57,4.22-3.92,6.29-7.05,10.88-15.57,20.87-27.09,27.12-1.29-.18-2.59-.38-3.88-.58a1.64251,1.64251,0,0,1,.84-2.14,61.74594,61.74594,0,0,0,19.22-15.8,148.14,148.14,0,0,0,12.57-18.52Z"/><path class="cls-3" d="M654.33463,91.49269c-3.83,8.91-4.8,18.65-6.54,28.17a108.072,108.072,0,0,1-10.88,31.28q-2.235,4.185-4.79,8.17c-.93,1.45-2.29,3.97-4.16,4.5a111.68705,111.68705,0,0,0-7.47-44.58,2.47361,2.47361,0,0,0-.5-.79l-.01-.01a1.94791,1.94791,0,0,0-1.29-1.24A188.45549,188.45549,0,0,0,654.33463,91.49269Z"/><path d="M644.34463,286.38269c6.1,31.08,7.46,63,6.02,94.61-.93,20.38-3.04,40.66-5.75,60.86a.00979.00979,0,0,0-.01-.01v-.01a.16281.16281,0,0,0-.03-.06v-.01h-.01v-.01a1.60668,1.60668,0,0,0-2.94-.05,658.1092,658.1092,0,0,0,6.16-73.27c.61-28.97-1.39-58.06-7.41-86.4h.02a1.32885,1.32885,0,0,0,.42.76C642.02463,283.96269,643.21463,285.16269,644.34463,286.38269Z"/><path d="M660.85463,209.85269a117.34548,117.34548,0,0,1-14.52.94q-3.435.015-6.84-.14Q650.18963,210.68269,660.85463,209.85269Z"/><path class="cls-4" d="M640.37463,282.03269c6.02,28.34,8.02,57.43,7.41,86.4a658.1092,658.1092,0,0,1-6.16,73.27,1.127,1.127,0,0,0-.05.32.01385.01385,0,0,1,0,.02q-1.575,11.835-3.4,23.63-.585,3.795-1.18,7.59-.555,3.495-1.12,6.99a1.40106,1.40106,0,0,0-.93.96q-6.69,20.955-13.87,41.75-7.545,21.945-15.52,43.74-8.175,22.335-16.74,44.53-8.43,21.855-17.26,43.55-8.4,20.58-17.22,40.99-1.02,2.37-2.06,4.74a254.33091,254.33091,0,0,1-35.83,45.03,228.66539,228.66539,0,0,1-40.18,31.49,343.62415,343.62415,0,0,1-45.33,23.18c-16.8,7.23-33.96,13.59-51.11,19.92-19.3,7.13-38.61,14.22-57.71,21.87q-3.765,1.515-7.51,3.04c-16.23,3.99-32.87,5.65-49.52,6.51-16.61.86-33.25.97-49.85,2-16.51,1.02-33.06,2.96-49.05,7.35-15.31,4.2-29.9,10.72-43.79,18.36-4.25,2.34-8.45,4.79-12.6,7.31q2.22-1.89,4.44-3.76,26.4-22.2,52.79-44.41,6.66-5.61,13.34-11.22c2.13-1.79,4.25-3.58,6.38-5.37,2.04-1.71,4.02-3.65,6.23-5.16.33-.23.67-.44,1.01-.65,8.72-5.23,17.21-10.73,25.54-16.58,17.34-12.18,34.12-25.18,52.13-36.38,2.44-1.52,4.82-3.1,7.17-4.75,4.15-2.9,8.15-5.98,12.04-9.21,7.14.79,14.37,0,21.43-1.14a155.789,155.789,0,0,0,17.97-3.99,167.72358,167.72358,0,0,0,64.86-35.75,165.25732,165.25732,0,0,0,24.87-27.57,168.54161,168.54161,0,0,0,19.13-35.52c5.87-14.61,10.33-29.76,14.82-44.84q6.915-23.22,13.13-46.66,12.405-46.875,21.69-94.48,1.14-5.88,2.23-11.77a1.48013,1.48013,0,0,0-.6-1.53c2.5-5.4,4.85-10.87,7.01-16.43,10.85-27.89,16.68-57.71,13.44-87.65a147.72186,147.72186,0,0,0-8.61-36.58,1.36605,1.36605,0,0,0,.25-.48c2.88-9.09,5.73-18.24,6.83-27.75.9-7.86-.06-15.59-.98-23.4q15.51,0,31-.09c10.03-.05,20.06-.12,30.09-.14a19.64436,19.64436,0,0,1,4.2,4.29,21.22737,21.22737,0,0,1,2.37,4.74,8.36063,8.36063,0,0,0,4.52,4.15c4.81,2.2,10.25,1.57,15.4,1.39,5.55-.19,11.1-.61,16.61-1.32a130.05669,130.05669,0,0,0,22.77-4.88Q638.20463,271.77769,640.37463,282.03269Z"/><path d="M644.61463,441.85269c.01.01.01.01,0,.02a.0438.0438,0,0,1-.01-.03A.00979.00979,0,0,1,644.61463,441.85269Z"/><path d="M644.60463,441.84269a.0438.0438,0,0,0,.01.03c-.21,1.61-.43,3.21-.65,4.82a23.32942,23.32942,0,0,1-2.28-4.12,1.36033,1.36033,0,0,1-.11-.53.01385.01385,0,0,0,0-.02,3.06184,3.06184,0,0,0,.05-.32,1.60668,1.60668,0,0,1,2.94.05v.01a.00979.00979,0,0,0,.01.01.07559.07559,0,0,1,.01.04C644.58463,441.82269,644.59463,441.83269,644.60463,441.84269Z"/><path d="M644.57463,441.77269a.16281.16281,0,0,1,.03.06l-.02-.02A.07559.07559,0,0,0,644.57463,441.77269Z"/><path d="M644.60463,441.83269v.01c-.01-.01-.02-.02-.02-.03Z"/><path d="M644.57463,441.76269v.01a.00979.00979,0,0,1-.01-.01Z"/><path d="M643.24463,280.97269q.57,2.7,1.1,5.41c-1.13-1.22-2.32-2.42-3.53-3.59a1.32885,1.32885,0,0,1-.42-.76,1.53138,1.53138,0,0,1,2.54-1.36C643.03463,280.77269,643.14463,280.87269,643.24463,280.97269Z"/><path d="M643.24463,280.97269c-.1-.1-.21-.2-.31-.3a1.53138,1.53138,0,0,0-2.54,1.36h-.02q-2.175-10.245-5.08-20.35c.96-.29,1.91-.61,2.86-.94q1.785,6.18,3.31,12.44Q642.40963,277.06769,643.24463,280.97269Z"/><path d="M641.68463,442.57269a23.32942,23.32942,0,0,0,2.28,4.12q-1.83,13.185-3.92,26.34a1.5966,1.5966,0,0,0-2.84.26l-.21-.03q.6-3.795,1.18-7.59,1.815-11.805,3.4-23.63A1.36033,1.36033,0,0,0,641.68463,442.57269Z"/><path d="M641.62463,441.70269a3.06184,3.06184,0,0,1-.05.32A1.127,1.127,0,0,1,641.62463,441.70269Z"/><path d="M640.04463,473.03269c-.09.59-.19,1.19-.28,1.78-.17,1.08-.34,2.15-.52,3.23a19.34724,19.34724,0,0,1-1.97-3.94,1.45112,1.45112,0,0,1-.07-.81A1.5966,1.5966,0,0,1,640.04463,473.03269Z"/><path d="M638.02463,260.29269c.04.15.09.3.13.45-.95.33-1.9.65-2.86.94-.05-.2-.11-.4-.17-.6a1.37136,1.37136,0,0,1,.93-1.75A1.46146,1.46146,0,0,1,638.02463,260.29269Z"/><path d="M635.87463,480.25269a1.46465,1.46465,0,0,1,1.96,1.76q-.81,2.55-1.64,5.12-1.47,4.56-2.97,9.11Q634.58963,488.26269,635.87463,480.25269Z"/><path d="M637.83463,482.01269a1.46465,1.46465,0,0,0-1.96-1.76q.57-3.495,1.12-6.99l.21.03a1.45112,1.45112,0,0,0,.07.81,19.34724,19.34724,0,0,0,1.97,3.94q-6.465,40.53-14.76,80.74c-6.11,29.52-12.98,58.91-21.19,87.92-7.19,25.43-15.32,50.73-26.07,74.89a1.52542,1.52542,0,0,0-2.78-1.07c1.21-2.73,2.4-5.47,3.54-8.23,10.43-25.13,18.41-51.26,25.49-77.5,7.79-28.84,14.38-58,20.25-87.29q5.115-25.56,9.5-51.26,1.5-4.56,2.97-9.11Q637.01963,484.56769,637.83463,482.01269Z"/><path d="M635.48463,257.63269l.57,1.7a1.37136,1.37136,0,0,0-.93,1.75c.06.2.12.4.17.6a130.05669,130.05669,0,0,1-22.77,4.88c-5.51.71-11.06,1.13-16.61,1.32-5.15.18-10.59.81-15.4-1.39a8.36063,8.36063,0,0,1-4.52-4.15,21.22737,21.22737,0,0,0-2.37-4.74,19.64436,19.64436,0,0,0-4.2-4.29h.62a1.94186,1.94186,0,0,0,1.26-3.35,24.96533,24.96533,0,0,1,5.89,6.11,42.4246,42.4246,0,0,1,2.38,4.95c.79,1.57,3.06,2.35,4.64,2.78,2.38.67,4.95.4,7.4.37,2.78-.05,5.55-.14,8.32-.29,5.34-.29,10.67-.8,15.95-1.62A122.42142,122.42142,0,0,0,635.48463,257.63269Z"/><path d="M634.94463,481.21269a1.40106,1.40106,0,0,1,.93-.96q-1.29,8.01-2.65,15.99-5.43,16.545-11.15,33-7.71,22.245-15.86,44.32-8.22,22.32-16.84,44.49-8.445,21.735-17.29,43.3-8.31,20.205-17.02,40.22a1.52975,1.52975,0,0,0-2.79-1.06q1.035-2.37,2.06-4.74,8.85-20.4,17.22-40.99,8.835-21.69,17.26-43.55,8.565-22.185,16.74-44.53,7.95-21.795,15.52-43.74Q628.22963,502.17269,634.94463,481.21269Z"/><path d="M627.87463,165.44269l.23,2.06a6.12561,6.12561,0,0,1-2.65-.22,1.92319,1.92319,0,0,1-1.4-1.84,107.91486,107.91486,0,0,0-5.46-40.4q.81-2.865,1.44-5.78a1.92709,1.92709,0,0,0-.04-1.02,2.47361,2.47361,0,0,1,.5.79,111.68705,111.68705,0,0,1,7.47,44.58,2.55738,2.55738,0,0,1-1.5-.01C626.93463,164.21269,627.40463,164.82269,627.87463,165.44269Z"/><path d="M627.96463,163.61269q-.03.915-.09,1.83c-.47-.62-.94-1.23-1.41-1.84A2.55738,2.55738,0,0,0,627.96463,163.61269Z"/><path class="cls-1" d="M633.22463,496.24269q-4.38,25.695-9.5,51.26c-5.87,29.29-12.46,58.45-20.25,87.29-7.08,26.24-15.06,52.37-25.49,77.5-1.14,2.76-2.33,5.5-3.54,8.23a269.12462,269.12462,0,0,1-38.83,47.49c-14,13.6-29.35,25.69-45.13,37.14-8.36,6.06-16.84,11.97-25.33,17.85-9.11,6.31-18.28,12.48-27.84,18.1a287.54156,287.54156,0,0,1-61.67,27.52c-21.27,6.46-43.46,9.98-65.71,9.37q-4.17-.12-8.32-.42h-.13c-17.88-.3-35.75-.51-53.63-.1-20.39.46-40.81,1.62-61,4.55-17.22,2.5-35,6.11-50.57,14.2-11.35,5.89-21.64,13.64-33.11,19.33-11.77,5.83-24.43,9.57-37.04,13.11a79.92074,79.92074,0,0,1-19.28,3.4,80.38344,80.38344,0,0,1-17.79-1.26,56.56169,56.56169,0,0,1-13.14-4.14c-3.92-1.82-7.86-4.18-10.56-7.62a12.5999,12.5999,0,0,1-1.56-2.48c19.88,4.17,41.07,7.99,60.71.98,9.15-3.27,17.39-8.52,25.08-14.38.08-.06.15-.12.23-.18,9.38-6.28,18.86-12.41,28.64-18.06,13.71-7.91,28.05-14.85,43.19-19.57,15.8-4.92,32.23-7.26,48.69-8.47,16.5-1.21,33.06-1.37,49.59-2.09,16.59-.72,33.22-2.03,49.49-5.48,1.85-.4,3.68-.81,5.51-1.26a1.45428,1.45428,0,0,0,.46-.11,1.3219,1.3219,0,0,0,.42-.17l.06-.03c19.3-7.88,38.84-15.16,58.41-22.37,17.53-6.47,35.09-12.9,52.34-20.11a373.8069,373.8069,0,0,0,46.31-22.7,237.30185,237.30185,0,0,0,41.21-30.65,249.00175,249.00175,0,0,0,36.56-43.49c1.32-1.98,2.61-3.96,3.88-5.97a1.39238,1.39238,0,0,0,.28-.43,1.48257,1.48257,0,0,0,.2-.45q8.745-20.01,17.02-40.22,8.85-21.57,17.29-43.3,8.625-22.17,16.84-44.49,8.13-22.08,15.86-44.32Q627.77463,512.78769,633.22463,496.24269Z"/><path d="M620.71463,204.98269c-.36.19-.74.39-1.11.58a1.96456,1.96456,0,0,1-2.77-1.16C618.12463,204.60269,619.42463,204.80269,620.71463,204.98269Z"/><path d="M619.99463,118.24269a1.92709,1.92709,0,0,1,.04,1.02q-.63,2.91-1.44,5.78c-.55-1.67-1.15-3.34-1.78-4.99a1.91418,1.91418,0,0,1,1.33-2.35,1.79986,1.79986,0,0,1,1.84.53Z"/><path d="M619.98463,118.23269a1.79986,1.79986,0,0,0-1.84-.53,1.91418,1.91418,0,0,0-1.33,2.35c.63,1.65,1.23,3.32,1.78,4.99a99.72751,99.72751,0,0,1-6.48,16.79,105.77353,105.77353,0,0,1-11.71,18.5,109.70762,109.70762,0,0,1-7.35,8.48c-1.29,1.35-2.6,2.67-3.96,3.94a6.36366,6.36366,0,0,1-4.66,2.12c-3.55-.19-5.08-3.53-6.45-6.29a106.03,106.03,0,0,0-5.63-9.96,114.78015,114.78015,0,0,0-13.21-16.91c.41-.52.83-1.03,1.25-1.55h-2.71l-.17-.85c1.3-.24,2.6-.5,3.89-.78a120.66242,120.66242,0,0,1,14.49,18.53q2.88,4.56,5.3,9.4c.92,1.86,2.32,6.14,4.94,3.83a94.701,94.701,0,0,0,13.66-15.45,97.74328,97.74328,0,0,0,16.55-36.57c.79-.42,1.57-.84,2.35-1.28A1.94791,1.94791,0,0,1,619.98463,118.23269Z"/><path d="M616.35463,118.24269a1.69419,1.69419,0,0,1,2.34-1.25c-.78.44-1.56.86-2.35,1.28A.03674.03674,0,0,0,616.35463,118.24269Z"/><path d="M615.18463,204.12269a1.72182,1.72182,0,0,1-2.15,1.73,1.91092,1.91092,0,0,1-1.67-1.81c-.01-.19-.02-.38-.04-.57C612.60463,203.70269,613.89463,203.92269,615.18463,204.12269Z"/><path d="M615.18463,204.04269v.08c-1.29-.2-2.58-.42-3.86-.65a109.42108,109.42108,0,0,0-6.24-29.49c.69-1.16,1.35-2.33,1.99-3.52l.66-.26A113.6403,113.6403,0,0,1,615.18463,204.04269Z"/><path d="M613.03463,205.85269l-.29,1.76c-10.28-1.74-20.51-3.95-30.72-5.95l.22-1.13a1.848,1.848,0,0,0,1.66-.49c.55-.51,1.1-1.03,1.65-1.55.74.13,1.47.27,2.21.42,7.84,1.57,15.68,3.18,23.56,4.56.02.19.03.38.04.57A1.91092,1.91092,0,0,0,613.03463,205.85269Z"/><path class="cls-3" d="M616.34463,118.27269a97.74328,97.74328,0,0,1-16.55,36.57,94.701,94.701,0,0,1-13.66,15.45c-2.62,2.31-4.02-1.97-4.94-3.83q-2.415-4.83-5.3-9.4a120.66242,120.66242,0,0,0-14.49-18.53c.45-.09.89-.18,1.34-.28a204.6356,204.6356,0,0,0,40.97-13.7Q610.11963,121.62769,616.34463,118.27269Z"/><path class="cls-3" d="M605.08463,173.98269a109.42108,109.42108,0,0,1,6.24,29.49c-7.88-1.38-15.72-2.99-23.56-4.56-.74-.15-1.47-.29-2.21-.42A114.96278,114.96278,0,0,0,605.08463,173.98269Z"/><path d="M607.26463,168.99269c.16.4.32.8.47,1.21l-.66.26c-1.17-.15-2.33-.3-3.49-.45l-.48-.27c.23-.4.45-.8.67-1.21C604.62463,166.96269,606.70463,167.57269,607.26463,168.99269Z"/><path d="M603.58463,170.01269c1.16.15,2.32.3,3.49.45-.64,1.19-1.3,2.36-1.99,3.52C604.60463,172.65269,604.10463,171.32269,603.58463,170.01269Z"/><path d="M603.58463,170.01269c.52,1.31,1.02,2.64,1.5,3.97a114.96278,114.96278,0,0,1-19.53,24.51c-1.54-.3-3.08-.57-4.62-.85a2.43591,2.43591,0,0,1,.27-.3,111.60349,111.60349,0,0,0,21.9-27.6Z"/><path d="M584.13463,65.56269c2.1-1.3,4.02,2.01,1.93,3.3-6.36,3.92-14.58,1.59-21.25-.19-3.99-1.06-7.97-2.14-11.93-3.3-.03-1.02-.11-2.03-.22-3.03a2.36179,2.36179,0,0,0-.43-1.14c4.51,1.34,9.05,2.57,13.6,3.78C571.41463,66.47269,578.76463,68.87269,584.13463,65.56269Z"/><path d="M585.55463,198.49269c-.55.52-1.1,1.04-1.65,1.55a1.848,1.848,0,0,1-1.66.49,1.912,1.912,0,0,1-1.31-2.89C582.47463,197.92269,584.01463,198.19269,585.55463,198.49269Z"/><path d="M582.24463,200.53269l-.22,1.13c-.84-.17-1.67-.33-2.51-.49-5.18-1-10.33-1.91-15.43-3.26l.13-.51a1.74175,1.74175,0,0,0,2.46-1.72c-.03-.34-.06-.69-.09-1.03q2.235.585,4.47,1.08c3.27.73,6.57,1.32,9.88,1.91A1.912,1.912,0,0,0,582.24463,200.53269Z"/><path d="M574.44463,720.52269a1.52542,1.52542,0,0,1,2.78,1.07c-.06.15-.12.29-.19.44-.09.14-.18.27-.27.41C575.79463,723.51269,573.73463,722.11269,574.44463,720.52269Z"/><path d="M577.03463,722.03269c.07-.15.13-.29.19-.44A1.20128,1.20128,0,0,1,577.03463,722.03269Z"/><path d="M576.76463,722.44269c.09-.14.18-.27.27-.41A1.22,1.22,0,0,1,576.76463,722.44269Z"/><path d="M574.44463,720.52269c-.71,1.59,1.35,2.99,2.32,1.92-1.38,2.14-2.78,4.27-4.22,6.37a273.10787,273.10787,0,0,1-39.91,46.15c-14.51,13.46-30.3,25.44-46.4,36.92-17.83,12.72-35.74,25.48-54.92,36.09a278.15994,278.15994,0,0,1-62.88,25.82,203.18573,203.18573,0,0,1-66.79,6.78,1.50167,1.50167,0,0,0-.03-3q4.155.3,8.32.42c22.25.61,44.44-2.91,65.71-9.37a287.54156,287.54156,0,0,0,61.67-27.52c9.56-5.62,18.73-11.79,27.84-18.1,8.49-5.88,16.97-11.79,25.33-17.85,15.78-11.45,31.13-23.54,45.13-37.14A269.12462,269.12462,0,0,0,574.44463,720.52269Z"/><path d="M571.30463,249.96269a1.94186,1.94186,0,0,1-1.26,3.35h-.62a30.77658,30.77658,0,0,0-4.33-2.76c-.71-.37-1.42-.72-2.15-1.04,2.37-.01,4.73-.02,7.1-.02a1.86818,1.86818,0,0,1,.92.22c.1.07.21.14.31.22Z"/><path d="M571.27463,249.93269c-.1-.08-.21-.15-.31-.22A1.34322,1.34322,0,0,1,571.27463,249.93269Z"/><path d="M570.96463,249.71269a1.86818,1.86818,0,0,0-.92-.22c-2.37,0-4.73.01-7.1.02a50.3783,50.3783,0,0,0-21.98-3.97c-3.21.09-6.41.38-9.61.67,1.69-.68,1.44-3.69-.74-3.69a1.275,1.275,0,0,0-.2.01l1.17-.09a107.35318,107.35318,0,0,1,13.88-.68c8.13.41,16.57,2.31,23.55,6.63Q570.01963,249.00769,570.96463,249.71269Z"/><path d="M566.67463,195.68269a1.74175,1.74175,0,0,1-2.46,1.72,1.90711,1.90711,0,0,1-1.36-1.72c-.06-.7-.12-1.39-.2-2.08q1.965.555,3.93,1.05C566.61463,194.99269,566.64463,195.34269,566.67463,195.68269Z"/><path class="cls-1" d="M565.09463,250.55269a30.77658,30.77658,0,0,1,4.33,2.76c-10.03.02-20.06.09-30.09.14q-15.495.075-31,.09c-.03-.22-.05-.44-.08-.66a1.62728,1.62728,0,0,0-1.67-1.43v-1.74h3.14c17.73-.01,35.48-.15,53.22-.2C563.67463,249.83269,564.38463,250.18269,565.09463,250.55269Z"/><path d="M564.21463,197.40269l-.13.51a1.59848,1.59848,0,0,1-.21-.05,140.45043,140.45043,0,0,1-13.88-4.37,89.98132,89.98132,0,0,1-8.75-3.86l.25-.49a1.90775,1.90775,0,0,0,2.22-.23c.57-.48,1.12-.98,1.66-1.51a97.32607,97.32607,0,0,0,10.97,4.28q3.135,1.02,6.31,1.92c.08.69.14,1.38.2,2.08A1.90711,1.90711,0,0,0,564.21463,197.40269Z"/><path d="M563.36463,177.65269a89.9552,89.9552,0,0,1,3.22,17q-1.965-.495-3.93-1.05a84.61271,84.61271,0,0,0-2.59-13.57c-.72-2.6-1.56-5.18-2.51-7.71a12.20529,12.20529,0,0,0-1.33-2.95c.21-.82.39-1.65.53-2.49l1.12-1.28a8.97488,8.97488,0,0,1,2.55,3.63A83.04568,83.04568,0,0,1,563.36463,177.65269Z"/><path d="M560.39463,137.46269c.34.35.68.71,1.01,1.07-1.29.28-2.59.54-3.89.78-.52.1-1.05.2-1.57.29.59-.71,1.16-1.43,1.74-2.14a1.56844,1.56844,0,0,1,.92-.53A2.0885,2.0885,0,0,1,560.39463,137.46269Z"/><path class="cls-3" d="M560.06463,180.03269a84.61271,84.61271,0,0,1,2.59,13.57q-3.18-.9-6.31-1.92a97.32607,97.32607,0,0,1-10.97-4.28,37.78093,37.78093,0,0,0,10.85-18.03,12.20529,12.20529,0,0,1,1.33,2.95C558.50463,174.85269,559.34463,177.43269,560.06463,180.03269Z"/><path d="M560.39463,140.16269c-.42.52-.84,1.03-1.25,1.55-.47-.52-.96-1.04-1.46-1.55Z"/><path d="M557.68463,140.16269c.5.51.99,1.03,1.46,1.55q-11.55,14.25-23.06,28.49l-1.32-1.07c-.48-.53-.95-1.06-1.41-1.61q11.31-13.95,22.59-27.92c.52-.09,1.05-.19,1.57-.29Z"/><path d="M558.28463,135.26269l.32,1.67a1.56844,1.56844,0,0,0-.92.53c-.58.71-1.15,1.43-1.74,2.14-11.17,2.09-22.62,3.73-32.93,8.52a1.974,1.974,0,0,0-3.42,1.18c-1.47-.4-2.27-2.59-.56-3.47C531.21463,139.56269,544.94463,137.88269,558.28463,135.26269Z"/><path d="M557.87463,165.60269l-1.12,1.28c-.78.45-1.57.89-2.35,1.34l-1.72-.43q.225-.945.39-1.92a1.947,1.947,0,0,1,2.35-1.34A5.1914,5.1914,0,0,1,557.87463,165.60269Z"/><path d="M554.40463,168.22269c.78-.45,1.57-.89,2.35-1.34-.14.84-.32,1.67-.53,2.49A2.66272,2.66272,0,0,0,554.40463,168.22269Z"/><path class="cls-3" d="M555.94463,139.60269q-11.28,13.965-22.59,27.92a57.69193,57.69193,0,0,1-9.62-15.62,3.08316,3.08316,0,0,0-.33-.59c-.01-.66,0-1.32.01-1.97a1.75963,1.75963,0,0,0-.4-1.22C533.32463,143.33269,544.77463,141.69269,555.94463,139.60269Z"/><path d="M552.27463,700.51269a1.52975,1.52975,0,0,1,2.79,1.06c-.07.15-.13.3-.2.45-.09.14-.18.29-.28.43C553.61463,703.49269,551.58463,702.09269,552.27463,700.51269Z"/><path d="M554.86463,702.02269c.07-.15.13-.3.2-.45A1.48257,1.48257,0,0,1,554.86463,702.02269Z"/><path d="M554.58463,702.45269c.1-.14.19-.29.28-.43A1.39238,1.39238,0,0,1,554.58463,702.45269Z"/><path d="M554.40463,168.22269a2.66272,2.66272,0,0,1,1.82,1.15,37.78093,37.78093,0,0,1-10.85,18.03c-1.24-.57-2.45-1.18-3.65-1.82a34.61986,34.61986,0,0,0,10.96-17.79Z"/><path d="M552.27463,700.51269c-.69,1.58,1.34,2.98,2.31,1.94-1.27,2.01-2.56,3.99-3.88,5.97a249.00175,249.00175,0,0,1-36.56,43.49,237.30185,237.30185,0,0,1-41.21,30.65,373.8069,373.8069,0,0,1-46.31,22.7c-17.25,7.21-34.81,13.64-52.34,20.11-19.57,7.21-39.11,14.49-58.41,22.37a1.53264,1.53264,0,0,0-1.27-2.7q3.75-1.53,7.51-3.04c19.1-7.65,38.41-14.74,57.71-21.87,17.15-6.33,34.31-12.69,51.11-19.92a343.62415,343.62415,0,0,0,45.33-23.18,228.66539,228.66539,0,0,0,40.18-31.49A254.33091,254.33091,0,0,0,552.27463,700.51269Z"/><path d="M552.88463,65.37269a27.895,27.895,0,0,1-1.79,11.52,19.07278,19.07278,0,0,1-8.95,10.07,11.29425,11.29425,0,0,1-13.36-2.5c-3.5-3.83-3.47-9.22-2.85-14.07a30.642,30.642,0,0,1,.64-3.44c0,.01.01.03.01.04a7.54681,7.54681,0,0,0,3.06,4.46c-.02.15-.04.3-.05.45-.35,3.91-.39,8.33,3.05,10.93,3.31,2.51,7.32,1.59,10.31-.95,5.21-4.42,6.45-11.17,6.05-17.67C550.29463,64.61269,551.58463,65.00269,552.88463,65.37269Z"/><path d="M552.66463,62.34269c.11,1,.19,2.01.22,3.03-1.3-.37-2.59-.76-3.88-1.16-.04-.63-.1-1.25-.16-1.87a1.84631,1.84631,0,0,1,1.28-1.79c.7.22,1.4.43,2.11.65A2.36179,2.36179,0,0,1,552.66463,62.34269Z"/><path d="M550.75463,60.43269a1.75876,1.75876,0,0,1,1.48.77c-.71-.22-1.41-.43-2.11-.65A1.75877,1.75877,0,0,1,550.75463,60.43269Z"/><path d="M549.00463,64.21269c.4,6.5-.84,13.25-6.05,17.67-2.99,2.54-7,3.46-10.31.95-3.44-2.6-3.4-7.02-3.05-10.93.01-.15.03-.3.05-.45a11.5172,11.5172,0,0,0,3.47,1.77,9.20793,9.20793,0,0,0,9.12-1.77,6.95406,6.95406,0,0,0,1.37-8.24,6.56382,6.56382,0,0,0-.65-.97Q545.95463,63.27769,549.00463,64.21269Z"/><path d="M548.84463,62.34269c.06.62.12,1.24.16,1.87q-3.045-.93-6.05-1.97a8.72658,8.72658,0,0,0-6.94-2.87c-.24,0-.49.02-.73.04-.08-.03-.16-.06-.25-.09a1.98964,1.98964,0,0,0-3.3-1.55c-.07.07-.15.14-.22.21-3.09-1.16-6.21-2.28-9.38-3.22-6.45-1.92-13.91-3.55-20.59-1.83a10.72456,10.72456,0,0,0-6.71,4.94c-1.62,2.54-3.06,5.02-5.57,6.79-2.02,1.43-3.92-1.89-1.93-3.3,2.61-1.84,3.76-5.12,5.73-7.55a14.50462,14.50462,0,0,1,9.06-4.9c6.99-1.21,14.31.16,21.03,2.16,6.96,2.07,13.63,4.99,20.49,7.37,2.15.74,4.31,1.45,6.48,2.11A1.84631,1.84631,0,0,0,548.84463,62.34269Z"/><path d="M545.37463,187.40269c-.54.53-1.09,1.03-1.66,1.51a1.90775,1.90775,0,0,1-2.22.23,1.73207,1.73207,0,0,1-.48-2.93c.24-.2.48-.41.71-.63C542.92463,186.22269,544.13463,186.83269,545.37463,187.40269Z"/><path class="cls-1" d="M540.96463,245.54269a50.3783,50.3783,0,0,1,21.98,3.97c-17.74.05-35.49.19-53.22.2h-3.14q-9.24,0-18.49-.04l.01-1.71q8.82,0,17.62-.27,9.315-.3,18.62-.9c1.97-.13,3.94-.3,5.91-.48a2.01581,2.01581,0,0,0,.36.03,2.12257,2.12257,0,0,0,.74-.13C534.55463,245.92269,537.75463,245.63269,540.96463,245.54269Z"/><path d="M535.29463,63.22269c-.03,0-.2.03-.12.03-.02,0-.03.01-.05.01-.12.03-.24.05-.35.07-.24.06-.47.12-.7.19-.13.04-.25.09-.39.13.25-.14-.36.12-.06.03-.2.1-.4.2-.6.31-.11.07-.22.15-.33.22.26-.26-.32.19-.03.02-.15.14-.29.28-.44.42.19-.36-.29.29,0,0-.04.07-.09.13-.13.2-.03.05-.09.13-.13.21.03-.15-.03-.21-.04.11a.15959.15959,0,0,1,.03-.08.17018.17018,0,0,1-.01.07,1.93851,1.93851,0,0,1-1.28,1.3,14.05652,14.05652,0,0,1,3.78-5.99,1.754,1.754,0,0,0,.58-1.03c.09-.01.17-.02.26-.03,2.44.94,4.88,1.86,7.34,2.72.11.04.22.08.33.11a6.56382,6.56382,0,0,1,.65.97,6.95406,6.95406,0,0,1-1.37,8.24,9.20793,9.20793,0,0,1-9.12,1.77,11.5172,11.5172,0,0,1-3.47-1.77,22.90758,22.90758,0,0,1,.91-4.62,4.99421,4.99421,0,0,0,.29.5c.02.03.07.08.11.13a.00979.00979,0,0,0,.01.01c.01.02.03.03.04.05l.02.02.01.01c.06.07.11.14.17.2.2.22.43.41.65.61.06.04.12.09.15.11.13.09.27.18.41.26a7.92859,7.92859,0,0,0,.86.48,1.00922,1.00922,0,0,0,.15.07.11938.11938,0,0,0,.05.02c.02.01.06.02.1.04.11.04.21.08.32.12a8.20669,8.20669,0,0,0,.97.27c.17.04.34.07.51.1-.08-.01-.03,0,.03.01h.03c.03.01.06.01.09.02a.63729.63729,0,0,1-.07-.02.14862.14862,0,0,0,.06.01c.34.02.67.05,1,.04.11,0,.22-.01.34-.01.03-.01.24-.03.31-.04h.02a4.74589,4.74589,0,0,0,.63-.14c.18-.05.38-.11.56-.18a.03674.03674,0,0,0,.03-.01.00979.00979,0,0,0,.01-.01h.01c.21-.12.43-.22.64-.36a1.36356,1.36356,0,0,1,.14-.1c.01,0,.01,0,.02-.01.02-.01.03-.03.05-.04l.02-.02.01-.01c.06-.05.12-.11.18-.16.12-.12.24-.24.35-.37.01-.01.02-.02.02-.03.01-.01.02-.01.02-.02.04-.05.1-.12.13-.16l.21-.36a2.639,2.639,0,0,0,.15-.29.10873.10873,0,0,0-.01.05c-.06.14-.03.08,0,0a.689.689,0,0,1,.03-.08l-.02.02c.07-.23.14-.46.2-.7,0-.01.01-.02.01-.04v-.04a.07559.07559,0,0,0,.01-.04v-.04a.10873.10873,0,0,0,.01-.05s0-.01-.01,0a.615.615,0,0,0,.01-.14c.01-.14,0-.27,0-.4v-.03q-.015-.09-.03-.15a.03674.03674,0,0,0-.01-.03v-.01a.27982.27982,0,0,1-.01-.06c-.04-.13-.07-.27-.11-.4-.01-.03-.03-.09-.05-.14-.02-.04-.03-.07-.05-.08v-.02a.00979.00979,0,0,0-.01-.01.07581.07581,0,0,0-.02-.04c-.07-.13-.15-.24-.22-.36a.07581.07581,0,0,1-.02-.04l.02.02c.19.17-.18-.32-.02-.02-.22-.2-.41-.42-.62-.62.04.03.08.05.09.06-.04-.04-.12-.09-.14-.11l.05.05c-.12-.08-.23-.16-.35-.23a4.156,4.156,0,0,0-.47-.24c0-.01,0-.01-.01-.01s-.02-.01-.03-.01c-.1-.03-.39-.14-.47-.17a8.07646,8.07646,0,0,0-.85-.2.83167.83167,0,0,1-.13-.02h.06a.30828.30828,0,0,1-.1-.01h-.01a.55019.55019,0,0,1-.12-.01,1.47687,1.47687,0,0,0-.21-.01,10.41973,10.41973,0,0,0-1.48.03c-.05,0-.08.01-.1.01C535.23463,63.23269,535.27463,63.23269,535.29463,63.22269Z"/><path d="M542.95463,62.24269c-.11-.03-.22-.07-.33-.11-2.46-.86-4.9-1.78-7.34-2.72.24-.02.49-.04.73-.04A8.72658,8.72658,0,0,1,542.95463,62.24269Z"/><path d="M528.78463,176.38269a58.88916,58.88916,0,0,0,12.94,9.2c-.23.22-.47.43-.71.63a1.73207,1.73207,0,0,0,.48,2.93l-.25.49a64.22068,64.22068,0,0,1-15.11-10.5c1.25.24,2.53-.4,2.02-1.83-.17-.48-.34-.96-.5-1.45A1.81827,1.81827,0,0,1,528.78463,176.38269Z"/><path class="cls-4" d="M540.59463,66.11269c0,.13.01.26,0,.4a.615.615,0,0,1-.01.14v.05c0,.02-.01.05-.01.08v.04c0,.02-.01.03-.01.04-.06.24-.13.47-.2.7v.01a2.639,2.639,0,0,1-.15.29l-.21.36c-.03.04-.09.11-.13.16,0,.01-.01.01-.02.02a.12376.12376,0,0,1-.02.03c-.11.13-.23.25-.35.37-.06.05-.12.11-.18.16l-.01.01c-.01.01-.01.01-.02.01l-.05.05c-.01.01-.01.01-.02.01a1.36356,1.36356,0,0,0-.14.1c-.21.14-.43.24-.64.36h-.01a.00979.00979,0,0,1-.01.01.03674.03674,0,0,1-.03.01c-.18.07-.38.13-.56.18a4.74589,4.74589,0,0,1-.63.14h-.02c-.07.01-.28.03-.31.04-.12,0-.23.01-.34.01-.33.01-.66-.02-1-.04a.14862.14862,0,0,1-.06-.01c-.01.01-.01,0-.02,0h-.03c-.01,0-.02-.01-.03-.01-.17-.03-.34-.06-.51-.1a8.20669,8.20669,0,0,1-.97-.27c-.11-.04-.21-.08-.32-.12-.04-.02-.08-.03-.1-.04a.11938.11938,0,0,1-.05-.02,1.00922,1.00922,0,0,1-.15-.07,7.92859,7.92859,0,0,1-.86-.48c-.14-.08-.28-.17-.41-.26-.03-.02-.09-.07-.15-.11-.22-.2-.45-.39-.65-.61-.06-.06-.11-.13-.17-.2l-.01-.01c-.01-.01-.01-.02-.02-.02-.01-.02-.03-.03-.04-.05a.00979.00979,0,0,1-.01-.01c-.04-.05-.09-.1-.11-.13a4.99421,4.99421,0,0,1-.29-.5c.03-.13.07-.25.11-.37a1.93851,1.93851,0,0,0,1.28-1.3.17018.17018,0,0,0,.01-.07.031.031,0,0,1,.01-.02v-.01c.04-.08.1-.16.13-.21.04-.07.09-.13.13-.2.15-.14.29-.28.44-.42a.14385.14385,0,0,0,.03-.02c.11-.07.22-.15.33-.22.2-.11.4-.21.6-.31.01,0,.01-.01.02-.01s.02-.01.03-.01l.01-.01c.14-.04.26-.09.39-.13.23-.07.46-.13.7-.19.11-.02.23-.04.35-.07.02,0,.03-.01.05-.01s.05-.01.1-.01a10.41973,10.41973,0,0,1,1.48-.03,1.47687,1.47687,0,0,1,.21.01.55019.55019,0,0,0,.12.01.10873.10873,0,0,0,.05.01.83167.83167,0,0,0,.13.02,8.07646,8.07646,0,0,1,.85.2c.08.03.37.14.47.17.01,0,.01,0,.01.01a.0774.0774,0,0,0,.03.01,4.156,4.156,0,0,1,.47.24c.12.07.23.15.35.23.21.2.4.42.62.62a.07581.07581,0,0,0,.02.04c.07.12.15.23.22.36a.07581.07581,0,0,1,.02.04.0438.0438,0,0,1,.01.03c.02.01.03.04.05.08.02.05.04.11.05.14.04.13.07.27.11.4a.12683.12683,0,0,0,.01.06v.01a.04938.04938,0,0,0,.01.03q.015.06.03.15Z"/><path d="M540.58463,66.70269v.04a.07559.07559,0,0,1-.01.04C540.57463,66.75269,540.58463,66.72269,540.58463,66.70269Z"/><path d="M540.38463,67.54269a.689.689,0,0,0-.03.08.10873.10873,0,0,1,.01-.05v-.01Z"/><path d="M540.33463,65.19269v.02a.0438.0438,0,0,0-.01-.03A.00979.00979,0,0,1,540.33463,65.19269Z"/><path d="M540.35463,67.62269c-.03.08-.06.14,0,0Z"/><path d="M540.06463,64.74269c-.16-.3.21.19.02.02Z"/><path d="M539.53463,64.18269c-.01-.01-.05-.03-.09-.06l-.05-.05C539.41463,64.09269,539.49463,64.14269,539.53463,64.18269Z"/><path d="M539.29463,68.97269l-.02.02v-.01C539.28463,68.98269,539.28463,68.98269,539.29463,68.97269Z"/><path d="M539.27463,68.98269v.01c-.02.01-.03.03-.05.04Z"/><path d="M538.62463,63.65269a.0774.0774,0,0,1-.03-.01h.02C538.62463,63.64269,538.62463,63.64269,538.62463,63.65269Z"/><path d="M537.19463,63.24269h-.06a.06012.06012,0,0,0-.04-.01A.30828.30828,0,0,0,537.19463,63.24269Z"/><path d="M537.09463,63.23269a.06012.06012,0,0,1,.04.01.10873.10873,0,0,1-.05-.01Z"/><path d="M536.08463,170.20269c-.44.54-.88,1.09-1.32,1.63a1.92231,1.92231,0,0,1-2.71,0c-.63-.7-1.25-1.41-1.85-2.13l1.85-.57h2.71Z"/><path d="M535.17463,63.25269c-.08,0,.09-.03.12-.03C535.27463,63.23269,535.23463,63.23269,535.17463,63.25269Z"/><path d="M531.73463,57.77269a1.98964,1.98964,0,0,1,3.3,1.55c-1.17-.45-2.34-.9-3.52-1.34C531.58463,57.91269,531.66463,57.84269,531.73463,57.77269Z"/><path d="M535.03463,59.32269a.48686.48686,0,0,1-.01.12c-2.89.32-5.83,1.79-6.76,4.7a2.23136,2.23136,0,0,0-.08.45.79848.79848,0,0,0-.26.05,2.16229,2.16229,0,0,0-.82.49,17.34875,17.34875,0,0,1,4.41-7.15C532.69463,58.42269,533.86463,58.87269,535.03463,59.32269Z"/><path d="M534.76463,169.13269h-2.71c.43-.54.87-1.07,1.3-1.61C533.81463,168.07269,534.28463,168.60269,534.76463,169.13269Z"/><path d="M535.02463,59.44269a1.754,1.754,0,0,1-.58,1.03,14.05652,14.05652,0,0,0-3.78,5.99,1.0548,1.0548,0,0,1-.24.06l-.01-.01a4.258,4.258,0,0,1-.14-.54,1.92225,1.92225,0,0,0-2.09-1.38,2.23136,2.23136,0,0,1,.08-.45C529.19463,61.23269,532.13463,59.76269,535.02463,59.44269Z"/><path d="M533.62463,63.68269c-.3.09.31-.17.06-.03l-.01.01c-.01,0-.02.01-.03.01S533.63463,63.68269,533.62463,63.68269Z"/><path d="M533.35463,167.52269c-.43.54-.87,1.07-1.3,1.61l-1.85.57a64.88969,64.88969,0,0,1-6.05-8.53,73.34,73.34,0,0,1-.75-9.86,3.08316,3.08316,0,0,1,.33.59A57.69193,57.69193,0,0,0,533.35463,167.52269Z"/><path d="M532.66463,64.23269c-.29.17.29-.28.03-.02A.14385.14385,0,0,1,532.66463,64.23269Z"/><path d="M532.22463,64.65269c-.29.29.19-.36,0,0Z"/><path d="M531.92463,65.17269c.01-.32.07-.26.04-.11v.01a.031.031,0,0,0-.01.02A.15959.15959,0,0,0,531.92463,65.17269Z"/><path d="M530.61463,242.52269c2.18,0,2.43,3.01.74,3.69-.37.03-.74.06-1.1.1a1.92877,1.92877,0,0,1,.13-3.78h.03A1.275,1.275,0,0,1,530.61463,242.52269Z"/><path d="M531.02463,67.54269l-.02-.02C531.01463,67.52269,531.01463,67.53269,531.02463,67.54269Z"/><path d="M531.35463,246.21269a2.12257,2.12257,0,0,1-.74.13,2.01581,2.01581,0,0,1-.36-.03C530.61463,246.27269,530.98463,246.24269,531.35463,246.21269Z"/><path d="M530.66463,66.46269c-.04.12-.08.24-.11.37a.21859.21859,0,0,1-.03-.05c0-.01-.01-.02-.01-.04a.138.138,0,0,1-.03-.04.03674.03674,0,0,0-.01-.03.85637.85637,0,0,1-.05-.15A1.0548,1.0548,0,0,0,530.66463,66.46269Z"/><path d="M530.47463,66.67269a.03674.03674,0,0,1,.01.03c.01.02.02.03.02.04a.10945.10945,0,0,0,.02.04.21859.21859,0,0,0,.03.05,22.90758,22.90758,0,0,0-.91,4.62,7.54681,7.54681,0,0,1-3.06-4.46c0-.01-.01-.03-.01-.04.15-.61.33-1.21.52-1.81l.01-.01a2.16229,2.16229,0,0,1,.82-.49.79848.79848,0,0,1,.26-.05,1.95629,1.95629,0,0,0,1.41,1.9,2.131,2.131,0,0,0,.83.03A.85637.85637,0,0,0,530.47463,66.67269Z"/><path d="M530.51463,66.74269c0,.02.01.03.01.04a.10945.10945,0,0,1-.02-.04Z"/><path d="M530.48463,66.70269a.138.138,0,0,0,.03.04h-.01C530.50463,66.73269,530.49463,66.72269,530.48463,66.70269Z"/><path d="M530.41463,66.51269l.01.01a2.131,2.131,0,0,1-.83-.03,1.95629,1.95629,0,0,1-1.41-1.9,1.92225,1.92225,0,0,1,2.09,1.38A4.258,4.258,0,0,0,530.41463,66.51269Z"/><path d="M530.38463,242.53269a1.92877,1.92877,0,0,0-.13,3.78c-1.97.18-3.94.35-5.91.48q-9.3.615-18.62.9-8.805.27-17.62.27-9.87,0-19.74-.33c-20.68-.69-41.31-2.42-61.85-4.92.02-.05.04-.09.06-.14a1.92318,1.92318,0,0,0-1.33-2.35c-.09-.02-.18-.04-.26-.05l.17-1.44a692.113,692.113,0,0,0,71.5,5.29q18.285.36,36.56-.44Q521.80963,243.20769,530.38463,242.53269Z"/><path d="M528.15463,177.30269c.51,1.43-.77,2.07-2.02,1.83l-.05-.05c-1.43-1.36.02-3.36,1.57-3.23C527.81463,176.34269,527.98463,176.82269,528.15463,177.30269Z"/><path d="M527.65463,175.85269c-1.55-.13-3,1.87-1.57,3.23l.05.05a2.44842,2.44842,0,0,1-1.9-1.55,78.43235,78.43235,0,0,1-4.64-25.18h.36a1.37213,1.37213,0,0,0,.1.52,59.77766,59.77766,0,0,0,4.1,8.25A83.10135,83.10135,0,0,0,527.65463,175.85269Z"/><path d="M527.09463,65.14269c-.19.6-.37,1.2-.52,1.81A2.00276,2.00276,0,0,1,527.09463,65.14269Z"/><path class="cls-1" d="M525.54463,183.89269a1.76105,1.76105,0,0,1,.23,1.29c-.17-.09-.33-.18-.5-.28a1.88686,1.88686,0,0,0-2.79,1.25,1.99164,1.99164,0,0,1-.24-.33,195.06242,195.06242,0,0,1-18.01-41.2,1.90309,1.90309,0,0,1-.07-.87,1.78585,1.78585,0,0,0,.52,1.13,1.93154,1.93154,0,0,0,2.71,0c.22-.28.45-.55.67-.82A189.93345,189.93345,0,0,0,525.54463,183.89269Z"/><path class="cls-1" d="M525.27463,184.90269c.17.1.33.19.5.28a1.96377,1.96377,0,0,1-3.29.97A1.88686,1.88686,0,0,1,525.27463,184.90269Z"/><path d="M523.01463,148.12269a1.75963,1.75963,0,0,1,.4,1.22c-.01.65-.02,1.31-.01,1.97a1.84944,1.84944,0,0,0-2.02-.74,2.05507,2.05507,0,0,0-1.43,1.83h-.36c-.03-1.02-.02-2.04,0-3.06v-.04a1.881,1.881,0,0,0,1.37-.17C521.64463,148.78269,522.32463,148.45269,523.01463,148.12269Z"/><path d="M523.40463,151.31269a73.34,73.34,0,0,0,.75,9.86,59.77766,59.77766,0,0,1-4.1-8.25,1.37213,1.37213,0,0,1-.1-.52,2.05507,2.05507,0,0,1,1.43-1.83A1.84944,1.84944,0,0,1,523.40463,151.31269Z"/><path d="M523.01463,148.12269c-.69.33-1.37.66-2.05,1.01a1.881,1.881,0,0,1-1.37.17A1.974,1.974,0,0,1,523.01463,148.12269Z"/><path d="M510.84463,341.75269c3.24,29.94-2.59,59.76-13.44,87.65-2.16,5.56-4.51,11.03-7.01,16.43a1.37392,1.37392,0,0,0-2.29.73q-.615,3.345-1.26,6.69c-.23.48-.47.96-.71,1.44a1.87843,1.87843,0,0,0-2.77.63l-1.32-.66a286.31061,286.31061,0,0,0,13.88-31.83c5.65-15.58,9.88-31.85,11.42-48.39a159.291,159.291,0,0,0-1.8-43.6,137.79833,137.79833,0,0,0-7.26-25.58l1.35-.33a1.60415,1.60415,0,0,0,2.6.24A147.72186,147.72186,0,0,1,510.84463,341.75269Z"/><path class="cls-5" d="M508.33463,253.54269c.92,7.81,1.88,15.54.98,23.4-1.1,9.51-3.95,18.66-6.83,27.75a1.36605,1.36605,0,0,1-.25.48c-.54-1.44-1.1-2.86-1.71-4.27,2.53-7.99,4.93-16.08,5.84-24.42.84-7.71-.13-15.3-1.03-22.94Z"/><path class="cls-1" d="M508.25463,252.88269c.03.22.05.44.08.66h-3c-.03-.22-.05-.44-.08-.66a1.22989,1.22989,0,0,1,1.33-1.43A1.62728,1.62728,0,0,1,508.25463,252.88269Z"/><path class="cls-1" d="M507.92463,143.61269c.05.15.09.3.14.45-.22.27-.45.54-.67.82a1.93154,1.93154,0,0,1-2.71,0,1.78585,1.78585,0,0,1-.52-1.13A1.96277,1.96277,0,0,1,507.92463,143.61269Z"/><path class="cls-2" d="M505.54463,330.84269a159.291,159.291,0,0,1,1.8,43.6c-1.54,16.54-5.77,32.81-11.42,48.39a286.31061,286.31061,0,0,1-13.88,31.83c-10.47,20.67-23.06,40.32-35.97,59.5-10.1,15.01-20.24,30.19-32.76,43.33a130.88569,130.88569,0,0,1-83.09,40.2,127.57868,127.57868,0,0,1-23.37-.06q-5.85-.57-11.62-1.71a28.49052,28.49052,0,0,1-9.19-3.25c-2.42-1.46-4.49-3.57-4.99-6.4,17.58-20.5,35.16-41.55,47.41-65.75a137.87165,137.87165,0,0,0,13.16-38.22c2.71-15.45,1.63-31,.79-46.57-.13-2.41-.24-4.82-.31-7.23a1.76363,1.76363,0,0,0,.12-1.01c-.05-.33-.11-.66-.17-.98-.17-7.37-.04-14.72.52-22.06q.465-6.015,1.34-12.02a1.5992,1.5992,0,0,0,.19-1.22,186.57415,186.57415,0,0,1,10.71-39.8,167.66535,167.66535,0,0,1,7.73-16.86,162.663,162.663,0,0,1,12.36-19.87c7.47-10.27,15.37-20.39,23.78-29.91.42-.48.85-.96,1.28-1.44l.01-.01a1.59287,1.59287,0,0,0,.71-.78c.9-1,1.83-2.01,2.77-3.01a1.54652,1.54652,0,0,0,.46-.49c13.63-14.32,31.58-28.32,52.08-23.24a42.2176,42.2176,0,0,1,8.11,2.93c15.8,11.88,27.04,28.35,34.18,46.53A137.79833,137.79833,0,0,1,505.54463,330.84269Z"/><path class="cls-1" d="M465.35463,154.46269c17.55,17.18,43.47,32.87,41.81,32.31-7.02-2.35-29.56-7.82-45.38-22.03-19.78-17.78-24.28-37.75-25.47-44.8A262.529,262.529,0,0,0,465.35463,154.46269Z"/><path class="cls-1" d="M506.58463,249.71269v1.74a1.22989,1.22989,0,0,0-1.33,1.43c.03.22.05.44.08.66q-17.7-.015-35.41-.23c-3.28-.04-6.57-.09-9.85-.16a41.02681,41.02681,0,0,0-11.33-2.1l.06-1.98c13.09.39,26.19.54,39.29.6Q497.33463,249.71769,506.58463,249.71269Z"/><path class="cls-1" d="M505.33463,253.54269c.9,7.64,1.87,15.23,1.03,22.94-.91,8.34-3.31,16.43-5.84,24.42a114.05555,114.05555,0,0,0-20.32-32.43,100.21914,100.21914,0,0,0-13.58-12.46,1.727,1.727,0,0,0-.64-.49,1.69083,1.69083,0,0,0-.74-.34,46.56026,46.56026,0,0,0-5.17-2.03c3.28.07,6.57.12,9.85.16Q487.62463,253.55269,505.33463,253.54269Z"/><path d="M500.52463,300.90269c.61,1.41,1.17,2.83,1.71,4.27a1.60415,1.60415,0,0,1-2.6-.24,1.35984,1.35984,0,0,1-.05-1.04C499.90463,302.90269,500.21463,301.90269,500.52463,300.90269Z"/><path d="M500.52463,300.90269c-.31,1-.62,2-.94,2.99a1.35984,1.35984,0,0,0,.05,1.04l-1.35.33c-7.14-18.18-18.38-34.65-34.18-46.53,1.87.89,3.54-1.43,2.52-2.72a100.21914,100.21914,0,0,1,13.58,12.46A114.05555,114.05555,0,0,1,500.52463,300.90269Z"/><path class="cls-6" d="M490.39463,445.83269a1.48013,1.48013,0,0,1,.6,1.53q-1.08,5.895-2.23,11.77-9.225,47.58-21.69,94.48-6.195,23.43-13.13,46.66c-4.49,15.08-8.95,30.23-14.82,44.84a168.54161,168.54161,0,0,1-19.13,35.52,165.25732,165.25732,0,0,1-24.87,27.57,167.72358,167.72358,0,0,1-64.86,35.75,155.789,155.789,0,0,1-17.97,3.99c-7.06,1.14-14.29,1.93-21.43,1.14q1.695-1.395,3.35-2.83a68.10353,68.10353,0,0,0,11.2-.37,151.257,151.257,0,0,0,35.99-8.74,165.64775,165.64775,0,0,0,60.54-39.58,158.98875,158.98875,0,0,0,22.24-28.76c7.38-12.25,12.8-25.5,17.39-39.01,5.03-14.81,9.42-29.86,13.74-44.89q6.54-22.725,12.39-45.66,9.735-38.235,17.4-76.97c.59-1.88,1.17-3.76,1.72-5.65a1.62582,1.62582,0,0,0-.32-1.6c.12-.59.23-1.18.34-1.77Q488.67463,449.56269,490.39463,445.83269Z"/><path class="cls-1" d="M488.10463,446.56269a1.37392,1.37392,0,0,1,2.29-.73q-1.725,3.735-3.55,7.42Q487.48963,449.90769,488.10463,446.56269Z"/><path class="cls-1" d="M488.10463,247.96269l-.01,1.71c-13.1-.06-26.2-.21-39.29-.6q-3.345-.09-6.69-.21c-5.06-.18-10.11-.41-15.16-.72-6.68-.43-13.64-.64-19.93-3.13a1.5828,1.5828,0,0,0-1.19.05,13.11633,13.11633,0,0,1,.68-2.35c20.54,2.5,41.17,4.23,61.85,4.92Q478.23463,247.96269,488.10463,247.96269Z"/><path class="cls-1" d="M486.50463,455.02269a1.62582,1.62582,0,0,1,.32,1.6c-.55,1.89-1.13,3.77-1.72,5.65Q485.80963,458.65769,486.50463,455.02269Z"/><path d="M486.13463,454.69269a1.46131,1.46131,0,0,1,.37.33q-.69,3.63-1.4,7.25c-.28.9-.57,1.8-.86,2.7-7.52,23.1-17.74,45.29-29.11,66.72q-8.07,15.195-16.94,29.93c-5.15,8.58-10.19,17.27-17.03,24.65-10.75,11.59-24.53,19.88-39.25,25.5a1.54057,1.54057,0,0,0-1.95.73c-2.28.83-4.58,1.59-6.9,2.3a162.52465,162.52465,0,0,1-30.6,6.14,1.50951,1.50951,0,0,0-1.68-.93l-.25-2.65a153.215,153.215,0,0,0,39.62-8.87c16.94-6.36,32.86-16.61,43.75-31.27,2.88-3.87,5.35-8.04,7.87-12.15q4.2-6.885,8.27-13.87,8.61-14.82,16.41-30.09a401.33622,401.33622,0,0,0,23.19-54.05Q483.00463,460.92769,486.13463,454.69269Z"/><path d="M483.36463,455.32269a1.87843,1.87843,0,0,1,2.77-.63q-3.12,6.24-6.49,12.37c1.29-3.78,2.48-7.59,3.6-11.42A1.75489,1.75489,0,0,1,483.36463,455.32269Z"/><path class="cls-6" d="M484.24463,464.97269c.29-.9.58-1.8.86-2.7q-7.635,38.715-17.4,76.97-5.835,22.92-12.39,45.66c-4.32,15.03-8.71,30.08-13.74,44.89-4.59,13.51-10.01,26.76-17.39,39.01a158.98875,158.98875,0,0,1-22.24,28.76,165.64775,165.64775,0,0,1-60.54,39.58,151.257,151.257,0,0,1-35.99,8.74,68.10353,68.10353,0,0,1-11.2.37q4.245-3.645,8.32-7.48a393.252,393.252,0,0,0,57.16-67.77c6.8-10.14,13.23-20.67,18.23-31.84,3.08-6.89,6.68-15.18,5.7-22.93a12.29352,12.29352,0,0,0-1.11-3.83,1.234,1.234,0,0,0-.6-.63c14.72-5.62,28.5-13.91,39.25-25.5,6.84-7.38,11.88-16.07,17.03-24.65q8.85-14.745,16.94-29.93C466.50463,510.26269,476.72463,488.07269,484.24463,464.97269Z"/><path class="cls-1" d="M483.36463,455.32269a1.75489,1.75489,0,0,0-.12.32c-1.12,3.83-2.31,7.64-3.6,11.42-9.12,16.68-19.44,32.73-30.04,48.48-9.41,14-18.86,28.12-30.12,40.72a136.3762,136.3762,0,0,1-35.59,28.68c-25.67,14.22-55.89,19.97-84.92,15.39-5.74-.9-11.95-2.06-16.64-5.72q-.3-.78-.54-1.56a15.02911,15.02911,0,0,1-.81-4.74,1.65463,1.65463,0,0,0-.54-1.32v-.01c.21-.24.41-.47.61-.71.5,2.83,2.57,4.94,4.99,6.4a28.49052,28.49052,0,0,0,9.19,3.25q5.76,1.14,11.62,1.71a127.57868,127.57868,0,0,0,23.37.06,130.88569,130.88569,0,0,0,83.09-40.2c12.52-13.14,22.66-28.32,32.76-43.33,12.91-19.18,25.5-38.83,35.97-59.5Z"/><path class="cls-1" d="M449.60463,515.54269c10.6-15.75,20.92-31.8,30.04-48.48a401.33622,401.33622,0,0,1-23.19,54.05q-7.77,15.27-16.41,30.09-4.065,6.975-8.27,13.87c-2.52,4.11-4.99,8.28-7.87,12.15-10.89,14.66-26.81,24.91-43.75,31.27a153.215,153.215,0,0,1-39.62,8.87q-7.485.705-14.99.78a121.02374,121.02374,0,0,1-14.99-.55c-5.2-.59-10.78-1.88-15.18-4.85-3.08-2.08-5.57-5.26-7.68-8.29a45.342,45.342,0,0,1-5.36-9.84c4.69,3.66,10.9,4.82,16.64,5.72,29.03,4.58,59.25-1.17,84.92-15.39a136.3762,136.3762,0,0,0,35.59-28.68C430.74463,543.66269,440.19463,529.54269,449.60463,515.54269Z"/><path class="cls-1" d="M443.73463,170.06269c13.08,12.8,32.39,24.49,31.15,24.08-5.23-1.76-22.03-5.83-33.81-16.42-14.74-13.25-18.09-28.13-18.98-33.38A195.85949,195.85949,0,0,0,443.73463,170.06269Z"/><path d="M466.62463,256.01269c1.02,1.29-.65,3.61-2.52,2.72-1.63-1.23-.45-3.83,1.14-3.55.25.11.49.22.74.34C466.20463,255.68269,466.41463,255.84269,466.62463,256.01269Z"/><path d="M466.62463,256.01269c-.21-.17-.42-.33-.64-.49A1.727,1.727,0,0,1,466.62463,256.01269Z"/><path d="M465.98463,255.52269c-.25-.12-.49-.23-.74-.34A1.69083,1.69083,0,0,1,465.98463,255.52269Z"/><path d="M465.24463,255.18269c-1.59-.28-2.77,2.32-1.14,3.55a42.2176,42.2176,0,0,0-8.11-2.93c-20.5-5.08-38.45,8.92-52.08,23.24a1.59081,1.59081,0,0,0,.23-.45,23.604,23.604,0,0,0,1.09-6.15c7.33-7.2,15.52-13.7,24.96-17.71a49.11613,49.11613,0,0,1,6.54-2.27l1.32.06q11.01.45,22.02.63A46.56026,46.56026,0,0,1,465.24463,255.18269Z"/><path d="M462.35463,41.99269a1.557,1.557,0,0,1,2.09,2.07q-11.58,5.355-23.06,10.93c-2.6,1.26-5.19,2.54-7.77,3.86.6-.45,1.21-.87,1.82-1.29A252.55713,252.55713,0,0,1,462.35463,41.99269Z"/><path class="cls-1" d="M464.44463,44.06269a1.48482,1.48482,0,0,1-.58.52c-2.59,1.34-5.18,2.7-7.75,4.09a186.77088,186.77088,0,0,0-23.82,14.82,124.71342,124.71342,0,0,0-17.98,16.93c-3.23,3.63-6.33,7.39-9.37,11.19a154.84166,154.84166,0,0,0-10.5,13.97c-6.3,10.04-10.23,21.41-13.79,32.65-1.63,5.17-3.07,10.4-4.79,15.54-.95,2.85-2.13,5.61-3.23,8.4-3.37,8.57-4.52,17.59-5.78,26.65-1.67,12.01-4.85,23.89-5.59,36.02a58.1378,58.1378,0,0,0,1.14,16.28c.74,3.34,1.65,6.6,2.19,9.98a92.44544,92.44544,0,0,1,.97,9.24c.32,5.71.13,11.43.42,17.13.14,3.01.57,5.98.76,8.98a78.797,78.797,0,0,1-.01,9.84c-.66,10.62-3.32,20.97-4.69,31.5q-1.83,3.21-3.51,6.48a1.41846,1.41846,0,0,1-.11-.7c.23-3.1.61-6.18,1.08-9.24,1.92-12.71,5.1-25.19,4.22-38.15-.21-3.05-.63-6.08-.76-9.14-.13-2.75-.14-5.51-.17-8.27a110.273,110.273,0,0,0-1.4-18.69c-.59-3.19-1.53-6.29-2.16-9.47a57.06709,57.06709,0,0,1-1.03-8.34,83.88694,83.88694,0,0,1,1.05-16.45c.88-6.07,2.11-12.09,3.17-18.14,1.17-6.62,1.89-13.3,3-19.93a84.36114,84.36114,0,0,1,2.9-12.46c.91-2.79,2.07-5.48,3.15-8.21,1.53-3.92,2.7-7.95,3.92-11.98,1.74-5.72,3.51-11.44,5.5-17.08a144.26978,144.26978,0,0,1,7-16.86,87.81289,87.81289,0,0,1,9.42-14.67,283.71691,283.71691,0,0,1,19.27-22.96,120.79053,120.79053,0,0,1,17.03-14.68c2.58-1.32,5.17-2.6,7.77-3.86Q452.85963,49.41269,464.44463,44.06269Z"/><path d="M461.93463,41.08269l.42.91a252.55713,252.55713,0,0,0-26.92,15.57c-.61.42-1.22.84-1.82,1.29a263.4,263.4,0,0,0-28.65,16.49c-8.24,5.56-14.91,13.15-20.84,21.07a174.34079,174.34079,0,0,0-17.01,27.66c-4.13,8.42-6.8,17.2-9.12,26.26a253.97817,253.97817,0,0,0-6.52,33.47,106.95031,106.95031,0,0,0-.85,15.49c.19,6.57.71,13.14,1.02,19.71l-1.55.07c0-1.09-1.27-1.68-2.34-1.39,0-.17-.01-.35-.02-.52-.3-6.6-.94-13.22-.96-19.83-.02-11.05,1.85-22.16,4.06-32.96a235.19677,235.19677,0,0,1,7.74-29.9,137.02405,137.02405,0,0,1,13.47-27.11,150.21627,150.21627,0,0,1,19.82-25.96c8.09-8.27,18.18-14.16,28.23-19.74,12.43-6.88,25.33-12.87,38.2-18.88C459.50463,42.21269,460.72463,41.65269,461.93463,41.08269Z"/><path d="M448.74463,251.05269a41.02681,41.02681,0,0,1,11.33,2.1q-11.01-.195-22.02-.63l-1.32-.06a41.0384,41.0384,0,0,1,10.81-1.43C447.94463,251.03269,448.34463,251.04269,448.74463,251.05269Z"/><path class="cls-1" d="M432.70463,188.67269c10.09,9.87,24.99,18.9,24.03,18.58-4.03-1.36-16.99-4.5-26.08-12.67a44.83882,44.83882,0,0,1-14.65-25.76A151.21024,151.21024,0,0,0,432.70463,188.67269Z"/><path class="cls-1" d="M448.80463,249.07269l-.06,1.98c-.4-.01-.8-.02-1.2-.02a41.0384,41.0384,0,0,0-10.81,1.43c-3.9-.16-7.79-.36-11.69-.63-6.38-.44-13.02-.76-19.03-3.13a2.521,2.521,0,0,1-.58-.32,26.16889,26.16889,0,0,1,.4-3.32,1.5828,1.5828,0,0,1,1.19-.05c6.29,2.49,13.25,2.7,19.93,3.13,5.05.31,10.1.54,15.16.72Q445.45963,248.98269,448.80463,249.07269Z"/><path class="cls-1" d="M436.73463,252.46269a49.11613,49.11613,0,0,0-6.54,2.27c-9.44,4.01-17.63,10.51-24.96,17.71.15-2.45.07-4.94.06-7.27-.02-5.46-.26-10.94.11-16.39.01-.13.02-.27.03-.4a2.521,2.521,0,0,0,.58.32c6.01,2.37,12.65,2.69,19.03,3.13C428.94463,252.10269,432.83463,252.30269,436.73463,252.46269Z"/><path class="cls-1" d="M404.96463,75.34269a263.4,263.4,0,0,1,28.65-16.49,120.79053,120.79053,0,0,0-17.03,14.68,283.71691,283.71691,0,0,0-19.27,22.96,87.81289,87.81289,0,0,0-9.42,14.67,144.26978,144.26978,0,0,0-7,16.86c-1.99,5.64-3.76,11.36-5.5,17.08-1.22,4.03-2.39,8.06-3.92,11.98-1.08,2.73-2.24,5.42-3.15,8.21a84.36114,84.36114,0,0,0-2.9,12.46c-1.11,6.63-1.83,13.31-3,19.93-1.06,6.05-2.29,12.07-3.17,18.14a83.88694,83.88694,0,0,0-1.05,16.45,57.06709,57.06709,0,0,0,1.03,8.34c.63,3.18,1.57,6.28,2.16,9.47a110.273,110.273,0,0,1,1.4,18.69c.03,2.76.04,5.52.17,8.27.13,3.06.55,6.09.76,9.14.88,12.96-2.3,25.44-4.22,38.15-.47,3.06-.85,6.14-1.08,9.24a1.41846,1.41846,0,0,0,.11.7,177.38188,177.38188,0,0,0-8.32,18.83,183.58828,183.58828,0,0,0-7.8,26.88c0-1.76.09-3.52.24-5.28.63-7.87,2.06-15.5,3.28-23.54,1.89-12.37,3.45-24.79,4.51-37.25,1.61-18.87,2.2-37.81,2.14-56.74-.04-12.51-.37-25.01-.91-37.5-.01-.22-.02-.45-.03-.67-.31-6.57-.83-13.14-1.02-19.71a106.95031,106.95031,0,0,1,.85-15.49,253.97817,253.97817,0,0,1,6.52-33.47c2.32-9.06,4.99-17.84,9.12-26.26a174.34079,174.34079,0,0,1,17.01-27.66C390.05463,88.49269,396.72463,80.90269,404.96463,75.34269Z"/><path d="M405.24463,240.22269a1.92318,1.92318,0,0,1,1.33,2.35c-.02.05-.04.09-.06.14-1.29-.15-2.59-.31-3.88-.47.08-.23.17-.46.26-.69a1.99811,1.99811,0,0,1,2.09-1.38C405.06463,240.18269,405.15463,240.20269,405.24463,240.22269Z"/><path class="cls-1" d="M406.51463,242.71269a13.11633,13.11633,0,0,0-.68,2.35,2.0819,2.0819,0,0,0-1.16,1.29,1.82381,1.82381,0,0,0,.76,2.03c-.01.13-.02.27-.03.4-.37,5.45-.13,10.93-.11,16.39.01,2.33.09,4.82-.06,7.27q-2.385,2.34-4.65,4.76a.03674.03674,0,0,0-.01-.03,22.66275,22.66275,0,0,0,.8-5.88c.25-5.47,0-10.95.02-16.42.01-2.52.06-5.04.31-7.55a22.41065,22.41065,0,0,1,.93-5.08C403.92463,242.40269,405.22463,242.56269,406.51463,242.71269Z"/><path class="cls-1" d="M405.83463,245.06269a26.16889,26.16889,0,0,0-.4,3.32,1.82381,1.82381,0,0,1-.76-2.03A2.0819,2.0819,0,0,1,405.83463,245.06269Z"/><path d="M405.15463,238.73269l-.17,1.44a1.99811,1.99811,0,0,0-2.09,1.38c-.09.23-.18.46-.26.69-2.05-.26-4.11-.53-6.16-.81-.02-.32-.03-.64-.04-.96a1.94974,1.94974,0,0,0-3.73-.69,1.86753,1.86753,0,0,1-.02-1.02,1.98148,1.98148,0,0,1,2.35-1.33c2.94.4,5.9.78,8.85,1.15C404.30463,238.63269,404.73463,238.68269,405.15463,238.73269Z"/><path d="M405.23463,272.44269a23.604,23.604,0,0,1-1.09,6.15,1.59081,1.59081,0,0,1-.23.45c-.15.16-.3.33-.46.49a2.10074,2.10074,0,0,1-2.74-.32c-.03-.67-.08-1.34-.13-2.01Q402.84963,274.78769,405.23463,272.44269Z"/><path d="M403.91463,279.04269a1.54652,1.54652,0,0,1-.46.49C403.61463,279.37269,403.76463,279.20269,403.91463,279.04269Z"/><path d="M400.71463,279.21269a2.10074,2.10074,0,0,0,2.74.32c-.94,1-1.87,2.01-2.77,3.01a1.86337,1.86337,0,0,0,.14-.81C400.80463,280.89269,400.76463,280.05269,400.71463,279.21269Z"/><path class="cls-1" d="M402.63463,242.24269a22.41065,22.41065,0,0,0-.93,5.08c-.25,2.51-.3,5.03-.31,7.55-.02,5.47.23,10.95-.02,16.42a22.66275,22.66275,0,0,1-.8,5.88c-.87-11.95-3.64-23.75-4.1-35.74C398.52463,241.71269,400.58463,241.98269,402.63463,242.24269Z"/><path d="M400.82463,281.73269a1.86337,1.86337,0,0,1-.14.81c-.24.26-.47.52-.71.78l-.01.01a1.96608,1.96608,0,0,1-2.96-1.6c-.01-.2-.01-.41-.03-.61.79-.88,1.59-1.75,2.39-2.62.4-.43.8-.86,1.2-1.28-.03.12-.07.23-.11.35a1.60139,1.60139,0,0,0,.26,1.64C400.76463,280.05269,400.80463,280.89269,400.82463,281.73269Z"/><path d="M400.58463,277.20269c.05.67.1,1.34.13,2.01a1.60139,1.60139,0,0,1-.26-1.64c.04-.12.08-.23.11-.35A.02151.02151,0,0,1,400.58463,277.20269Z"/><path d="M400.58463,277.20269a.02151.02151,0,0,0-.02.02c.01-.02.02-.03.01-.05A.03674.03674,0,0,1,400.58463,277.20269Z"/><path d="M400.57463,277.17269c.01.02,0,.03-.01.05-.4.42-.8.85-1.2,1.28-.8.87-1.6,1.74-2.39,2.62-.47-13.63-3.98-27.01-4.36-40.65a2.1128,2.1128,0,0,1,.09-.68,1.71922,1.71922,0,0,0,1.31,1.32c.82.11,1.64.22,2.46.32C396.93463,253.42269,399.70463,265.22269,400.57463,277.17269Z"/><path d="M399.97463,283.32269c.24-.26.47-.52.71-.78A1.59287,1.59287,0,0,1,399.97463,283.32269Z"/><path d="M399.96463,283.33269c-.43.48-.86.96-1.28,1.44-8.41,9.52-16.31,19.64-23.78,29.91a162.663,162.663,0,0,0-12.36,19.87l-1.18-.64a1.85746,1.85746,0,0,0,.06-.34q.225-2.895.62-5.78a156.93836,156.93836,0,0,1,10.16-15.66c7.82-10.63,15.93-21.2,24.77-31.01.02.2.02.41.03.61A1.96608,1.96608,0,0,0,399.96463,283.33269Z"/><path d="M396.43463,240.47269c.01.32.02.64.04.96-.82-.1-1.64-.21-2.46-.32a1.71922,1.71922,0,0,1-1.31-1.32v-.01A1.94974,1.94974,0,0,1,396.43463,240.47269Z"/><path d="M383.62463,616.23269c.98,7.75-2.62,16.04-5.7,22.93-5,11.17-11.43,21.7-18.23,31.84a393.252,393.252,0,0,1-57.16,67.77q-4.08,3.825-8.32,7.48c-1.38-.07-2.75-.19-4.11-.38,5.84-4.91,11.42-10.15,16.82-15.51a390.74255,390.74255,0,0,0,54.59-67.63c6-9.47,11.75-19.32,15.79-29.81a51.49159,51.49159,0,0,0,3.26-11.54c.34-2.54.35-5.42-.64-7.46a1.45266,1.45266,0,0,1,.04-1.42c.65-.24,1.3-.48,1.95-.73a1.234,1.234,0,0,1,.6.63A12.29352,12.29352,0,0,1,383.62463,616.23269Z"/><path d="M379.96463,612.50269a1.54057,1.54057,0,0,1,1.95-.73C381.26463,612.02269,380.61463,612.26269,379.96463,612.50269Z"/><path class="cls-1" d="M379.92463,613.92269c.99,2.04.98,4.92.64,7.46a51.49159,51.49159,0,0,1-3.26,11.54c-4.04,10.49-9.79,20.34-15.79,29.81a390.74255,390.74255,0,0,1-54.59,67.63c-5.4,5.36-10.98,10.6-16.82,15.51-8.33-1.12-16.14-4.48-20.96-11.96a19.66924,19.66924,0,0,1-2.98-8,1.34155,1.34155,0,0,0-.33-.73,189.89067,189.89067,0,0,0,32.73-30.54,265.32176,265.32176,0,0,0,40.24-64.49q1.86-4.155,3.58-8.35a1.324,1.324,0,0,0,.08-.86,162.52465,162.52465,0,0,0,30.6-6.14c2.32-.71,4.62-1.47,6.9-2.3A1.45266,1.45266,0,0,0,379.92463,613.92269Z"/><path d="M361.36463,333.91269l1.18.64a167.66535,167.66535,0,0,0-7.73,16.86,186.57415,186.57415,0,0,0-10.71,39.8,1.11991,1.11991,0,0,0-.06-.23,29.8478,29.8478,0,0,1-1.01-3.85,21.8658,21.8658,0,0,1-.49-3.63c-.09-1.17-.13-2.34-.13-3.52a183.58828,183.58828,0,0,1,7.8-26.88,177.38188,177.38188,0,0,1,8.32-18.83A1.56956,1.56956,0,0,0,361.36463,333.91269Z"/><path d="M362.04463,327.79269q-.39,2.88-.62,5.78a1.85746,1.85746,0,0,1-.06.34,1.56956,1.56956,0,0,1-2.83.36Q360.21463,331.00269,362.04463,327.79269Z"/><path d="M352.58463,257.17269c.06,18.93-.53,37.87-2.14,56.74-1.06,12.46-2.62,24.88-4.51,37.25-1.22,8.04-2.65,15.67-3.28,23.54-.15,1.76-.24,3.52-.24,5.28q-1.245,5.88-2.12,11.84a33.98368,33.98368,0,0,1-.94-3.6c-1.2-6.04-.77-12.23-.03-18.3,1.1-9.06,2.72-18.04,4-27.07q2.985-20.91,4.25-41.99c1.3-21.21,1.45-42.48.89-63.72q-.165-6.51-.43-13.02c.67-1.45,1.3-2.91,1.92-4.39a1.70433,1.70433,0,0,0,.14-.66l1.55-.07c.01.22.02.45.03.67C352.21463,232.16269,352.54463,244.66269,352.58463,257.17269Z"/><path d="M350.09463,219.07269a1.70433,1.70433,0,0,1-.14.66c-.62,1.48-1.25,2.94-1.92,4.39-.08-2.15-.18-4.29-.28-6.44C348.82463,217.39269,350.09463,217.98269,350.09463,219.07269Z"/><path class="cls-2" d="M348.46463,237.14269c.56,21.24.41,42.51-.89,63.72q-1.29,21.075-4.25,41.99c-1.28,9.03-2.9,18.01-4,27.07-.74,6.07-1.17,12.26.03,18.3a33.98368,33.98368,0,0,0,.94,3.6c-.38,2.53-.7,5.07-.98,7.61-.09.82-.17,1.65-.25,2.47-10.61-8.06-21.91-16.14-34.08-21.61-14.62-6.58-30.7-8.61-46.56-9.45-18.2-.98-36.58-1.39-54.8-1.05-9.09.16-18.36,1.12-26.73,4.28,26.34-23.73,58.26-40.93,87.23-61.1,33.62-23.41,66.57-50.93,83.91-88.85Q348.28963,230.63269,348.46463,237.14269Z"/><path d="M347.75463,217.68269c.1,2.15.2,4.29.28,6.44-17.34,37.92-50.29,65.44-83.91,88.85-28.97,20.17-60.89,37.37-87.23,61.1a42.63564,42.63564,0,0,0-12.22,6.95,147.24211,147.24211,0,0,1,13.64-12.91c56.64-47.97,137.73-76.13,168.2-149.33A1.82126,1.82126,0,0,1,347.75463,217.68269Z"/><path d="M344.10463,391.21269a1.5992,1.5992,0,0,1-.19,1.22c.03-.18.05-.35.08-.53C344.02463,391.67269,344.06463,391.44269,344.10463,391.21269Z"/><path d="M344.04463,390.98269a1.11991,1.11991,0,0,1,.06.23c-.04.23-.08.46-.11.69-.03.18-.05.35-.08.53a2.00893,2.00893,0,0,1-3.56-.43l-.06-.18q.87-5.955,2.12-11.84c0,1.18.04,2.35.13,3.52a21.8658,21.8658,0,0,0,.49,3.63A29.8478,29.8478,0,0,0,344.04463,390.98269Z"/><path d="M343.91463,392.43269q-.885,6-1.34,12.02l-1.71-.06a1.84976,1.84976,0,0,0-.74-1.69c-.35-.27-.7-.54-1.06-.8.08-.82.16-1.65.25-2.47.28-2.54.6-5.08.98-7.61l.06.18A2.00893,2.00893,0,0,0,343.91463,392.43269Z"/><path d="M342.41463,435.73269c.84,15.57,1.92,31.12-.79,46.57a137.87165,137.87165,0,0,1-13.16,38.22c-12.25,24.2-29.83,45.25-47.41,65.75-.03-.19-.05-.38-.07-.58-.18.43-.35.86-.54,1.29a1.96466,1.96466,0,0,0-3.01.58,6.26512,6.26512,0,0,1-.16-1.87c.11-1.58,2.27-3.33,3.26-4.48,1.15-1.35,2.29-2.69,3.44-4.05,10.1-11.93,19.97-24.1,28.66-37.11,8.45-12.64,15.84-26.1,20.73-40.53a120.22609,120.22609,0,0,0,5.34-22.37,151.28719,151.28719,0,0,0,.79-26.75c-.35-8.13-.99-16.25-1.21-24.4a23.76951,23.76951,0,0,1,.51,2.43c.28,1.88,2.7,1.53,3.31.07C342.17463,430.91269,342.28463,433.32269,342.41463,435.73269Z"/><path d="M340.86463,404.39269l1.71.06c-.56,7.34-.69,14.69-.52,22.06a27.99733,27.99733,0,0,0-3.82-9.69c.06-3.6.22-7.21.49-10.81C339.80463,406.47269,340.76463,405.49269,340.86463,404.39269Z"/><path d="M342.46463,620.94269a1.324,1.324,0,0,1-.08.86q-1.725,4.2-3.58,8.35a265.32176,265.32176,0,0,1-40.24,64.49,189.89067,189.89067,0,0,1-32.73,30.54,1.5879,1.5879,0,0,0-2.35.46l-1.16-1.64c14.89-10.46,27.96-23.51,39.27-37.72a253.94629,253.94629,0,0,0,21.24-31.3,287.1473,287.1473,0,0,0,16.56-33.74C340.41463,621.15269,341.44463,621.05269,342.46463,620.94269Z"/><path d="M342.22463,427.49269a1.76363,1.76363,0,0,1-.12,1.01c-.02-.67-.04-1.33-.05-1.99C342.11463,426.83269,342.17463,427.16269,342.22463,427.49269Z"/><path d="M342.05463,426.51269c.01.66.03,1.32.05,1.99-.61,1.46-3.03,1.81-3.31-.07a23.76951,23.76951,0,0,0-.51-2.43c-.03-.98-.06-1.96-.07-2.94q-.045-3.12.02-6.24A27.99733,27.99733,0,0,1,342.05463,426.51269Z"/><path d="M340.78463,620.01269a1.50951,1.50951,0,0,1,1.68.93c-1.02.11-2.05.21-3.07.3.03-.08.07-.16.1-.24A1.581,1.581,0,0,1,340.78463,620.01269Z"/><path d="M340.12463,402.70269a1.84976,1.84976,0,0,1,.74,1.69c-.1,1.1-1.06,2.08-2.14,1.62.1-1.37.21-2.74.34-4.11C339.42463,402.16269,339.77463,402.43269,340.12463,402.70269Z"/><path d="M340.53463,617.36269l.25,2.65a1.581,1.581,0,0,0-1.29.99c-.03.08-.07.16-.1.24a178.40019,178.40019,0,0,1-23.45.47c-5.73-.26-11.58-.96-16.96-3.05a26.67118,26.67118,0,0,1-10.75-7.53,53.80871,53.80871,0,0,1-7.59-11.25c-1.78-3.54-3.44-7.54-3.37-11.57a1.76139,1.76139,0,0,1,.16-.75,12.57112,12.57112,0,0,0,3.73,6.07,15.18137,15.18137,0,0,0,1.17.98,45.342,45.342,0,0,0,5.36,9.84c2.11,3.03,4.6,6.21,7.68,8.29,4.4,2.97,9.98,4.26,15.18,4.85a121.02374,121.02374,0,0,0,14.99.55Q333.04463,618.06769,340.53463,617.36269Z"/><path class="cls-1" d="M339.06463,401.90269c-.13,1.37-.24,2.74-.34,4.11a1.64271,1.64271,0,0,1-.4-.23c-10.04-7.65-20.64-15.17-31.93-20.88-14.27-7.22-30.41-9.47-46.19-10.4-16.99-1.01-34.07-1.17-51.09-1.18-14.76-.01-30.64.84-42.33,10.56a107.06981,107.06981,0,0,1,8.6-8.45c.5-.46,1-.92,1.51-1.36,8.37-3.16,17.64-4.12,26.73-4.28,18.22-.34,36.6.07,54.8,1.05,15.86.84,31.94,2.87,46.56,9.45C317.15463,385.76269,328.45463,393.84269,339.06463,401.90269Z"/><path class="cls-1" d="M338.32463,405.78269a1.64271,1.64271,0,0,0,.4.23c-.27,3.6-.43,7.21-.49,10.81-9.73-15.59-33.75-23.12-49.47-27.32a253.24077,253.24077,0,0,0-90.93-7.33c-11.11,1.19-22.87,3.07-32.85,8.37a31.92845,31.92845,0,0,0-3.93,2.46,30.99537,30.99537,0,0,1,5.73-9.12c11.69-9.72,27.57-10.57,42.33-10.56,17.02.01,34.1.17,51.09,1.18,15.78.93,31.92,3.18,46.19,10.4C317.68463,390.61269,328.28463,398.13269,338.32463,405.78269Z"/><path d="M338.21463,423.06269c.01.98.04,1.96.07,2.94-2.84-10.69-13.03-17.78-22.42-22.66-14.59-7.58-30.99-11.73-47.1-14.59-28.53-5.05-60.33-7.14-88.7.05a57.02214,57.02214,0,0,0-14.05,5.24c-1.95,1.1-7.09,6.93-9.19,4.83-2.66-2.64,1.9-10.34,4.44-13.85a1.80186,1.80186,0,0,0,3.03,1.13c.81-.81,1.64-1.56,2.49-2.27a30.99537,30.99537,0,0,0-5.73,9.12c-.29.2-.58.42-.87.65-.44.34-2.15,1.41-2.23,1.98-.14,1.02,1.21,1.42,2,.74.45-.39.75-2.46.97-3.05a3.05431,3.05431,0,0,1,.13-.32,31.92845,31.92845,0,0,1,3.93-2.46c9.98-5.3,21.74-7.18,32.85-8.37a253.24077,253.24077,0,0,1,90.93,7.33c15.72,4.2,39.74,11.73,49.47,27.32Q338.17463,419.94269,338.21463,423.06269Z"/><path d="M314.60463,845.04269a1.53264,1.53264,0,0,1,1.27,2.7l-.06.03c-.14.06-.28.11-.42.17-.15.04-.31.08-.46.11C313.48463,848.16269,312.99463,845.70269,314.60463,845.04269Z"/><path d="M315.39463,847.94269c.14-.06.28-.11.42-.17A1.3219,1.3219,0,0,1,315.39463,847.94269Z"/><path d="M314.93463,848.05269c.15-.03.31-.07.46-.11A1.45428,1.45428,0,0,1,314.93463,848.05269Z"/><path d="M314.60463,845.04269c-1.61.66-1.12,3.12.33,3.01-1.83.45-3.66.86-5.51,1.26-16.27,3.45-32.9,4.76-49.49,5.48-16.53.72-33.09.88-49.59,2.09-16.46,1.21-32.89,3.55-48.69,8.47-15.14,4.72-29.48,11.66-43.19,19.57-9.78,5.65-19.26,11.78-28.64,18.06,6.84-5.23,13.4-10.84,19.97-16.41,4.15-2.52,8.35-4.97,12.6-7.31,13.89-7.64,28.48-14.16,43.79-18.36,15.99-4.39,32.54-6.33,49.05-7.35,16.6-1.03,33.24-1.14,49.85-2C281.73463,850.69269,298.37463,849.03269,314.60463,845.04269Z"/><path d="M301.61463,877.57269a1.50167,1.50167,0,0,1,.03,3h-.03c-1.88-.14-1.93-3-.13-3Z"/><path d="M301.61463,880.57269c-1.92-.04-3.83-.07-5.74-.1-18.82-.29-37.65-.4-56.47.23-20.47.7-41.04,2.12-61.23,5.75a183.33244,183.33244,0,0,0-26.81,6.67c-9.39,3.2-17.85,7.87-26.27,13.09-5.51,3.41-10.98,6.92-16.7,10a136.923,136.923,0,0,1-18.2,8.08c-6.14,2.25-12.4,4.16-18.68,5.97-6.42,1.84-12.79,3.73-19.46,4.44-10.86,1.16-22.51.22-32.84-3.48-7.62-2.74-16.84-7.51-19.09-15.99a1.30937,1.30937,0,0,0,.97.75c.63.13,1.27.27,1.9.4l.81.18a12.5999,12.5999,0,0,0,1.56,2.48c2.7,3.44,6.64,5.8,10.56,7.62a56.56169,56.56169,0,0,0,13.14,4.14,80.38344,80.38344,0,0,0,17.79,1.26,79.92074,79.92074,0,0,0,19.28-3.4c12.61-3.54,25.27-7.28,37.04-13.11,11.47-5.69,21.76-13.44,33.11-19.33,15.57-8.09,33.35-11.7,50.57-14.2,20.19-2.93,40.61-4.09,61-4.55,17.88-.41,35.75-.2,53.63.1C299.68463,877.57269,299.73463,880.43269,301.61463,880.57269Z"/><path d="M294.21463,746.25269q-1.65,1.44-3.35,2.83l-.78-.09c-1.04-.13-2.08-.31-3.12-.53,1.06-.85,2.1-1.71,3.14-2.59C291.46463,746.06269,292.83463,746.18269,294.21463,746.25269Z"/><path d="M290.08463,748.99269l.78.09c-3.89,3.23-7.89,6.31-12.04,9.21l-.42-.59a58.79,58.79,0,0,1-15.63,7.56c4.59-2.95,9.23-5.84,13.72-8.94q5.385-3.72,10.47-7.86C288.00463,748.68269,289.04463,748.86269,290.08463,748.99269Z"/><path class="cls-1" d="M290.10463,745.87269c-1.04.88-2.08,1.74-3.14,2.59-11.03-2.34-21.83-9.68-23.65-21.49.85-.58,1.69-1.18,2.52-1.79a1.34155,1.34155,0,0,1,.33.73,19.66924,19.66924,0,0,0,2.98,8C273.96463,741.39269,281.77463,744.75269,290.10463,745.87269Z"/><path d="M280.44463,586.99269a1.65463,1.65463,0,0,1,.54,1.32,15.02911,15.02911,0,0,0,.81,4.74q.24.78.54,1.56a15.18137,15.18137,0,0,1-1.17-.98,12.57112,12.57112,0,0,1-3.73-6.07,1.96466,1.96466,0,0,1,3.01-.58Z"/><path d="M281.05463,586.27269c-.2.24-.4.47-.61.71.19-.43.36-.86.54-1.29C281.00463,585.89269,281.02463,586.08269,281.05463,586.27269Z"/><path class="cls-4" d="M278.40463,757.70269l.42.59c-2.35,1.65-4.73,3.23-7.17,4.75-18.01,11.2-34.79,24.2-52.13,36.38-8.33,5.85-16.82,11.35-25.54,16.58-.34.21-.68.42-1.01.65l-.03-.05a1.524,1.524,0,0,0-.88-2.72.915.915,0,0,0-.17.01l-.01-.14c4.23-2.57,8.48-5.07,12.63-7.76,8.58-5.58,16.91-11.53,25.2-17.53,8.44-6.11,16.84-12.26,25.43-18.16,2.51-1.73,5.06-3.39,7.63-5.04A58.79,58.79,0,0,0,278.40463,757.70269Z"/><path class="cls-1" d="M286.96463,748.46269q-5.1,4.125-10.47,7.86c-4.49,3.1-9.13,5.99-13.72,8.94-18.96,6.4-44.61,8.33-58.14,5.32-4.43-.98-9.1-1.12-13.11-3.25a38.08647,38.08647,0,0,1-8.28-6.37c-9.33-8.87-17.33-19.05-26.63-27.95-12.61-12.07-27.38-21.61-42.05-31.07-12.04-7.77-24.65-15.75-38.89-17.38,16.7,7.53,27.73,27.93,40.35,41.22,21.58,22.72,43.38,45.72,59,72.89a13.092,13.092,0,0,1,1.97,4.86,18.67235,18.67235,0,0,1-.32,4c-2.55,24.87-77.98,82.87-90.04,93.97l-.03.03q-2.31,1.545-4.62,3.11c-1.67,1.13-3.33,2.26-5,3.39a1.72233,1.72233,0,0,0-.43.42l-.01.01a72.71808,72.71808,0,0,1-11.75,5.7l-.06-.16a1.86372,1.86372,0,0,0,.37-.14c18.81-9.94,34.54-24.64,47.74-41.18,13.5-16.91,24.59-35.57,35.18-54.41,1.32-2.33,2.62-4.67,3.92-7.01,1.4-2.51,3-5.08,3.53-7.93.56-3.03-.31-5.83-1.66-8.53-1.3-2.57-2.76-5.07-4.19-7.58q-8.445-14.835-18.12-28.94a415.2047,415.2047,0,0,0-43.06-52.87,411.24694,411.24694,0,0,0-51.18-45.07c-.44-.33-.89-.66-1.33-.98q-1.56-1.995-3.11-3.99c25.58,1.44,49.5,11.61,70.95,25.31,23.02,14.69,43.44,33.02,63.78,51.13,5.13,4.57,10.15,9.46,15.94,13.21a32.13851,32.13851,0,0,0,20.42,5.12c12.44-.92,24.91-4.92,36.24-10a143.41981,143.41981,0,0,0,23.16-13.17C265.13463,738.78269,275.93463,746.12269,286.96463,748.46269Z"/><path class="cls-1" d="M263.48463,725.64269a1.5879,1.5879,0,0,1,2.35-.46c-.83.61-1.67,1.21-2.52,1.79-.01-.08-.03-.17-.04-.26A1.58952,1.58952,0,0,1,263.48463,725.64269Z"/><path d="M262.32463,724.00269l1.16,1.64a1.58952,1.58952,0,0,0-.21,1.07c.01.09.03.18.04.26a143.41981,143.41981,0,0,1-23.16,13.17c-11.33,5.08-23.8,9.08-36.24,10a32.13851,32.13851,0,0,1-20.42-5.12c-5.79-3.75-10.81-8.64-15.94-13.21-20.34-18.11-40.76-36.44-63.78-51.13-21.45-13.7-45.37-23.87-70.95-25.31-.71-.9-1.41-1.8-2.11-2.7l.01-.4c2.84.1,5.67.29,8.5.6,25.88,2.82,49.75,14.16,71.14,28.55,22.2,14.93,42.1,32.95,62.04,50.7,5.2,4.62,10.36,9.59,16.7,12.63,7.15,3.42,15.03,2.73,22.59,1.29a123.5494,123.5494,0,0,0,34.13-11.97A145.96759,145.96759,0,0,0,262.32463,724.00269Z"/><path class="cls-4" d="M88.35463,900.35269c-.58.39-1.15.77-1.72,1.15,12.06-11.1,87.49-69.1,90.04-93.97a18.67235,18.67235,0,0,0,.32-4,13.092,13.092,0,0,0-1.97-4.86c-15.62-27.17-37.42-50.17-59-72.89-12.62-13.29-23.65-33.69-40.35-41.22,14.24,1.63,26.85,9.61,38.89,17.38,14.67,9.46,29.44,19,42.05,31.07,9.3,8.9,17.3,19.08,26.63,27.95a38.08647,38.08647,0,0,0,8.28,6.37c4.01,2.13,8.68,2.27,13.11,3.25,13.53,3.01,39.18,1.08,58.14-5.32-2.57,1.65-5.12,3.31-7.63,5.04-8.59,5.9-16.99,12.05-25.43,18.16-8.29,6-16.62,11.95-25.2,17.53-4.15,2.69-8.4,5.19-12.63,7.76l.01.14a1.50407,1.50407,0,0,0,.17,2.99,1.4445,1.4445,0,0,0,.88-.28l.03.05c-2.21,1.51-4.19,3.45-6.23,5.16-2.13,1.79-4.25,3.58-6.38,5.37q-6.675,5.61-13.34,11.22-26.4,22.2-52.79,44.41-2.22,1.875-4.44,3.76C102.53463,890.98269,95.41463,895.63269,88.35463,900.35269Z"/><path class="cls-4" d="M192.06463,813.88269a1.524,1.524,0,0,1,.88,2.72,1.4445,1.4445,0,0,1-.88.28,1.50407,1.50407,0,0,1-.17-2.99A.915.915,0,0,1,192.06463,813.88269Z"/><path d="M176.89463,374.07269c-.51.44-1.01.9-1.51,1.36a107.06981,107.06981,0,0,0-8.6,8.45c-.85.71-1.68,1.46-2.49,2.27a1.80186,1.80186,0,0,1-3.03-1.13c.39-.52.72-.95.98-1.26.79-.93,1.59-1.84,2.43-2.74A42.63564,42.63564,0,0,1,176.89463,374.07269Z"/><path d="M164.67463,381.02269c-.84.9-1.64,1.81-2.43,2.74-.26.31-.59.74-.98,1.26a1.63476,1.63476,0,0,1,.51-1.39A37.12326,37.12326,0,0,1,164.67463,381.02269Z"/><path d="M161.05463,393.00269a3.05431,3.05431,0,0,0-.13.32c-.22.59-.52,2.66-.97,3.05-.79.68-2.14.28-2-.74.08-.57,1.79-1.64,2.23-1.98C160.47463,393.42269,160.76463,393.20269,161.05463,393.00269Z"/><path class="cls-1" d="M153.81463,794.80269c1.35,2.7,2.22,5.5,1.66,8.53-.53,2.85-2.13,5.42-3.53,7.93-1.3,2.34-2.6,4.68-3.92,7.01-10.59,18.84-21.68,37.5-35.18,54.41-13.2,16.54-28.93,31.24-47.74,41.18a1.86372,1.86372,0,0,1-.37.14c-1.54.39-2.73-1.89-1.14-2.73q3.345-1.77,6.58-3.73c17.83-10.84,32.54-26.08,44.96-42.7,12.69-16.97,23.25-35.4,33.54-53.87,1.35-2.43,2.98-4.87,3.71-7.58.85-3.16-.54-5.97-2.02-8.69q-3.99-7.305-8.29-14.44-8.64-14.355-18.43-27.98a411.24163,411.24163,0,0,0-43.61-51.15,405.62841,405.62841,0,0,0-37.1-32.71q-3.165-4.14-6.36-8.24c-.21-.27-.43-.55-.64-.82.44.32.89.65,1.33.98a411.24694,411.24694,0,0,1,51.18,45.07,415.2047,415.2047,0,0,1,43.06,52.87q9.66,14.085,18.12,28.94C151.05463,789.73269,152.51463,792.23269,153.81463,794.80269Z"/><path class="cls-1" d="M150.36463,794.70269c1.48,2.72,2.87,5.53,2.02,8.69-.73,2.71-2.36,5.15-3.71,7.58-10.29,18.47-20.85,36.9-33.54,53.87-12.42,16.62-27.13,31.86-44.96,42.7q-3.24,1.965-6.58,3.73c-1.59.84-.4,3.12,1.14,2.73l.06.16a62.635,62.635,0,0,1-15.5,3.78,101.99036,101.99036,0,0,1-25.05-.71,83.945,83.945,0,0,0,33.96-11.59,96.99368,96.99368,0,0,0,39.59-45.67c9.19-22.06,10.58-46.61,6.89-70.04-3.81-24.24-13.2-47.14-25.32-68.37-10.67-18.68-23.34-36.09-36.43-53.14a405.62841,405.62841,0,0,1,37.1,32.71,411.24163,411.24163,0,0,1,43.61,51.15q9.78,13.605,18.43,27.98Q146.36463,787.40269,150.36463,794.70269Z"/><path d="M104.68463,789.93269c3.69,23.43,2.3,47.98-6.89,70.04a96.99368,96.99368,0,0,1-39.59,45.67,83.945,83.945,0,0,1-33.96,11.59c-2.33-.32-4.64-.69-6.95-1.09-4.52-.79-9.01-1.71-13.49-2.65,1.81.36,3.65.65,5.49.84,19.48,2.08,38.88-4.59,54.53-16a95.00992,95.00992,0,0,0,34.88-49.83c6.69-22.39,6.08-46.45.9-69.08-5.34-23.32-15.68-45.08-28.2-65.38-11.3-18.32-24.32-35.49-37.53-52.48q4.575,3.36,9.06,6.86c13.09,17.05,25.76,34.46,36.43,53.14C91.48463,742.79269,100.87463,765.69269,104.68463,789.93269Z"/><path d="M88.35463,900.35269c7.06-4.72,14.18-9.37,21.44-13.78-6.57,5.57-13.13,11.18-19.97,16.41-3.79,2.53-7.55,5.09-11.32,7.64-1.42.96-2.76-.96-1.96-2.16l.01-.01c.26-.14.51-.29.77-.45A125.20678,125.20678,0,0,0,88.35463,900.35269Z"/><path class="cls-1" d="M89.82463,902.98269c-.08.06-.15.12-.23.18-7.69,5.86-15.93,11.11-25.08,14.38-19.64,7.01-40.83,3.19-60.71-.98,0-.01-.01-.02-.01-.04a70.93884,70.93884,0,0,0,20.45.71,101.99036,101.99036,0,0,0,25.05.71,62.635,62.635,0,0,0,15.5-3.78,72.71808,72.71808,0,0,0,11.75-5.7c-.8,1.2.54,3.12,1.96,2.16C82.27463,908.07269,86.03463,905.51269,89.82463,902.98269Z"/><path d="M86.63463,901.50269c.57-.38,1.14-.76,1.72-1.15a125.20678,125.20678,0,0,1-11.03,7.65c-.26.16-.51.31-.77.45a1.72233,1.72233,0,0,1,.43-.42c1.67-1.13,3.33-2.26,5-3.39q2.31-1.56,4.62-3.11Z"/><path class="cls-1" d="M36.57463,660.18269q3.195,4.11,6.36,8.24-4.485-3.51-9.06-6.86c-1.65-2.11-3.29-4.21-4.93-6.32a1.06953,1.06953,0,0,1,.78-.17,1.1111,1.1111,0,0,0-.07.16c.2.01.4.01.6.02a.67262.67262,0,0,1,.11.07c1.87,1.33,3.73,2.67,5.57,4.04C36.14463,659.63269,36.36463,659.91269,36.57463,660.18269Z"/><path d="M32.82463,655.37269q1.545,1.995,3.11,3.99c-1.84-1.37-3.7-2.71-5.57-4.04a.67262.67262,0,0,0-.11-.07C31.11463,655.28269,31.96463,655.31269,32.82463,655.37269Z"/><path d="M30.71463,652.67269c.7.9,1.4,1.8,2.11,2.7-.86-.06-1.71-.09-2.57-.12a1.1554,1.1554,0,0,0-.53-.18C30.04463,654.26269,30.38463,653.47269,30.71463,652.67269Z"/><path class="cls-1" d="M33.87463,661.56269c-1.67-1.24-3.34-2.45-5.03-3.65a1.62227,1.62227,0,0,1,.1-2.67C30.58463,657.35269,32.22463,659.45269,33.87463,661.56269Z"/><path d="M30.72463,652.27269l-.01.4c-.33.8-.67,1.59-.99,2.4a1.06953,1.06953,0,0,0-.78.17c-.12-.15-.23-.3-.35-.45a1.52029,1.52029,0,0,1,1.06-2.56C30.01463,652.24269,30.36463,652.25269,30.72463,652.27269Z"/><path class="cls-1" d="M30.25463,655.25269c-.2-.01-.4-.01-.6-.02a1.1111,1.1111,0,0,1,.07-.16A1.1554,1.1554,0,0,1,30.25463,655.25269Z"/><path d="M17.29463,916.14269c2.31.4,4.62.77,6.95,1.09a70.93884,70.93884,0,0,1-20.45-.71,11.62753,11.62753,0,0,1-.85-2.38,1.3447,1.3447,0,0,0-.91-1.02c.59.13,1.18.26,1.77.37C8.28463,914.43269,12.77463,915.35269,17.29463,916.14269Z"/><path d="M3.79463,916.52269c0,.02.01.03.01.04l-.81-.18C3.26463,916.43269,3.53463,916.48269,3.79463,916.52269Z"/><path d="M3.79463,916.52269c-.26-.04-.53-.09-.8-.14-.63-.13-1.27-.27-1.9-.4.27-.96.53-1.93.8-2.89.05.01.09.02.14.03a1.3447,1.3447,0,0,1,.91,1.02A11.62753,11.62753,0,0,0,3.79463,916.52269Z"/><path d="M1.89463,913.09269c-.27.96-.53,1.93-.8,2.89a1.30937,1.30937,0,0,1-.97-.75c-.03-.1-.06-.2-.08-.3a.17018.17018,0,0,1-.01-.07,1.681,1.681,0,0,1,.62-1.5.65275.65275,0,0,1,.15-.1,1.99867,1.99867,0,0,1,.21-.1,1.68972,1.68972,0,0,1,.8-.08A.195.195,0,0,1,1.89463,913.09269Z"/><path d="M1.81463,913.08269a1.68972,1.68972,0,0,0-.8.08A1.40509,1.40509,0,0,1,1.81463,913.08269Z"/><path d="M1.01463,913.16269a1.99867,1.99867,0,0,0-.21.1A.66973.66973,0,0,1,1.01463,913.16269Z"/><path d="M.80463,913.26269a.65275.65275,0,0,0-.15.1A1.30287,1.30287,0,0,1,.80463,913.26269Z"/><path d="M.04463,914.93269c.02.1.05.2.08.3A1.02394,1.02394,0,0,1,.04463,914.93269Z"/><path d="M.65463,913.36269a1.681,1.681,0,0,0-.62,1.5A1.383,1.383,0,0,1,.65463,913.36269Z"/><path class="cls-7" d="M436.31463,119.94269c1.19,7.05,5.69,27.02,25.47,44.8,15.82,14.21,38.36,19.68,45.38,22.03,1.66.56-24.26-15.13-41.81-32.31A262.529,262.529,0,0,1,436.31463,119.94269Z"/><path class="cls-8" d="M422.09463,144.34269c.89,5.25,4.24,20.13,18.98,33.38,11.78,10.59,28.58,14.66,33.81,16.42,1.24.41-18.07-11.28-31.15-24.08A195.85949,195.85949,0,0,1,422.09463,144.34269Z"/><path class="cls-9" d="M416.00463,168.82269a44.83882,44.83882,0,0,0,14.65,25.76c9.09,8.17,22.05,11.31,26.08,12.67.96.32-13.94-8.71-24.03-18.58A151.21024,151.21024,0,0,1,416.00463,168.82269Z"/><path class="cls-10" d="M75.67463,684.56269c16.7,7.53,27.73,27.93,40.35,41.22,21.58,22.72,43.38,45.72,59,72.89a13.092,13.092,0,0,1,1.97,4.86,18.67235,18.67235,0,0,1-.32,4c-2.55,24.87-77.98,82.87-90.04,93.97l-.03.03"/><path class="cls-10" d="M75.67463,684.56269c14.24,1.63,26.85,9.61,38.89,17.38,14.67,9.46,29.44,19,42.05,31.07,9.3,8.9,17.3,19.08,26.63,27.95a38.08647,38.08647,0,0,0,8.28,6.37c4.01,2.13,8.68,2.27,13.11,3.25,13.53,3.01,39.18,1.08,58.14-5.32a58.79,58.79,0,0,0,15.63-7.56"/></g></g></svg>