<svg width="70" height="63" viewBox="0 0 70 63" fill="none" xmlns="http://www.w3.org/2000/svg">
<path d="M62.5 0H7.5C5.51088 0 3.60322 0.711159 2.1967 1.97703C0.790176 3.2429 0 4.95979 0 6.75L0 56.25C0 58.0402 0.790176 59.7571 2.1967 61.023C3.60322 62.2888 5.51088 63 7.5 63H28.9453V41.5814H19.1016V31.5H28.9453V23.8163C28.9453 15.0764 34.7266 10.2487 43.5813 10.2487C47.8219 10.2487 52.2563 10.9294 52.2563 10.9294V19.5075H47.3703C42.5563 19.5075 41.0547 22.1962 41.0547 24.9539V31.5H51.8016L50.0828 41.5814H41.0547V63H62.5C64.4891 63 66.3968 62.2888 67.8033 61.023C69.2098 59.7571 70 58.0402 70 56.25V6.75C70 4.95979 69.2098 3.2429 67.8033 1.97703C66.3968 0.711159 64.4891 0 62.5 0V0Z" fill="#00589D"/>
</svg>
