<svg width="71" height="71" viewBox="0 0 71 71" fill="none" xmlns="http://www.w3.org/2000/svg">
<path d="M35.5079 17.2965C25.4341 17.2965 17.3085 25.4239 17.3085 35.5C17.3085 45.5761 25.4341 53.7035 35.5079 53.7035C45.5818 53.7035 53.7074 45.5761 53.7074 35.5C53.7074 25.4239 45.5818 17.2965 35.5079 17.2965ZM35.5079 47.3347C28.9979 47.3347 23.6759 42.0273 23.6759 35.5C23.6759 28.9727 28.9821 23.6653 35.5079 23.6653C42.0337 23.6653 47.3399 28.9727 47.3399 35.5C47.3399 42.0273 42.0179 47.3347 35.5079 47.3347V47.3347ZM58.6968 16.5519C58.6968 18.9125 56.796 20.7978 54.4518 20.7978C52.0918 20.7978 50.2069 18.8966 50.2069 16.5519C50.2069 14.2071 52.1076 12.306 54.4518 12.306C56.796 12.306 58.6968 14.2071 58.6968 16.5519ZM70.7505 20.8612C70.4813 15.1735 69.1824 10.1355 65.0167 5.98466C60.8668 1.83382 55.8298 0.534698 50.1435 0.249526C44.2829 -0.0831753 26.7171 -0.0831753 20.8565 0.249526C15.186 0.518855 10.1491 1.81797 5.98332 5.96882C1.81757 10.1197 0.534579 15.1577 0.24947 20.8453C-0.0831567 26.7072 -0.0831567 44.277 0.24947 50.1388C0.51874 55.8265 1.81757 60.8645 5.98332 65.0153C10.1491 69.1662 15.1702 70.4653 20.8565 70.7505C26.7171 71.0832 44.2829 71.0832 50.1435 70.7505C55.8298 70.4811 60.8668 69.182 65.0167 65.0153C69.1666 60.8645 70.4654 55.8265 70.7505 50.1388C71.0832 44.277 71.0832 26.723 70.7505 20.8612V20.8612ZM63.1793 56.4285C61.9438 59.5337 59.5521 61.926 56.4317 63.1776C51.7591 65.0312 40.6716 64.6034 35.5079 64.6034C30.3443 64.6034 19.2409 65.0153 14.5841 63.1776C11.4796 61.9418 9.08784 59.5495 7.83653 56.4285C5.98332 51.7548 6.41099 40.6648 6.41099 35.5C6.41099 30.3352 5.99916 19.2293 7.83653 14.5715C9.072 11.4663 11.4637 9.07403 14.5841 7.82244C19.2567 5.96882 30.3443 6.39657 35.5079 6.39657C40.6716 6.39657 51.775 5.98466 56.4317 7.82244C59.5363 9.05818 61.928 11.4505 63.1793 14.5715C65.0325 19.2452 64.6049 30.3352 64.6049 35.5C64.6049 40.6648 65.0325 51.7707 63.1793 56.4285Z" fill="#AF3A81"/>
</svg>
