<svg width="81" height="62" viewBox="0 0 81 62" fill="none" xmlns="http://www.w3.org/2000/svg">
<path d="M79.3074 9.7009C78.3759 5.88241 75.6311 2.87509 72.1462 1.85451C65.8294 0 40.5 0 40.5 0C40.5 0 15.1707 0 8.85383 1.85451C5.36886 2.87525 2.62414 5.88241 1.69257 9.7009C0 16.6221 0 31.0626 0 31.0626C0 31.0626 0 45.5032 1.69257 52.4244C2.62414 56.2429 5.36886 59.1249 8.85383 60.1455C15.1707 62 40.5 62 40.5 62C40.5 62 65.8293 62 72.1462 60.1455C75.6311 59.1249 78.3759 56.2429 79.3074 52.4244C81 45.5032 81 31.0626 81 31.0626C81 31.0626 81 16.6221 79.3074 9.7009V9.7009ZM32.2158 44.1735V17.9517L53.3862 31.063L32.2158 44.1735V44.1735Z" fill="#FF0D0D"/>
</svg>
