<svg width="43" height="46" viewBox="0 0 43 46" fill="none" xmlns="http://www.w3.org/2000/svg">
<path d="M23.4105 45.8043C12.808 45.8043 0 35.3241 0 22.3169C0 7.94718 15.4631 0 26.1495 0C31.3578 0 38.6518 3.91356 41.4508 7.28691C42.0139 7.96472 42.2919 8.83524 42.2259 9.71451C42.1599 10.5938 41.7551 11.4129 41.0972 11.9988L31.8133 20.2821C31.1474 20.8791 30.2728 21.1883 29.3803 21.1422C28.4877 21.0961 27.6495 20.6985 27.0485 20.036C25.628 18.4814 25.2864 16.3385 24.9867 14.4478C24.9448 14.1837 24.8968 13.8475 24.8369 13.5594C21.5765 14.1957 17.0874 16.8848 17.0874 22.3169C17.0874 28.7395 23.2307 31.4106 26.5151 31.4106C27.0305 31.4106 27.468 31.0204 28.8226 29.6098C29.4818 28.9076 30.237 28.1152 31.166 27.2989C31.786 26.7586 32.5797 26.4603 33.4016 26.4586L37.3752 26.5246C38.2656 26.5419 39.1137 26.9079 39.7378 27.5441C40.3619 28.1803 40.7122 29.0361 40.7136 29.928C40.7136 40.2761 34.0668 43.4694 26.8867 45.3842C25.7509 45.674 24.5825 45.8152 23.4105 45.8043Z" fill="#15047C"/>
<path d="M3.39825 22.3169C3.39825 9.62181 17.7346 3.40332 26.1734 3.40332C30.3688 3.40332 36.6979 6.8607 38.8616 9.45974L29.5537 17.7431C27.8456 15.8703 28.8045 10.042 26.2813 10.042C21.2408 10.042 13.695 14.0756 13.695 22.3469C13.695 30.7503 21.2588 34.8439 26.521 34.8439C29.4039 34.8439 30.6026 32.3289 33.4075 29.8739L37.3213 29.9399C37.3213 37.8811 32.6523 40.3421 26.0176 42.1068C17.8785 44.2557 3.39825 35.168 3.39825 22.3169Z" fill="#FFCB08"/>
</svg>
