<svg width="264" height="50" viewBox="0 0 264 50" fill="none" xmlns="http://www.w3.org/2000/svg">
<path d="M4.3811 14.1537L33.785 50L264 0L4.3811 14.1537Z" fill="#D84618"/>
<path d="M23.4105 48.3678C12.808 48.3678 0 37.8876 0 24.8804C0 10.5107 15.4631 2.56348 26.1495 2.56348C31.3578 2.56348 38.6518 6.47704 41.4508 9.85039C42.0139 10.5282 42.2919 11.3987 42.2259 12.278C42.1599 13.1573 41.7551 13.9764 41.0972 14.5623L31.8133 22.8456C31.1474 23.4426 30.2728 23.7517 29.3803 23.7056C28.4877 23.6595 27.6495 23.2619 27.0485 22.5995C25.628 21.0449 25.2864 18.902 24.9867 17.0113C24.9448 16.7471 24.8968 16.411 24.8369 16.1229C21.5765 16.7592 17.0874 19.4482 17.0874 24.8804C17.0874 31.303 23.2307 33.974 26.5151 33.974C27.0305 33.974 27.468 33.5839 28.8226 32.1733C29.4818 31.471 30.237 30.6787 31.166 29.8624C31.786 29.3221 32.5797 29.0237 33.4016 29.0221L37.3752 29.0881C38.2656 29.1054 39.1137 29.4713 39.7378 30.1076C40.3619 30.7438 40.7122 31.5996 40.7136 32.4914C40.7136 42.8396 34.0668 46.0329 26.8867 47.9476C25.7509 48.2374 24.5825 48.3787 23.4105 48.3678Z" fill="#15047C"/>
<path d="M41.3128 46.9985C40.4116 46.9985 39.5472 46.6399 38.9099 46.0017C38.2726 45.3634 37.9146 44.4977 37.9146 43.5951V14.4595C37.9146 13.5568 38.2726 12.6912 38.9099 12.0529C39.5472 11.4147 40.4116 11.0561 41.3128 11.0561H46.707C47.1632 11.0576 47.6145 11.1514 48.0337 11.3319C48.4529 11.5124 48.8313 11.7759 49.1463 12.1065C50.6921 10.9659 52.5546 10.3364 54.4745 10.3058C56.0056 10.2672 57.5239 10.5943 58.9037 11.2602C59.5721 11.5781 60.1183 12.1063 60.4592 12.7641C60.8 13.4219 60.9168 14.1732 60.7916 14.9036L59.6708 21.5063C59.586 21.9928 59.3969 22.455 59.1165 22.8612C58.8361 23.2675 58.4711 23.6079 58.0466 23.8592C57.6221 24.1104 57.1483 24.2663 56.6578 24.316C56.1673 24.3657 55.6718 24.3082 55.2057 24.1473C54.7152 23.9548 54.1922 23.859 53.6654 23.8652C53.132 23.8652 52.1071 24.6515 51.3039 26.7704V43.5771C51.3088 44.4756 50.9586 45.3396 50.3298 45.9805C49.7011 46.6215 48.8447 46.9874 47.9476 46.9985H41.3128Z" fill="#15047C"/>
<path d="M71.3701 47.725C61.9784 47.725 55.4155 40.036 55.4155 29.0276C55.4155 23.8595 56.9858 19.1176 59.8267 15.6782C61.1112 14.0489 62.7397 12.7244 64.5956 11.7998C66.4514 10.8751 68.4886 10.3732 70.561 10.3301C79.0178 10.3301 84.5078 17.1128 84.5078 27.611C84.5254 29.0927 84.3827 30.5719 84.0823 32.0228C83.8894 32.7476 83.4628 33.3883 82.8689 33.8453C82.2749 34.3023 81.5468 34.5499 80.7978 34.5498H80.7679C80.8471 34.6704 80.9172 34.7968 80.9776 34.9279L83.2312 39.6098C83.5632 40.3049 83.6503 41.0921 83.4784 41.8431C83.3064 42.5942 82.8855 43.2647 82.2842 43.7454C79.1903 46.2523 75.3492 47.6529 71.3701 47.725ZM70.3932 34.5618C70.9303 34.9001 71.5572 35.0675 72.1912 35.042C72.9349 35.0419 73.6695 34.8779 74.3429 34.5618H70.3932Z" fill="#15047C"/>
<path d="M92.1076 47.7246C85.8145 47.7246 81.2415 42.6646 81.2415 35.6898C81.2415 30.8278 83.2852 27.6646 86.21 25.5637C85.6203 25.2168 85.1483 24.7002 84.8555 24.0811L82.4581 19.0331C82.123 18.3151 82.0486 17.5025 82.2477 16.7355C82.4469 15.9684 82.9071 15.295 83.5489 14.8314C87.6964 11.8302 91.9038 10.3477 96.0573 10.3477C99.989 10.3477 109.129 11.9263 109.129 26.6022V43.595C109.129 44.4976 108.771 45.3632 108.134 46.0015C107.496 46.6398 106.632 46.9983 105.731 46.9983H100.337C99.4753 46.9971 98.6465 46.6689 98.0171 46.0799C96.2269 47.1413 94.1879 47.7087 92.1076 47.7246ZM95.7756 33.9191C94.9605 34.2432 94.451 34.6034 94.3551 34.9575C94.6009 34.9575 94.9545 34.8675 95.7756 34.1292V33.9191Z" fill="#15047C"/>
<path d="M120.858 47.725C117.346 47.725 109.183 46.3325 109.183 33.3973V23.8955H109.027C108.126 23.8955 107.261 23.5369 106.624 22.8987C105.987 22.2604 105.629 21.3948 105.629 20.4921V14.8199C105.629 13.9728 105.946 13.1566 106.515 12.5305C107.085 11.9045 107.867 11.5137 108.709 11.4345L109.83 11.3325L110.322 6.27245C110.403 5.4313 110.795 4.65074 111.42 4.08268C112.044 3.51462 112.858 3.1997 113.702 3.19922H119.192C120.093 3.19922 120.958 3.55779 121.595 4.19604C122.232 4.83429 122.59 5.69995 122.59 6.60258V11.0564H125.401C126.302 11.0564 127.167 11.4149 127.804 12.0532C128.441 12.6914 128.799 13.5571 128.799 14.4597V20.4921C128.799 21.3948 128.441 22.2604 127.804 22.8987C127.167 23.5369 126.302 23.8955 125.401 23.8955H122.59V33.3973C122.578 33.8939 122.628 34.39 122.74 34.8739C123.058 34.8086 123.367 34.7079 123.663 34.5738C124.131 34.3578 124.642 34.2512 125.157 34.2619C125.672 34.2727 126.177 34.4006 126.636 34.6359C127.094 34.8712 127.493 35.2078 127.803 35.6203C128.112 36.0328 128.324 36.5103 128.422 37.0167L129.507 42.581C129.657 43.3664 129.528 44.1799 129.142 44.8797C128.755 45.5795 128.135 46.1213 127.391 46.4105C125.315 47.2555 123.099 47.7014 120.858 47.725Z" fill="#15047C"/>
<path d="M140.205 47.725C138.105 47.7139 136.032 47.2423 134.133 46.3432C132.234 45.4442 130.555 44.1395 129.213 42.5209C126.264 39.0755 124.706 34.4117 124.706 29.0275C124.706 23.6433 126.264 18.9795 129.213 15.5341C130.547 13.9068 132.225 12.596 134.126 11.6959C136.026 10.7959 138.103 10.3291 140.205 10.3291C142.308 10.3291 144.384 10.7959 146.285 11.6959C148.185 12.596 149.863 13.9068 151.197 15.5341C154.146 18.9795 155.71 23.6433 155.71 29.0275C155.71 34.4117 154.146 39.0755 151.197 42.5209C149.857 44.1414 148.178 45.4474 146.279 46.3466C144.379 47.2458 142.306 47.7164 140.205 47.725ZM140.205 23.3732C139.09 23.3732 138.251 25.8042 138.251 29.0275C138.251 32.2508 139.09 34.6758 140.205 34.6758C141.32 34.6758 142.165 32.2748 142.165 29.0275C142.165 25.7802 141.32 23.3732 140.205 23.3732Z" fill="#15047C"/>
<path d="M157.844 46.9985C156.943 46.9985 156.078 46.6399 155.441 46.0017C154.804 45.3634 154.446 44.4977 154.446 43.5951V14.4595C154.446 13.5568 154.804 12.6912 155.441 12.0529C156.078 11.4147 156.943 11.0561 157.844 11.0561H163.238C163.696 11.0559 164.15 11.149 164.571 11.3295C164.993 11.5101 165.373 11.7744 165.689 12.1065C167.236 10.9676 169.098 10.3384 171.017 10.3058C172.549 10.2672 174.067 10.5943 175.447 11.2602C176.116 11.578 176.662 12.1058 177.004 12.7635C177.346 13.4212 177.464 14.1726 177.341 14.9036L176.214 21.5063C176.13 21.9925 175.943 22.4548 175.663 22.861C175.384 23.2673 175.019 23.6079 174.596 23.8592C174.072 24.1716 173.473 24.3355 172.863 24.3334C172.484 24.3336 172.107 24.2707 171.749 24.1473C171.258 23.9542 170.735 23.8584 170.208 23.8652C169.681 23.8652 168.65 24.6515 167.847 26.7704V43.5771C167.847 44.024 167.759 44.4666 167.588 44.8795C167.417 45.2924 167.167 45.6676 166.852 45.9837C166.536 46.2997 166.161 46.5504 165.749 46.7214C165.337 46.8924 164.895 46.9805 164.449 46.9805L157.844 46.9985Z" fill="#15047C"/>
<path d="M178.006 46.9988C177.104 46.9988 176.24 46.6402 175.603 46.002C174.965 45.3637 174.607 44.4981 174.607 43.5954V5.04203C174.607 4.13941 174.965 3.27375 175.603 2.63549C176.24 1.99724 177.104 1.63867 178.006 1.63867H184.658C185.56 1.63867 186.424 1.99724 187.061 2.63549C187.699 3.27375 188.057 4.13941 188.057 5.04203V33.7395H198.204C198.65 33.7395 199.091 33.8276 199.503 33.9987C199.915 34.1698 200.289 34.4206 200.605 34.7367C200.92 35.0528 201.169 35.428 201.34 35.8409C201.51 36.2538 201.597 36.6962 201.596 37.1429V43.5954C201.597 44.0421 201.51 44.4845 201.34 44.8974C201.169 45.3103 200.92 45.6855 200.605 46.0016C200.289 46.3177 199.915 46.5685 199.503 46.7396C199.091 46.9107 198.65 46.9988 198.204 46.9988H178.006Z" fill="#15047C"/>
<path d="M221.758 46.9988C220.993 46.9993 220.25 46.7411 219.65 46.2662C219.049 45.7913 218.626 45.1273 218.45 44.3818L216.106 34.4958L214.062 25.6963L209.555 44.4178C209.378 45.1612 208.955 45.823 208.356 46.2967C207.757 46.7704 207.016 47.0283 206.253 47.0288H199.504C198.981 47.0283 198.465 46.9069 197.996 46.6739C197.528 46.4409 197.119 46.1026 196.802 45.6856C196.486 45.2684 196.269 44.7837 196.17 44.2692C196.072 43.7547 196.093 43.2242 196.232 42.7191L206.894 4.12967C207.092 3.41302 207.52 2.78125 208.111 2.33128C208.702 1.88131 209.424 1.638 210.167 1.63867H217.994C218.737 1.63967 219.459 1.88351 220.051 2.33313C220.642 2.78274 221.071 3.41355 221.273 4.12967L231.977 42.6831C232.117 43.1886 232.139 43.7197 232.041 44.235C231.942 44.7503 231.726 45.2359 231.409 45.6537C231.092 46.0716 230.683 46.4104 230.214 46.6437C229.745 46.8771 229.228 46.9986 228.704 46.9988H221.758Z" fill="#15047C"/>
<path d="M232.618 46.9988C232.15 46.9986 231.687 46.9014 231.258 46.7133C230.829 46.5253 230.443 46.2505 230.125 45.9061C229.807 45.5617 229.563 45.1552 229.41 44.7122C229.256 44.2691 229.196 43.799 229.232 43.3313L232.229 4.77193C232.295 3.91846 232.681 3.12158 233.309 2.54066C233.937 1.95973 234.76 1.6376 235.615 1.63867H243.616C248.021 1.63867 251.558 2.53303 254.135 4.30374C256.388 5.85236 259.073 8.88357 259.073 14.5618C259.12 17.3372 258.316 20.0602 256.772 22.365C259.343 24.6459 260.782 28.0792 260.782 32.2269C260.782 41.1885 254.38 46.9748 244.473 46.9748L232.618 46.9988ZM243.934 34.2617C247.53 34.2617 247.53 33.0132 247.53 31.8127C247.53 30.8103 247.53 29.856 243.904 29.856H243.568L243.071 34.2917L243.934 34.2617ZM243.173 17.353C245.846 17.353 245.846 16.5546 245.846 15.7083C245.877 15.3955 245.829 15.0799 245.708 14.7899C245.708 14.7899 245.234 14.4058 243.335 14.4058L243.035 17.407L243.173 17.353Z" fill="#15047C"/>
<path d="M3.39819 24.8804C3.39819 12.1853 17.7346 5.9668 26.1733 5.9668C30.3688 5.9668 36.6979 9.42418 38.8615 12.0232L29.5537 20.3065C27.8455 18.4338 28.8045 12.6055 26.2812 12.6055C21.2407 12.6055 13.695 16.6391 13.695 24.9104C13.695 33.3137 21.2587 37.4074 26.521 37.4074C29.4038 37.4074 30.6025 34.8924 33.4075 32.4374L37.3212 32.5034C37.3212 40.4446 32.6523 42.9056 26.0175 44.6703C17.8784 46.8191 3.39819 37.7315 3.39819 24.8804Z" fill="#FFCB08"/>
<path d="M41.313 14.4596H46.7071L47.2046 19.6097H47.3484C49.1944 15.8102 51.8914 13.7274 54.5046 13.7274C55.5275 13.684 56.5455 13.8899 57.4714 14.3276L56.3386 20.9602C55.4896 20.6427 54.5897 20.484 53.6835 20.4921C51.6997 20.4921 49.3203 22.0047 47.9238 26.2184V43.5953H41.331L41.313 14.4596Z" fill="#FFCB08"/>
<path d="M58.8137 29.0277C58.8137 19.6099 64.5734 13.7275 70.5609 13.7275C77.4893 13.7275 81.0854 19.6099 81.0854 27.6231C81.1088 28.8094 81.0043 29.9947 80.7738 31.1585H65.2507C65.7901 35.9604 68.4872 38.4454 72.2271 38.4454C74.2941 38.4132 76.2929 37.7002 77.9149 36.4166L80.1684 41.0985C77.6808 43.1172 74.5949 44.2529 71.394 44.3278C64.3037 44.3278 58.8137 38.6555 58.8137 29.0277ZM75.4216 26.0625C75.4216 22.1609 73.8873 19.6639 70.6268 19.6639C67.9717 19.6639 65.6283 21.8488 65.1368 26.0625H75.4216Z" fill="#FFCB08"/>
<path d="M84.6396 35.6901C84.6396 29.4416 89.0029 26.1643 99.1738 24.8857C99.0419 22.0226 97.9751 19.8377 94.8525 19.8377C92.5151 19.8377 90.2675 21.0382 87.9241 22.5988L85.5267 17.5508C88.5234 15.414 92.1195 13.6973 96.0572 13.6973C102.446 13.6973 105.731 18.121 105.731 26.5544V43.5952H100.337L99.887 40.474H99.7072C97.5016 42.6589 94.9844 44.3275 92.1015 44.3275C87.6124 44.3275 84.6396 40.63 84.6396 35.6901ZM99.1738 35.48V29.5976C93.0125 30.486 90.9388 32.4608 90.9388 35.0598C90.9388 37.3527 92.3352 38.3431 94.2711 38.3431C96.207 38.3431 97.5556 37.2987 99.1738 35.48Z" fill="#FFCB08"/>
<path d="M112.581 33.3973V20.4921H109.027V14.8198L112.941 14.4597L113.708 6.60254H119.192V14.4597H125.401V20.4921H119.192V33.3973C119.192 36.7286 120.391 38.2892 122.614 38.2892C123.471 38.2531 124.312 38.0492 125.09 37.689L126.168 43.2532C124.484 43.9549 122.682 44.3277 120.858 44.3516C114.877 44.3276 112.581 39.9039 112.581 33.3973Z" fill="#FFCB08"/>
<path d="M128.104 29.0277C128.104 19.3518 133.906 13.7275 140.205 13.7275C146.504 13.7275 152.312 19.3518 152.312 29.0277C152.312 38.7035 146.504 44.3278 140.205 44.3278C133.906 44.3278 128.104 38.7035 128.104 29.0277ZM145.563 29.0277C145.563 23.5655 143.627 19.976 140.205 19.976C136.783 19.976 134.853 23.5775 134.853 29.0277C134.853 34.4778 136.789 38.0793 140.205 38.0793C143.621 38.0793 145.563 34.5439 145.563 29.0277Z" fill="#FFCB08"/>
<path d="M157.844 14.4594H163.238L163.729 19.6095H163.867C165.707 15.8099 168.41 13.7271 171.017 13.7271C172.05 13.6807 173.079 13.8867 174.014 14.3273L172.887 20.93C172.038 20.6121 171.138 20.4534 170.232 20.4618C168.254 20.4618 165.869 21.9744 164.473 26.1881V43.5951H157.88L157.844 14.4594Z" fill="#FFCB08"/>
<path d="M178.006 5.04199H184.659V37.1428H198.204V43.5954H178.006V5.04199Z" fill="#FFCB08"/>
<path d="M210.167 5.04199H217.994L228.705 43.5954H221.758L219.415 33.7095L214.104 10.9003L206.253 43.5954H199.504L210.167 5.04199ZM211.024 23.5114L214.08 10.9063L216.963 23.5114C215.926 19.5078 215.027 15.108 214.08 10.9063H213.859C213.002 15.108 212.013 19.4958 211.024 23.5114Z" fill="#FFCB08"/>
<path d="M235.639 5.04199H243.64C250.479 5.04199 255.699 7.38293 255.699 14.5618C255.699 18.1032 253.991 21.7647 251.156 22.8871V23.1452C254.752 24.1356 257.407 27.0528 257.407 32.2509C257.407 40.006 251.833 43.5954 244.497 43.5954H232.618L235.639 5.04199ZM243.149 20.7563C247.374 20.7563 249.22 18.7755 249.22 15.7083C249.22 12.3229 247.242 10.9724 243.227 10.9724L240.266 10.9183L239.265 20.7563H243.149ZM243.934 37.665C248.483 37.665 250.952 35.7923 250.952 31.7827C250.952 28.0372 248.525 26.4225 243.934 26.4225H240.554L239.301 37.665H243.934Z" fill="#FFCB08"/>
</svg>
