<svg width="563" height="107" viewBox="0 0 563 107" fill="none" xmlns="http://www.w3.org/2000/svg">
<path d="M9.33289 30.2171L71.9534 106.759L562.233 0L9.33289 30.2171Z" fill="#D84618"/>
<path d="M49.8583 103.262C27.2755 103.262 0 80.8972 0 53.1241C0 22.4398 32.9256 5.46973 55.6845 5.46973C66.7811 5.46973 82.3135 13.8324 88.2709 21.0263C89.4706 22.475 90.063 24.3349 89.9229 26.2137C89.7829 28.0925 88.9215 29.8432 87.5204 31.0965L67.7543 48.7774C66.3334 50.0485 64.4709 50.7064 62.5703 50.6086C60.6697 50.5107 58.884 49.6651 57.5999 48.2548C54.5757 44.9339 53.852 40.3604 53.2138 36.3257C53.1241 35.7608 53.0168 35.0806 52.9003 34.4253C45.9088 35.7741 36.3951 41.5163 36.3951 53.124C36.3951 66.8387 49.4713 72.5312 56.4718 72.5312C57.5607 72.5312 58.4967 71.7037 61.3813 68.6487C62.7907 67.156 64.3877 65.4646 66.3755 63.7193C67.6943 62.561 69.387 61.9226 71.1391 61.9226C71.1809 61.9226 79.597 62.0682 79.597 62.0682C81.4943 62.101 83.3029 62.8808 84.6331 64.2395C85.9633 65.5983 86.7087 67.4273 86.7087 69.3326C86.7087 91.424 72.5519 98.2492 57.2533 102.334C54.8388 102.964 52.3529 103.275 49.8583 103.262V103.262Z" fill="#15047C"/>
<path d="M87.9843 100.348C87.034 100.348 86.093 100.16 85.215 99.7945C84.3371 99.4293 83.5393 98.8942 82.8674 98.2195C82.1954 97.5448 81.6624 96.7438 81.2987 95.8623C80.9351 94.9808 80.7479 94.036 80.7479 93.0819V30.8697C80.7479 29.9155 80.9351 28.9707 81.2987 28.0892C81.6624 27.2077 82.1954 26.4068 82.8674 25.7321C83.5393 25.0574 84.3371 24.5222 85.215 24.1571C86.093 23.792 87.034 23.604 87.9843 23.604H99.4833C100.46 23.6033 101.427 23.8016 102.326 24.1869C103.224 24.5723 104.036 25.1366 104.711 25.8458C108.013 23.4336 111.978 22.1076 116.061 22.05C119.322 21.9711 122.555 22.6695 125.495 24.0881C126.918 24.7681 128.081 25.8961 128.807 27.3005C129.534 28.7049 129.783 30.3089 129.519 31.8688L127.123 45.9775C126.947 47.0176 126.547 48.0066 125.951 48.8758C125.356 49.745 124.578 50.4735 123.674 51.0106C122.769 51.5478 121.759 51.8806 120.714 51.9861C119.668 52.0916 118.612 51.9672 117.619 51.6215C116.574 51.2093 115.459 51.0058 114.337 51.0226C113.21 51.0226 111.019 52.6969 109.307 57.2231V93.0819C109.307 94.036 109.12 94.9808 108.756 95.8623C108.393 96.7438 107.86 97.5448 107.188 98.2195C106.516 98.8942 105.718 99.4293 104.84 99.7945C103.962 100.16 103.021 100.348 102.071 100.348H87.9843Z" fill="#15047C"/>
<path d="M151.992 101.903C131.99 101.903 118.02 85.4846 118.02 61.9764C118.02 50.9382 121.354 40.8153 127.408 33.4725C133.393 26.2131 141.724 22.0498 150.266 22.0498C168.284 22.0498 179.926 36.5446 179.926 58.9765C179.963 62.1416 179.657 65.3014 179.011 68.3997C178.601 69.9472 177.693 71.3153 176.428 72.2911C175.164 73.267 173.614 73.7961 172.019 73.796H171.957C172.124 74.0543 172.274 74.3229 172.407 74.6003L177.198 84.5987C177.909 86.0813 178.097 87.762 177.732 89.3659C177.367 90.9698 176.471 92.4019 175.19 93.428C168.61 98.7628 160.448 101.745 151.992 101.903ZM149.917 73.796C151.081 74.5288 152.441 74.8854 153.812 74.8176C155.395 74.8136 156.958 74.4651 158.394 73.796H149.917Z" fill="#15047C"/>
<path d="M196.163 101.903C182.753 101.903 173.02 91.0917 173.02 76.1963C173.02 65.8266 177.363 59.0645 183.602 54.5843C182.343 53.8457 181.335 52.7424 180.711 51.4189L175.632 40.6436C174.907 39.106 174.742 37.3617 175.167 35.7148C175.592 34.0679 176.578 32.6228 177.955 31.6314C186.784 25.2737 195.747 22.0498 204.595 22.0498C212.966 22.0498 232.434 25.4317 232.434 56.7551V93.0817C232.434 94.0358 232.247 94.9806 231.883 95.8621C231.519 96.7436 230.986 97.5446 230.314 98.2193C229.643 98.894 228.845 99.4292 227.967 99.7943C227.089 100.159 226.148 100.347 225.198 100.347H213.699C211.861 100.349 210.093 99.6469 208.752 98.3851C204.94 100.655 200.596 101.869 196.163 101.903V101.903ZM203.971 72.3772C202.229 73.0727 201.153 73.838 200.945 74.5941C201.471 74.575 202.288 74.402 203.971 72.8264V72.3772Z" fill="#15047C"/>
<path d="M257.389 101.901C249.912 101.901 232.52 98.92 232.52 71.3057V51.0205H232.187C231.236 51.0205 230.295 50.8326 229.418 50.4675C228.54 50.1023 227.742 49.5671 227.07 48.8925C226.398 48.2178 225.865 47.4168 225.501 46.5353C225.138 45.6538 224.95 44.709 224.95 43.7549V31.6461C224.95 29.8356 225.624 28.0903 226.838 26.7521C228.053 25.414 229.721 24.5793 231.517 24.4116L233.902 24.1893L234.95 13.3891C235.125 11.5927 235.959 9.92564 237.29 8.71279C238.621 7.49994 240.355 6.82811 242.152 6.82813H253.843C254.793 6.82812 255.734 7.01604 256.612 7.38117C257.49 7.7463 258.288 8.28149 258.96 8.95617C259.632 9.63085 260.165 10.4318 260.529 11.3133C260.892 12.1948 261.079 13.1396 261.079 14.0938V23.602H267.067C268.017 23.602 268.958 23.7899 269.836 24.155C270.714 24.5202 271.512 25.0554 272.184 25.73C272.856 26.4047 273.389 27.2057 273.753 28.0872C274.116 28.9687 274.304 29.9135 274.304 30.8676V43.7549C274.304 44.709 274.116 45.6538 273.753 46.5353C273.389 47.4168 272.856 48.2178 272.184 48.8925C271.512 49.5671 270.714 50.1023 269.836 50.4675C268.958 50.8326 268.017 51.0205 267.067 51.0205H261.079V71.3057C261.049 72.3637 261.156 73.4211 261.396 74.4516C262.075 74.3204 262.736 74.1078 263.365 73.8183C264.361 73.3569 265.448 73.1289 266.545 73.1515C267.642 73.1742 268.719 73.4468 269.695 73.9488C270.671 74.4509 271.521 75.1692 272.18 76.0495C272.839 76.9297 273.291 77.949 273.5 79.03L275.8 90.9169C276.124 92.5929 275.85 94.33 275.026 95.8235C274.202 97.317 272.881 98.4714 271.293 99.0842C266.877 100.896 262.16 101.851 257.389 101.901V101.901Z" fill="#15047C"/>
<path d="M298.591 101.903C294.115 101.884 289.699 100.878 285.653 98.9567C281.608 97.0356 278.032 94.2459 275.178 90.7848C268.897 83.43 265.577 73.4684 265.577 61.9764C265.577 50.484 268.897 40.5221 275.178 33.1677C278.019 29.6919 281.592 26.8919 285.641 24.9694C289.689 23.047 294.112 22.0498 298.59 22.0498C303.068 22.0498 307.491 23.047 311.54 24.9694C315.588 26.8919 319.161 29.6919 322.003 33.1677C328.283 40.5221 331.603 50.4841 331.603 61.9764C331.603 73.4684 328.283 83.43 322.003 90.7848C319.149 94.2457 315.573 97.0353 311.527 98.9565C307.482 100.878 303.066 101.884 298.591 101.903V101.903ZM298.591 49.9109C296.215 49.9109 294.424 55.0978 294.424 61.9764C294.424 68.8539 296.215 74.0404 298.591 74.0404C300.966 74.0404 302.757 68.8538 302.757 61.9764C302.757 55.0978 300.966 49.9109 298.591 49.9109Z" fill="#15047C"/>
<path d="M336.149 100.347C335.198 100.347 334.257 100.16 333.379 99.7944C332.501 99.4293 331.704 98.8941 331.032 98.2194C330.36 97.5447 329.827 96.7438 329.463 95.8623C329.099 94.9808 328.912 94.036 328.912 93.0818V30.8697C328.912 29.9155 329.099 28.9707 329.463 28.0892C329.827 27.2077 330.36 26.4067 331.032 25.7321C331.704 25.0574 332.501 24.5222 333.379 24.1571C334.257 23.7919 335.198 23.604 336.149 23.604H347.647C348.624 23.6033 349.591 23.8017 350.49 24.187C351.389 24.5723 352.2 25.1366 352.875 25.8457C356.177 23.4338 360.142 22.1078 364.225 22.0499C367.486 21.9713 370.719 22.6696 373.659 24.0876C375.082 24.7677 376.245 25.8958 376.971 27.3004C377.698 28.7049 377.947 30.3091 377.682 31.8692L375.287 45.9779C375.11 47.018 374.71 48.0071 374.114 48.8763C373.518 49.7455 372.741 50.4739 371.837 51.011C370.932 51.5481 369.922 51.8809 368.876 51.9862C367.83 52.0915 366.774 51.9669 365.782 51.621C364.737 51.2089 363.623 51.0055 362.5 51.0225C361.374 51.0225 359.183 52.6969 357.472 57.2231V93.0818C357.472 94.036 357.284 94.9808 356.921 95.8623C356.557 96.7438 356.024 97.5447 355.352 98.2194C354.68 98.8941 353.882 99.4293 353.004 99.7944C352.126 100.16 351.185 100.347 350.235 100.347H336.149Z" fill="#15047C"/>
<path d="M379.075 100.346C378.125 100.346 377.184 100.158 376.306 99.7933C375.428 99.4281 374.63 98.8929 373.958 98.2183C373.286 97.5436 372.753 96.7426 372.389 95.8611C372.026 94.9796 371.839 94.0348 371.839 93.0807V10.7617C371.839 9.8076 372.026 8.86282 372.389 7.98131C372.753 7.0998 373.286 6.29882 373.958 5.62414C374.63 4.94946 375.428 4.4143 376.306 4.04917C377.184 3.68404 378.125 3.49609 379.075 3.49609H393.256C394.206 3.49608 395.147 3.68401 396.025 4.04914C396.903 4.41427 397.701 4.94946 398.373 5.62414C399.045 6.29882 399.578 7.09977 399.942 7.98128C400.305 8.8628 400.493 9.80759 400.493 10.7617V72.0394H422.1C423.05 72.0394 423.991 72.2273 424.869 72.5925C425.747 72.9576 426.545 73.4928 427.217 74.1675C427.889 74.8421 428.422 75.6431 428.785 76.5246C429.149 77.4061 429.336 78.3509 429.336 79.3051V93.0806C429.336 94.0348 429.149 94.9796 428.785 95.8611C428.422 96.7426 427.889 97.5436 427.217 98.2182C426.545 98.8929 425.747 99.4281 424.869 99.7932C423.991 100.158 423.05 100.346 422.1 100.346L379.075 100.346Z" fill="#15047C"/>
<path d="M472.211 100.346C470.582 100.346 469.001 99.7945 467.723 98.7802C466.445 97.7658 465.546 96.3482 465.17 94.7568L460.187 73.65L455.822 54.8666L446.284 94.7758C445.905 96.3629 445.004 97.7756 443.728 98.7862C442.451 99.7967 440.873 100.346 439.248 100.346H424.874C423.759 100.346 422.659 100.088 421.66 99.5905C420.661 99.0932 419.79 98.3708 419.115 97.4796C418.44 96.5885 417.979 95.5528 417.768 94.4533C417.558 93.3538 417.603 92.2203 417.901 91.1414L440.611 8.82236C441.033 7.29107 441.944 5.94104 443.203 4.97904C444.463 4.01705 446.002 3.49614 447.584 3.49609H464.257C465.839 3.49606 467.376 4.01608 468.635 4.97661C469.894 5.93714 470.805 7.2853 471.229 8.81489L494.034 91.1339C494.333 92.2132 494.38 93.3473 494.17 94.4475C493.96 95.5478 493.499 96.5844 492.824 97.4764C492.149 98.3683 491.278 99.0915 490.279 99.5894C489.279 100.087 488.178 100.346 487.063 100.346H472.211Z" fill="#15047C"/>
<path d="M495.396 100.346C494.398 100.346 493.41 100.139 492.496 99.7376C491.582 99.3361 490.76 98.7491 490.082 98.0133C489.405 97.2776 488.886 96.4091 488.559 95.4625C488.232 94.5158 488.104 93.5115 488.182 92.5125L494.615 10.1935C494.757 8.37054 495.579 6.66849 496.916 5.42706C498.253 4.18562 500.007 3.4961 501.829 3.49609H518.872C528.248 3.49609 535.782 5.41018 541.266 9.18485C546.066 12.4892 551.788 18.9722 551.788 31.0913C551.894 37.0343 550.185 42.8673 546.889 47.8054C552.363 52.6763 555.431 60.0083 555.431 68.8624C555.431 87.9879 541.795 100.346 520.693 100.346L495.396 100.346ZM519.447 73.151C527.16 73.151 527.16 70.4626 527.16 67.8625C527.16 65.7145 527.16 63.6855 519.447 63.6855H518.722L517.668 73.151H519.447ZM517.818 37.0455C523.517 37.0455 523.517 35.3409 523.517 33.5359C523.583 32.8669 523.481 32.192 523.219 31.5732C523.212 31.5654 522.26 30.7226 518.235 30.6923L517.59 37.0455H517.818Z" fill="#15047C"/>
<path d="M7.23624 53.1242C7.23624 26.0174 37.765 12.7354 55.6845 12.7354C64.6916 12.7354 78.1072 20.1173 82.7067 25.6715L62.9406 43.3525C59.2996 39.3539 61.3379 26.8438 55.9718 26.8438C45.2395 26.8438 29.1586 35.4602 29.1586 53.1242C29.1586 71.0097 45.2602 79.7969 56.4717 79.7969C62.6044 79.7969 65.162 74.4371 71.139 69.1883L79.4723 69.3327C79.4723 86.2919 69.5221 91.5403 55.3935 95.3129C38.0766 99.9367 7.23624 80.5638 7.23624 53.1242Z" fill="#FFCB08"/>
<path d="M87.9845 30.8689H99.4833L100.538 41.8673H100.825C104.753 33.7574 110.504 29.3146 116.061 29.3146C118.246 29.2348 120.417 29.6924 122.385 30.6474L119.99 44.7558C118.182 44.077 116.266 43.7381 114.336 43.7559C110.12 43.7559 105.041 46.9773 102.071 55.9758V93.0809H87.9845V30.8689Z" fill="#FFCB08"/>
<path d="M125.257 61.9765C125.257 41.8682 137.522 29.3154 150.266 29.3154C165.023 29.3154 172.689 41.8682 172.689 58.9766C172.737 61.5115 172.512 64.0442 172.019 66.5308H138.959C140.11 76.7507 145.859 82.0835 153.813 82.0835C158.22 82.0835 162.053 80.5279 165.886 77.7507L170.677 87.7492C165.381 92.0599 158.808 94.4828 151.991 94.6376C136.948 94.6376 125.257 82.5278 125.257 61.9765ZM160.616 55.6438C160.616 47.3124 157.358 41.9796 150.458 41.9796C144.804 41.9796 139.822 46.6453 138.767 55.6438H160.616Z" fill="#FFCB08"/>
<path d="M180.257 76.1963C180.257 62.8651 189.551 55.8666 211.207 53.1996C210.92 47.0896 208.621 42.4239 202.008 42.4239C197.026 42.4239 192.234 44.9783 187.252 48.3111L182.173 37.5354C188.497 32.9811 196.163 29.3154 204.596 29.3154C218.202 29.3154 225.198 38.7582 225.198 56.7551V93.0819H213.699L212.74 86.4162H212.357C207.662 91.0819 202.296 94.6375 196.163 94.6375C186.58 94.6375 180.257 86.7492 180.257 76.1963ZM211.207 75.752V63.198C198.079 65.0866 193.671 69.3079 193.671 74.8622C193.671 79.7507 196.642 81.862 200.763 81.862C204.788 81.862 207.758 79.6393 211.207 75.752Z" fill="#FFCB08"/>
<path d="M239.756 71.307V43.7559H232.187V31.6474L240.524 30.8689L242.152 14.0947H253.843V30.8689H267.067V43.7559H253.843V71.307C253.843 78.4169 256.335 81.7497 261.126 81.7497C262.953 81.6569 264.744 81.204 266.396 80.4168L268.696 92.3038C265.109 93.7942 261.271 94.5859 257.389 94.6366C244.644 94.6366 239.756 85.1939 239.756 71.307Z" fill="#FFCB08"/>
<path d="M272.813 61.9764C272.813 41.3125 285.175 29.3154 298.591 29.3154C312.005 29.3154 324.367 41.3125 324.367 61.9764C324.367 82.6391 312.005 94.6375 298.591 94.6375C285.175 94.6375 272.813 82.6391 272.813 61.9764ZM309.994 61.9764C309.994 50.311 305.873 42.6454 298.591 42.6454C291.307 42.6454 287.188 50.311 287.188 61.9764C287.188 73.752 291.307 81.3063 298.591 81.3063C305.873 81.3063 309.994 73.752 309.994 61.9764Z" fill="#FFCB08"/>
<path d="M336.148 30.8689H347.647L348.702 41.8673H348.989C352.917 33.7574 358.667 29.3145 364.226 29.3145C366.41 29.2349 368.581 29.6924 370.549 30.6474L368.153 44.7558C366.346 44.077 364.43 43.738 362.5 43.7559C358.284 43.7559 353.205 46.9773 350.235 55.9758V93.081H336.148V30.8689Z" fill="#FFCB08"/>
<path d="M379.075 10.7617H393.256V79.3052H422.1V93.0808H379.075V10.7617Z" fill="#FFCB08"/>
<path d="M447.584 10.7617H464.257L487.063 93.0807H472.211L467.228 71.9738L455.921 23.3145L439.248 93.0807H424.875L447.584 10.7617ZM449.405 50.1985L455.921 23.3145L462.053 50.1985C459.85 41.6456 457.933 32.2016 455.921 23.3145H455.442C453.621 32.313 451.513 41.6456 449.405 50.1985Z" fill="#FFCB08"/>
<path d="M501.829 10.7617H518.872C533.437 10.7617 544.552 15.7603 544.552 31.0915C544.552 38.6457 540.911 46.4214 534.875 48.8656V49.4213C542.54 51.5326 548.194 57.754 548.194 68.8625C548.194 85.4151 536.312 93.0807 520.693 93.0807H495.396L501.829 10.7617ZM517.818 44.3113C526.826 44.3113 530.754 40.0899 530.754 33.5357C530.754 26.3144 526.538 23.4259 518.01 23.4259L511.712 23.3145L509.577 44.3113H517.818ZM519.447 80.4165C529.126 80.4165 534.396 76.4167 534.396 67.8625C534.396 59.864 529.22 56.4198 519.447 56.4198H512.251L509.577 80.4165H519.447Z" fill="#FFCB08"/>
</svg>
