<svg xmlns="http://www.w3.org/2000/svg" viewBox="0 0 448.84799 91.53687"><defs><style>.cls-1{fill:#d84618;}.cls-2{fill:#15047c;}.cls-3{fill:#ffcb08;}</style></defs><g id="圖層_2" data-name="圖層 2"><g id="圖層_2-2" data-name="圖層 2"><g id="圖層_1-2" data-name="圖層 1"><polygon class="cls-1" points="10.293 28.081 59.964 91.537 448.848 3.03 10.293 28.081"/><path class="cls-2" d="M40.269,85.52539a6.27155,6.27155,0,0,1-6.09521-4.88965,45.167,45.167,0,0,0-2.25342-6.81933,6.23538,6.23538,0,0,1,2.73926-7.88184H24.76123a6.24568,6.24568,0,0,1-6.23486,6.05273H12.583A6.24412,6.24412,0,0,1,6.3457,65.75V30.93262a6.225,6.225,0,0,1,2.186-4.73926H6.2373A6.245,6.245,0,0,1,0,19.95508v-7.499A6.245,6.245,0,0,1,6.2373,6.21777H66.3252a6.245,6.245,0,0,1,6.2373,6.23828v7.499a6.245,6.245,0,0,1-6.2373,6.23828H64.63086V68.45117c0,5.53321-.87012,11.61719-7.32617,14.78906l-.11231.05372c-4.41992,2.042-10.03222,2.21582-16.90967,2.23144H40.269Zm2.2378-20.22363c.96728.01269,1.99267.01953,3.08447.02051V61.93945A6.27449,6.27449,0,0,1,42.50684,65.30176ZM27.45215,46.43652V44.1123H24.76367v2.32422ZM43.82178,26.19336a6.256,6.256,0,0,1,1.76953,2.49707l.00049-2.49707Z"/><path class="cls-2" d="M127.9834,85.915a6.25746,6.25746,0,0,1-3.46631-1.04,6.2247,6.2247,0,0,1-1.08594.09473h-4.49463a6.20686,6.20686,0,0,1-3.02929-.78614,6.2069,6.2069,0,0,1-3.0293.78614H108.3833a6.2127,6.2127,0,0,1-2.3042-.44141,6.20394,6.20394,0,0,1-3.61572,1.1582H97.14062a6.245,6.245,0,0,1-6.2373-6.23828V72.78906c-3.16064,1.03906-6.34424,2.06934-9.26172,3.01367l-4.23877,1.374a6.22945,6.22945,0,0,1-8.07617-4.90528l-1.16357-6.959a6.20319,6.20319,0,0,1,4.6167-7.07422c.61767-.15723,1.2539-.32617,1.91455-.50683V47.37012a6.24537,6.24537,0,0,1-5.93164-6.23047V34.5166a6.24448,6.24448,0,0,1,5.93164-6.22949V24.67969h-.17725a6.24412,6.24412,0,0,1-6.2373-6.23731v-6.7832a6.245,6.245,0,0,1,6.2373-6.23828h18.29a6.24165,6.24165,0,0,1,1.41943.16308A6.20793,6.20793,0,0,1,98.106,4.22754h5.32324a6.20913,6.20913,0,0,1,3.36035.98437,6.24844,6.24844,0,0,1,5.939-4.3291h5.52978a6.24891,6.24891,0,0,1,5.99854,4.52442,6.20084,6.20084,0,0,1,3.646-1.17969h5.66748a6.24412,6.24412,0,0,1,6.23731,6.2373v18.251a6.24031,6.24031,0,0,1-.13184,1.2793A6.2276,6.2276,0,0,1,142.084,34.915v6.46387A6.2128,6.2128,0,0,1,140.49023,45.54a6.20987,6.20987,0,0,1,.76563,2.99414V71.7959c0,3.625-.47266,8.15918-4.13672,11.15918-2.88476,2.48242-6.1582,2.88965-8.98486,2.958Z"/><path class="cls-2" d="M154.65967,85.68652a6.245,6.245,0,0,1-6.23731-6.23828V64.60254L147.0835,65a6.23317,6.23317,0,0,1-7.88428-4.709l-1.56543-7.541a6.25661,6.25661,0,0,1,4.7832-7.36328q.46875-.10254.96143-.21192c-.99365-.459-2.14942-.96-3.07129-1.33007a6.26,6.26,0,0,1-3.60254-7.69434c1.603-4.999,2.81885-13,3.51562-23.14062a6.2332,6.2332,0,0,1,7.32325-5.71094l.8789.1582V7.19922A6.245,6.245,0,0,1,154.65967.96094h5.73681a6.24485,6.24485,0,0,1,6.23682,6.23828V9.17773a6.20294,6.20294,0,0,1,3.68359-1.207h6.729V7.12012A6.24454,6.24454,0,0,1,183.28369.88281h6.08106A6.245,6.245,0,0,1,195.603,7.12012V7.9707h7.55761A6.24412,6.24412,0,0,1,209.398,14.208v6.543a6.24219,6.24219,0,0,1-3.30566,5.50488,6.20085,6.20085,0,0,1,.96093,3.32226v6.70411a6.1963,6.1963,0,0,1-.91015,3.24023,6.2506,6.2506,0,0,1,4.77246,6.06445v6.624a6.245,6.245,0,0,1-6.23828,6.2373h-.38379V69.88477c0,3.19238,0,9.83593-6.22266,13.248-3.418,1.86914-7.7041,2.27442-13.09082,2.31055h-.042a6.20432,6.20432,0,0,1-6.15479-5.23145,41.64391,41.64391,0,0,0-1.60986-6.1914,6.24311,6.24311,0,0,1-2.31885-2.55274A70.86844,70.86844,0,0,0,168.665,61.751a6.26608,6.26608,0,0,1-1.16992-2.748l-.86182.25879V79.44824a6.24485,6.24485,0,0,1-6.23682,6.23828ZM166.6333,39.71387a6.14651,6.14651,0,0,1,.96436.13379c.04-.01758.08056-.03418.1206-.05078a6.20033,6.20033,0,0,1-1.085-3.34278Z"/><path class="cls-2" d="M217.41455,86.05273a6.24044,6.24044,0,0,1-5.40918-3.1455,43.13531,43.13531,0,0,0-2.62012-3.9668,6.23034,6.23034,0,0,1,3.91211-9.84668c.76075-.13574,1.53028-.28418,2.30078-.44336,0-.03711-.001-23.85937-.001-23.85937a6.20719,6.20719,0,0,1,1.31738-3.83008c-.01465-.16992-.02246-.34082-.02344-.51172h-4.02246a6.245,6.245,0,0,1-6.23828-6.23731V29.499a6.21982,6.21982,0,0,1,1.93262-4.50879V13.57129a6.245,6.245,0,0,1,6.2373-6.23828h17.42578a6.23065,6.23065,0,0,1,4.2334-4.88477L241.70459.75879a6.23146,6.23146,0,0,1,7.43457,3.03613c.48926.93164,1.10547,2.165,1.71,3.53809H271.439a6.245,6.245,0,0,1,6.23731,6.23828v11.1709a6.2292,6.2292,0,0,1,2.207,4.75683v4.71289a6.24412,6.24412,0,0,1-6.2373,6.23731h-4.42383a6.21654,6.21654,0,0,1,1.76367,4.3418V68.53711c0,.14062-.00488.28027-.01465.418.64649.22851,1.26953.45215,1.86426.668a6.23063,6.23063,0,0,1,2.36719,10.18066l-4.00782,4.16992a6.22827,6.22827,0,0,1-6.93945,1.41309c-2.81348-1.2041-10.22851-4.27539-18.39355-6.82617a6.2326,6.2326,0,0,1-2.60352-1.59375,6.21242,6.21242,0,0,1-1.793,1.43359A84.16467,84.16467,0,0,1,218.52,85.9541,6.25441,6.25441,0,0,1,217.41455,86.05273Z"/><path class="cls-2" d="M296.37451,85.39062a6.22882,6.22882,0,0,1-6.11719-5.62207,17.17383,17.17383,0,0,0-.42871-2.40039l-.52148.06934a6.266,6.266,0,0,1-.82031.05371c-.1377,0-.27539-.00488-.41211-.01367a6.24366,6.24366,0,0,1-7.25,1.98926l-2.46485-.97852a6.25611,6.25611,0,0,1-3.7334-7.36914,109.23018,109.23018,0,0,0,2.31739-14.18945,6.21582,6.21582,0,0,1,1.01562-2.83106,6.214,6.214,0,0,1-.22168-1.64941V10.14648A6.245,6.245,0,0,1,283.9751,3.9082h21.80859a6.245,6.245,0,0,1,6.23731,6.23828v1.71a44.768,44.768,0,0,0,6.36523-8.54395A6.22781,6.22781,0,0,1,326.15771.56543l5.416,2.18262a6.24077,6.24077,0,0,1,3.87891,6.35449,48.7823,48.7823,0,0,0,10.5459,6.96875,6.26176,6.26176,0,0,1,3.01464,8.26465,39.2817,39.2817,0,0,0-1.94922,5.58594,6.19663,6.19663,0,0,1-1.42773,2.60644,6.20374,6.20374,0,0,1,1.07813,3.501V53.3252a6.24721,6.24721,0,0,1-3.8545,5.76367c-.29882,1.8164-.6289,3.52051-.998,5.14648a67.22916,67.22916,0,0,1,5.25683,4.71973,6.214,6.214,0,0,1,.54981,8.06054l-3.47461,4.71a6.2376,6.2376,0,0,1-9.67285.44824c-.01563-.01758-.03125-.03613-.04786-.05371-.0996.1455-.20019.29-.30175.43164a6.2667,6.2667,0,0,1-5.09278,2.63183,6.18856,6.18856,0,0,1-4.44922-1.87011,39.4282,39.4282,0,0,0-3.71191-3.251c-.09375-.07129-.18555-.14551-.27441-.22266a6.24107,6.24107,0,0,1-2.29883-.84277,39.48912,39.48912,0,0,1-2.5293,3.73242,6.24214,6.24214,0,0,1-9.416.57422,10.14667,10.14667,0,0,1-4.19922,1.6543,25.35061,25.35061,0,0,1-5.15625.4375Z"/><path class="cls-2" d="M351.70264,83.53516a6.24413,6.24413,0,0,1-6.23731-6.23731V70.99316a6.24412,6.24412,0,0,1,6.23731-6.2373h.36523a6.2038,6.2038,0,0,1-.60058-2.66992V56.02051a6.24039,6.24039,0,0,1,2.88476-5.25879c-.417-1.62793-1.00391-3.76465-1.50879-5.29883a6.24307,6.24307,0,0,1,2.99024-7.45215,6.23168,6.23168,0,0,1-2.50489-4.99414v-.13379h-1.418a6.245,6.245,0,0,1-6.23828-6.2373V13.49121a6.245,6.245,0,0,1,6.23828-6.2373H370.77a6.15594,6.15594,0,0,1,.44824-1.49512,6.2508,6.2508,0,0,1,3.69434-3.373L380.98779.33008a6.22974,6.22974,0,0,1,7.60645,3.18164c.58887,1.21387,1.15234,2.4873,1.66015,3.74219h19.88184a6.24413,6.24413,0,0,1,6.23731,6.2373v13.1543a6.24413,6.24413,0,0,1-6.23731,6.2373H409.062v.13379a6.22767,6.22767,0,0,1-2.248,4.791c1.39161,1.52148,2.78125,3.13672,3.96,4.68847a6.25667,6.25667,0,0,1-1.14356,8.70606l-.22851.17676a6.22454,6.22454,0,0,1,2.07519,4.6416v6.06543a6.19465,6.19465,0,0,1-.60156,2.6709,6.24528,6.24528,0,0,1,6.11914,6.23632v6.30469a6.24413,6.24413,0,0,1-6.23731,6.23731Z"/><path class="cls-3" d="M66.32543,20.98427H60.451A1.02872,1.02872,0,0,0,59.42227,22.013V68.45082c0,5.73413-1.17267,8.5218-4.41433,10.11436-3.30823,1.52847-8.13913,1.73693-14.737,1.75142a1.02659,1.02659,0,0,1-1.0094-.79722,50.09136,50.09136,0,0,0-2.541-7.72494,1.02222,1.02222,0,0,1,.99267-1.41911c4.50908.2093,9.40935.14627,10.88.14627,1.58628,0,2.20716-.55717,2.20716-2.23049V22.013a1.02872,1.02872,0,0,0-1.02872-1.02872H6.23734a1.02871,1.02871,0,0,1-1.02871-1.02871V12.4558a1.02871,1.02871,0,0,1,1.02871-1.02872H66.32543a1.02871,1.02871,0,0,1,1.02871,1.02872v7.49976A1.02871,1.02871,0,0,1,66.32543,20.98427ZM19.55518,61.75447v3.99521a1.02871,1.02871,0,0,1-1.02871,1.02872H12.58293a1.02871,1.02871,0,0,1-1.02871-1.02872V30.93226a1.02871,1.02871,0,0,1,1.02871-1.02872H39.7704a1.02871,1.02871,0,0,1,1.02871,1.02872V59.697a1.02871,1.02871,0,0,1-1.02871,1.02871H20.58389A1.02871,1.02871,0,0,0,19.55518,61.75447Zm0-21.8222v10.6849a1.02871,1.02871,0,0,0,1.02871,1.02871H31.63171a1.02871,1.02871,0,0,0,1.02872-1.02871V39.93227a1.02871,1.02871,0,0,0-1.02872-1.02871H20.58389A1.02871,1.02871,0,0,0,19.55518,39.93227Z"/><path class="cls-3" d="M93.56035,58.84093l.73333,6.47314a1.02452,1.02452,0,0,1-.69071,1.09085c-5.98219,2.00547-12.40085,4.06012-17.81069,5.81914a1.02509,1.02509,0,0,1-1.32816-.81l-1.16365-6.96126a1.029,1.029,0,0,1,.76594-1.16714c1.54645-.39257,3.22045-.86741,5.07975-1.39142a1.03145,1.03145,0,0,0,.75648-.98736c0-3.05337,0-14.25959,0-17.71616a1.02314,1.02314,0,0,0-1.02872-1.02216H74.99986a1.02872,1.02872,0,0,1-1.02872-1.02871V34.51665a1.02872,1.02872,0,0,1,1.02872-1.02871h3.87409a1.02872,1.02872,0,0,0,1.02872-1.02872V20.49938a1.02872,1.02872,0,0,0-1.02872-1.02872h-4.3568a1.02871,1.02871,0,0,1-1.02871-1.02871V11.65907a1.02871,1.02871,0,0,1,1.02871-1.02872H92.80689a1.02871,1.02871,0,0,1,1.02871,1.02872v6.78288a1.02871,1.02871,0,0,1-1.02871,1.02871h-4.495a1.02872,1.02872,0,0,0-1.02872,1.02872V32.45922a1.02872,1.02872,0,0,0,1.02872,1.02872h3.04641A1.02871,1.02871,0,0,1,92.387,34.51665v6.62318a1.02871,1.02871,0,0,1-1.02871,1.02871H88.31192a1.02872,1.02872,0,0,0-1.02872,1.02872V58.07042a1.02872,1.02872,0,0,0,1.32278.98579l3.63813-1.08527A1.02872,1.02872,0,0,1,93.56035,58.84093Zm25.50448-15.69179c-.316,1.05853-.61121,2.06529-.89992,3.03682a1.02474,1.02474,0,0,0,.98216,1.31927c3.51948,0,12.781,0,15.87644,0a1.02476,1.02476,0,0,1,1.02407,1.02871V71.79566c0,3.34483-.48271,5.73413-2.27625,7.16789-1.53427,1.347-3.34211,1.68429-5.76313,1.74223a1.02692,1.02692,0,0,1-1.0479-.84318,30.11924,30.11924,0,0,0-1.83218-6.03185,1.02627,1.02627,0,0,1,.97676-1.417c.8307.019,1.50357.019,1.80356.019.55179-.079.759-.23866.759-.87568V56.49765a1.02871,1.02871,0,0,0-1.02872-1.02871h-2.15008A1.02872,1.02872,0,0,0,124.46,56.49765V78.73157a1.02871,1.02871,0,0,1-1.02871,1.02871h-4.495a1.02872,1.02872,0,0,1-1.02872-1.02871V56.49765a1.02871,1.02871,0,0,0-1.02871-1.02871h-1.94328a1.02871,1.02871,0,0,0-1.02871,1.02871V78.73157a1.02871,1.02871,0,0,1-1.02872,1.02871h-4.495a1.02871,1.02871,0,0,1-1.02871-1.02871V56.49765a1.02871,1.02871,0,0,0-1.02872-1.02871h-1.8051a1.02871,1.02871,0,0,0-1.02871,1.02871V79.44844a1.02872,1.02872,0,0,1-1.02872,1.02872H97.14056a1.02871,1.02871,0,0,1-1.02871-1.02872V48.53392a1.02871,1.02871,0,0,1,1.02871-1.02871h12.30649a1.02773,1.02773,0,0,0,1.01505-.86042c.16523-1.00315.33046-2.01137.4957-3.04124a1.02861,1.02861,0,0,0-1.01066-1.19543c-3.13579,0-11.53072,0-14.46283,0a1.028,1.028,0,0,1-1.02783-1.02871V34.915a1.02871,1.02871,0,0,1,1.02871-1.02872h40.36136a1.02871,1.02871,0,0,1,1.02871,1.02872v6.46437a1.02647,1.02647,0,0,1-1.02608,1.02871c-3.20494,0-12.98228,0-15.79671,0A1.03724,1.03724,0,0,0,119.06483,43.14914ZM133.5703,29.74473H98.106A1.02871,1.02871,0,0,1,97.07726,28.716V10.46487A1.02871,1.02871,0,0,1,98.106,9.43615h5.32311a1.02871,1.02871,0,0,1,1.02871,1.02872v9.968a1.02872,1.02872,0,0,0,1.02872,1.02872H110.671a1.02872,1.02872,0,0,0,1.02872-1.02872V7.12a1.02872,1.02872,0,0,1,1.02871-1.02872h5.52992A1.02872,1.02872,0,0,1,119.28705,7.12V20.43288a1.02872,1.02872,0,0,0,1.02872,1.02872h5.52946a1.02873,1.02873,0,0,0,1.02872-1.02872v-9.968a1.02871,1.02871,0,0,1,1.02871-1.02872h5.66764a1.02871,1.02871,0,0,1,1.02871,1.02872V28.716A1.02871,1.02871,0,0,1,133.5703,29.74473Z"/><path class="cls-3" d="M167.23281,53.64281l-5.0753,1.526a1.0287,1.0287,0,0,0-.73251.98514V79.44844a1.02871,1.02871,0,0,1-1.02871,1.02872h-5.73672a1.02872,1.02872,0,0,1-1.02872-1.02872V58.99878a1.02871,1.02871,0,0,0-1.322-.986l-6.70958,1.99551a1.02872,1.02872,0,0,1-1.30051-.77695l-1.56512-7.54016a1.02868,1.02868,0,0,1,.79043-1.21451c2.6681-.58135,5.90168-1.35835,9.30829-2.14948a1.02659,1.02659,0,0,0,.79844-.99833c0-2.86758,0-12.50407,0-15.68209a1.02666,1.02666,0,0,0-1.02872-1.02631H150.492a1.03025,1.03025,0,0,0-1.01155.85042,79.3745,79.3745,0,0,1-1.96447,8.58472,1.0261,1.0261,0,0,1-1.42382.638c-1.16373-.55079-2.66867-1.21-3.84164-1.68157a1.0241,1.0241,0,0,1-.58561-1.27269c1.99351-6.21479,3.13872-15.45483,3.75142-24.37252a1.02567,1.02567,0,0,1,1.20582-.9409l4.15671.74681a1.03826,1.03826,0,0,1,.84842,1.10184c-.16662,2.07726-.372,4.11974-.61627,6.19467a1.02788,1.02788,0,0,0,1.01623,1.152h.57489a1.02871,1.02871,0,0,0,1.02871-1.02871V7.199a1.02871,1.02871,0,0,1,1.02872-1.02871h5.73672A1.02871,1.02871,0,0,1,161.425,7.199V20.59259a1.02871,1.02871,0,0,0,1.02872,1.02871h3.87409A1.02872,1.02872,0,0,1,167.35653,22.65v6.94169a1.02871,1.02871,0,0,1-1.02872,1.02871h-3.87409a1.02872,1.02872,0,0,0-1.02872,1.02872V44.81525a1.02872,1.02872,0,0,0,1.29167.99454l3.26931-.8644a1.02871,1.02871,0,0,1,1.28632.88978L167.96,52.5529A1.02871,1.02871,0,0,1,167.23281,53.64281Zm37.44489-.40347h-4.56406a1.02872,1.02872,0,0,0-1.02871,1.02872V69.88458c0,4.69874-.75905,7.16789-3.518,8.6806-2.46278,1.34732-6.02209,1.6393-10.62067,1.6696a1.02536,1.02536,0,0,1-1.02125-.85284,47.29612,47.29612,0,0,0-1.8452-7.11263,1.0294,1.0294,0,0,1,1.00652-1.36657c2.80634.09618,5.61549.09618,6.54907.09618,1.0345,0,1.31084-.31851,1.31084-1.3539v-15.377a1.02872,1.02872,0,0,0-1.02871-1.02872H170.04061a1.02871,1.02871,0,0,1-1.02871-1.02871V45.58656a1.02871,1.02871,0,0,1,1.02871-1.02872h19.87692a1.02871,1.02871,0,0,0,1.02871-1.02871v-3.517a1.02872,1.02872,0,0,1,1.02872-1.02872h6.08125a1.02872,1.02872,0,0,1,1.02872,1.02872v3.517a1.02871,1.02871,0,0,0,1.02871,1.02871h4.56406a1.02872,1.02872,0,0,1,1.02872,1.02872v6.62407A1.02872,1.02872,0,0,1,204.6777,53.23934ZM181.22616,21.78011H170.317a1.02872,1.02872,0,0,1-1.02872-1.02872V14.20807a1.02872,1.02872,0,0,1,1.02872-1.02872h10.9092a1.02871,1.02871,0,0,0,1.02871-1.02871V7.12a1.02872,1.02872,0,0,1,1.02872-1.02872h6.08125A1.02873,1.02873,0,0,1,190.39356,7.12v5.03061a1.02871,1.02871,0,0,0,1.02871,1.02871H203.1605a1.02873,1.02873,0,0,1,1.02872,1.02872v6.54332a1.02872,1.02872,0,0,1-1.02872,1.02872H191.42227a1.02871,1.02871,0,0,0-1.02871,1.02871v4.7121a1.02872,1.02872,0,0,0,1.02871,1.02872h9.3929a1.02871,1.02871,0,0,1,1.02871,1.02871v6.70393a1.02871,1.02871,0,0,1-1.02871,1.02871H172.86865a1.02871,1.02871,0,0,1-1.02871-1.02871V29.57835a1.02871,1.02871,0,0,1,1.02871-1.02871h8.35751a1.02872,1.02872,0,0,0,1.02871-1.02872v-4.7121A1.02871,1.02871,0,0,0,181.22616,21.78011Zm-2.365,32.42556a74.754,74.754,0,0,1,7.25909,10.42623,1.02914,1.02914,0,0,1-.28773,1.31667l-4.77259,3.576a1.02456,1.02456,0,0,1-1.53684-.36772,75.47171,75.47171,0,0,0-6.6939-10.53478,1.02435,1.02435,0,0,1,.2219-1.45711c1.18478-.83953,3.29338-2.3337,4.42847-3.138A1.02083,1.02083,0,0,1,178.86115,54.20567Z"/><path class="cls-3" d="M274.6744,29.4994v4.71209a1.02872,1.02872,0,0,1-1.02872,1.02872H263.13185a1.02872,1.02872,0,0,0-1.02468.93769L261.722,40.514a1.02871,1.02871,0,0,1-1.02468.93768H223.12845a1.02871,1.02871,0,0,1-1.02245-1.14213l.43566-3.92718a1.02871,1.02871,0,0,0-1.02244-1.14214h-8.65069a1.02872,1.02872,0,0,1-1.02872-1.02872V29.4994a1.02872,1.02872,0,0,1,1.02872-1.02872h9.7094A1.02871,1.02871,0,0,0,223.6,27.55846l.482-4.22911a1.02872,1.02872,0,0,1,1.0221-.91221H262.111a1.02871,1.02871,0,0,1,1.02546,1.11048l-.30561,3.83258a1.02871,1.02871,0,0,0,1.02546,1.11048h9.78941A1.02872,1.02872,0,0,1,274.6744,29.4994ZM262.52785,71.5717c3.15069,1.046,6.10012,2.06634,8.53232,2.94808a1.02265,1.02265,0,0,1,.38829,1.67366l-4.00709,4.16928a1.01967,1.01967,0,0,1-1.14126.23257c-4.68754-2.00505-11.76328-4.78187-18.88557-7.006a1.02667,1.02667,0,0,1-.504-1.61722l.584-.74a1.02872,1.02872,0,0,0-.80753-1.666h-7.69282a1.02871,1.02871,0,0,0-.66474,1.81381l.86193.7298a1.02914,1.02914,0,0,1-.17571,1.69435,79.84733,79.84733,0,0,1-21.41893,7.02438,1.0164,1.0164,0,0,1-1.06645-.50066,48.35227,48.35227,0,0,0-2.96153-4.49043,1.02256,1.02256,0,0,1,.64059-1.61595A92.24639,92.24639,0,0,0,225.14422,71.578a1.03019,1.03019,0,0,0-.3137-2.012h-2.59417c-.97326,0-1.42972-.46057-1.42972-1.02871V44.79072a1.02871,1.02871,0,0,1,1.02872-1.02871H264.748a1.02871,1.02871,0,0,1,1.02871,1.02871V68.53735a1.02871,1.02871,0,0,1-1.02871,1.02871h-1.901A1.02862,1.02862,0,0,0,262.52785,71.5717Zm-42.4054-45.1718h-5.32221a1.02872,1.02872,0,0,1-1.02871-1.02872V13.571a1.02871,1.02871,0,0,1,1.02871-1.02871H237.4778a1.0299,1.0299,0,0,0,.9626-1.39914c-.31351-.80271-.65758-1.58949-1.00049-2.333a1.02425,1.02425,0,0,1,.61909-1.4048l5.24436-1.68907a1.02258,1.02258,0,0,1,1.22094.4936,46.21264,46.21264,0,0,1,2.531,5.64391,1.028,1.028,0,0,0,.96808.68856h23.41517a1.02871,1.02871,0,0,1,1.02871,1.02871V25.37118a1.02872,1.02872,0,0,1-1.02871,1.02872H265.84a1.02872,1.02872,0,0,1-1.02872-1.02872V20.89774a1.02871,1.02871,0,0,0-1.02871-1.02871H222.17988a1.02871,1.02871,0,0,0-1.02871,1.02871v4.47344A1.02873,1.02873,0,0,1,220.12245,26.3999Zm9.64477,24.45015H256.4029a1.02872,1.02872,0,0,0,1.02872-1.02872v-.252a1.02872,1.02872,0,0,0-1.02872-1.02872H229.76722a1.02871,1.02871,0,0,0-1.02871,1.02872v.252A1.02871,1.02871,0,0,0,229.76722,50.85005Zm0,7.00819H256.4029a1.02873,1.02873,0,0,0,1.02872-1.02872V56.4178a1.02873,1.02873,0,0,0-1.02872-1.02872H229.76722a1.02872,1.02872,0,0,0-1.02871,1.02872v.41172A1.02872,1.02872,0,0,0,229.76722,57.85824Zm0,7.00908H256.4029a1.02872,1.02872,0,0,0,1.02872-1.02871V63.347a1.02872,1.02872,0,0,0-1.02872-1.02871H229.76722a1.02871,1.02871,0,0,0-1.02871,1.02871v.49158A1.02871,1.02871,0,0,0,229.76722,64.86732Zm1.22078-28.1144h6.99012a1.02871,1.02871,0,0,0,1.01944-.89087l.06634-.49068a1.02871,1.02871,0,0,0-1.01944-1.16655H231.041a1.0287,1.0287,0,0,0-1.02275.91815l-.05305.49068A1.02872,1.02872,0,0,0,230.988,36.75292Zm-.21985-8.65065-.03025.25291a1.02872,1.02872,0,0,0,1.02144,1.15089h6.93588a1.02872,1.02872,0,0,0,1.02464-.93719l.02259-.25291a1.02872,1.02872,0,0,0-1.02464-1.12024h-6.92822A1.02872,1.02872,0,0,0,230.76815,28.10227Zm23.84293,7.705.03974-.49068a1.02872,1.02872,0,0,0-1.02536-1.11175h-6.78975a1.02871,1.02871,0,0,0-1.02276.91815l-.053.49068a1.02872,1.02872,0,0,0,1.02276,1.13927h6.80305A1.02872,1.02872,0,0,0,254.61108,35.80725Zm-.4787-8.61152h-6.62989a1.02871,1.02871,0,0,0-1.02691.9677l-.015.25291a1.02872,1.02872,0,0,0,1.02691,1.08973h6.62979a1.02871,1.02871,0,0,0,1.02688-.9673l.01513-.25291A1.02872,1.02872,0,0,0,254.13238,27.19573Z"/><path class="cls-3" d="M279.66909,72.42371a112.88783,112.88783,0,0,0,2.45613-14.96064,1.02529,1.02529,0,0,1,1.40733-.84187l2.15225.86987a1.02009,1.02009,0,0,1,.64007,1.04343,137.15364,137.15364,0,0,1-2.19723,15.3657,1.02494,1.02494,0,0,1-1.38119.72568l-2.46733-.97942A1.02945,1.02945,0,0,1,279.66909,72.42371Zm40.79922-14.11183c-.316,1.49868-.66826,2.99054-1.05724,4.4452a1.0152,1.0152,0,0,0,.38623,1.087,36.18941,36.18941,0,0,1,5.40835,4.79879,1.02832,1.02832,0,0,1,.0882,1.24411l-2.83666,4.3482a1.02535,1.02535,0,0,1-1.61787.13464c-.82654-.91559-1.85788-1.9591-2.95645-2.97168a1.02856,1.02856,0,0,0-1.6341.35,39.13,39.13,0,0,1-4.56455,7.80877,1.0332,1.0332,0,0,1-1.58788.0765c-.89566-.97833-2.1348-2.16551-3.23189-3.15685a1.02623,1.02623,0,0,0-1.61227.32676,2.94568,2.94568,0,0,1-.23379.40789,4.82967,4.82967,0,0,1-3.79345,2.628,21.76366,21.76366,0,0,1-4.77408.3435,1.02305,1.02305,0,0,1-1.00956-.92,23.2405,23.2405,0,0,0-.97334-4.61824,1.02311,1.02311,0,0,1,1.06022-1.327c.99133.07074,1.78847.07074,2.24784.07074a1.64661,1.64661,0,0,0,1.72446-.87569c.36092-.69371.61641-2.23222.85826-5.3523a.9112.9112,0,0,0-1.26472-.90855l-.00249.00107a.90294.90294,0,0,1-1.245-.64524c-.5118-2.4808-1.42006-5.61975-2.25651-8.25858a1.0291,1.0291,0,0,1,.61042-1.27335l1.00226-.38551a1.02849,1.02849,0,0,1,1.34183.62344q.14286.41106.28768.8379a1.02792,1.02792,0,0,0,2.0035-.28533q.03552-1.11018.07617-2.31746a1.032,1.032,0,0,0-1.02562-1.0706H283.97155a1.02537,1.02537,0,0,1-1.02478-1.02872V10.14635a1.02871,1.02871,0,0,1,1.02871-1.02871h21.80774a1.02871,1.02871,0,0,1,1.02871,1.02871V15.814a1.02872,1.02872,0,0,1-1.02871,1.02872h-4.97768a1.02871,1.02871,0,0,0-1.02871,1.02871v3.19849a1.02871,1.02871,0,0,0,1.02871,1.02871h3.87409a1.02872,1.02872,0,0,1,1.02872,1.02872v.80341A54.28389,54.28389,0,0,0,322.93172,5.85451a1.02412,1.02412,0,0,1,1.27989-.45767l5.41467,2.18209a1.03486,1.03486,0,0,1,.5117,1.4654c-.13833.24843-.28031.49263-.42409.73475a1.0275,1.0275,0,0,0,.152,1.26093,54.05947,54.05947,0,0,0,13.91583,9.74562,1.02768,1.02768,0,0,1,.50217,1.3681,44.12227,44.12227,0,0,0-2.25377,6.43071,1.02792,1.02792,0,0,1-1.53846.60334c-1.18429-.72561-2.36864-1.53983-3.55319-2.41538a1.02728,1.02728,0,0,0-1.64066.82279v2.15622a1.02872,1.02872,0,0,1-1.02872,1.02872H316.04841a1.02871,1.02871,0,0,1-1.02871-1.02871v-.90667a1.0275,1.0275,0,0,0-1.63639-.82758c-.74529.54768-1.49124,1.08357-2.26031,1.61614a1.03727,1.03727,0,0,1-1.42919-.244c-.59668-.8344-1.3689-1.81467-2.14452-2.72581a1.02925,1.02925,0,0,0-1.81266.65145l-.0123.78025a1.02872,1.02872,0,0,1-1.02859,1.0125h-3.89019a1.02871,1.02871,0,0,0-1.02871,1.02871v2.64132a1.02871,1.02871,0,0,0,1.02871,1.02871h4.08135a1.02871,1.02871,0,0,1,1.02872,1.02871V39.707a1.02871,1.02871,0,0,1-1.02872,1.02871h-4.08135a1.02871,1.02871,0,0,0-1.02871,1.02872v2.95982a1.02871,1.02871,0,0,0,1.02871,1.02872h5.59137a1.02689,1.02689,0,0,1,1.02876,1.03895c-.00808.65909-.02529,1.48028-.062,1.98737-.25093,10.78863-.50233,17.77557-.94,22.191a1.03089,1.03089,0,0,0,1.89766.65007,41.92592,41.92592,0,0,0,5.27718-14.706,1.02717,1.02717,0,0,1,1.21755-.8312l4.84927,1.008A1.03376,1.03376,0,0,1,320.46831,58.31188Zm-29.9843.1831c.327,4.08541.50383,8.92748.52988,12.55022a1.02793,1.02793,0,0,1-.89164,1.02927l-1.497.19921a1.02306,1.02306,0,0,1-1.163-1.03266c.07187-3.62487-.044-8.45882-.30691-12.467a1.0264,1.0264,0,0,1,.92718-1.09154l1.27746-.1229A1.02587,1.02587,0,0,1,290.484,58.495Zm-1.1912-40.62356v3.19849a1.02871,1.02871,0,0,0,1.02871,1.02871h2.21872a1.02871,1.02871,0,0,0,1.02872-1.02871V17.87142a1.02871,1.02871,0,0,0-1.02872-1.02871h-2.21872A1.02871,1.02871,0,0,0,289.29281,17.87142Zm3.24743,11.23629h-2.21872a1.02871,1.02871,0,0,0-1.02871,1.02871v2.64132a1.02871,1.02871,0,0,0,1.02871,1.02871h2.21872a1.02871,1.02871,0,0,0,1.02872-1.02871V30.13642A1.02871,1.02871,0,0,0,292.54024,29.10771Zm-2.21872,16.64523h2.21872a1.02872,1.02872,0,0,0,1.02872-1.02872V41.7644a1.02872,1.02872,0,0,0-1.02872-1.02872h-2.21872a1.02871,1.02871,0,0,0-1.02871,1.02872v2.95982A1.02871,1.02871,0,0,0,290.32152,45.75294Zm4.341,11.83232c.69819,3.59653,1.40606,7.81,1.72071,10.9161a1.0271,1.0271,0,0,1-.79185,1.10708l-1.23886.2862a1.06541,1.06541,0,0,1-1.41991-.87345,99.29143,99.29143,0,0,0-1.56026-10.77465,1.02942,1.02942,0,0,1,.81-1.22311l1.27846-.246A1.02291,1.02291,0,0,1,294.66251,57.58526Zm15.59255-22.58461h12.70275a1.02871,1.02871,0,0,1,1.02871,1.02871V53.325a1.02871,1.02871,0,0,1-1.02871,1.02871H310.25506a1.02871,1.02871,0,0,1-1.02871-1.02871V36.02936A1.02871,1.02871,0,0,1,310.25506,35.00065Zm5.31065,13.38025h1.736a1.02871,1.02871,0,0,0,1.02871-1.02872v-5.429a1.02871,1.02871,0,0,0-1.02871-1.02872h-1.736a1.02871,1.02871,0,0,0-1.02871,1.02872v5.429A1.02871,1.02871,0,0,0,315.56571,48.3809Zm15.33387-26.56335c-1.66233-1.48259-3.276-3.00492-4.78946-4.5869a1.02276,1.02276,0,0,0-1.54531.07075,54.60276,54.60276,0,0,1-4.123,4.5551,1.02522,1.02522,0,0,0,.72051,1.75573h9.05542A1.02669,1.02669,0,0,0,330.89958,21.81755Zm6.86577,36.14957A76.24546,76.24546,0,0,1,336.1672,65.568a1.01074,1.01074,0,0,0,.35506,1.0673,73.86268,73.86268,0,0,1,6.86574,5.95425,1.02813,1.02813,0,0,1,.091,1.33126l-3.47648,4.71179a1.02791,1.02791,0,0,1-1.59834.06866,57.92148,57.92148,0,0,0-4.14926-4.077,1.02651,1.02651,0,0,0-1.60655.29689,34.56587,34.56587,0,0,1-2.72213,4.61284,1.02876,1.02876,0,0,1-1.578.13191,44.70208,44.70208,0,0,0-4.26372-3.73773,1.01483,1.01483,0,0,1-.19132-1.42748c3.42474-4.34718,5.53036-10.7861,6.56638-17.87634a1.0273,1.0273,0,0,1,1.21165-.867l5.27208,1.03384A1.03436,1.03436,0,0,1,337.76535,57.96712Zm-10.543-22.96647h13.25453a1.02872,1.02872,0,0,1,1.02872,1.02871V53.325a1.02872,1.02872,0,0,1-1.02872,1.02871H327.2224a1.02871,1.02871,0,0,1-1.02872-1.02871V36.02936A1.02871,1.02871,0,0,1,327.2224,35.00065Zm5.31065,13.38025h2.2878a1.02872,1.02872,0,0,0,1.02872-1.02872v-5.429a1.02872,1.02872,0,0,0-1.02872-1.02872h-2.2878a1.02872,1.02872,0,0,0-1.02872,1.02872v5.429A1.02872,1.02872,0,0,0,332.53305,48.3809Z"/><path class="cls-3" d="M411.78581,70.99314v6.30467a1.02871,1.02871,0,0,1-1.02871,1.02871h-59.054a1.02871,1.02871,0,0,1-1.02871-1.02871V70.99314a1.02871,1.02871,0,0,1,1.02871-1.02871h24.0149a1.02872,1.02872,0,0,0,1.02872-1.02872V64.14376a1.02872,1.02872,0,0,0-1.02872-1.02871H357.70456a1.02871,1.02871,0,0,1-1.02871-1.02872v-6.066a1.02871,1.02871,0,0,1,1.02871-1.02871h18.01339a1.02872,1.02872,0,0,0,1.02872-1.02872V49.96679a1.02871,1.02871,0,0,1,1.02871-1.02872h6.3576a1.02871,1.02871,0,0,1,1.02871,1.02872V53.9629a1.02872,1.02872,0,0,0,1.02872,1.02872h19.04878a1.02872,1.02872,0,0,1,1.02872,1.02871v6.066a1.02872,1.02872,0,0,1-1.02872,1.02872H386.19041a1.02872,1.02872,0,0,0-1.02872,1.02871v4.792a1.02872,1.02872,0,0,0,1.02872,1.02872H410.7571A1.02871,1.02871,0,0,1,411.78581,70.99314ZM357.50886,27.674h-5.59855a1.02871,1.02871,0,0,1-1.02871-1.02872v-13.154a1.02871,1.02871,0,0,1,1.02871-1.02871h24.02055a1.02977,1.02977,0,0,0,.9727-1.36825c-.29182-.83239-.60053-1.65256-.926-2.4024a1.01788,1.01788,0,0,1,.60971-1.374L382.658,5.26318a1.02017,1.02017,0,0,1,1.24772.51788,54.03773,54.03773,0,0,1,2.47343,5.97944,1.02621,1.02621,0,0,0,.9732.702l22.78389,0a1.02871,1.02871,0,0,1,1.02871,1.02871v13.154a1.02871,1.02871,0,0,1-1.02871,1.02872h-5.254a1.02871,1.02871,0,0,0-1.02871,1.02871v4.31373a1.02872,1.02872,0,0,1-1.02872,1.02872l-4.52758,0a1.02721,1.02721,0,0,0-.71265,1.76851,94.65372,94.65372,0,0,1,9.04209,9.83259,1.0293,1.0293,0,0,1-.18889,1.43934l-4.82116,3.73094a1.02188,1.02188,0,0,1-1.47135-.22437c-.74031-1.07465-1.64856-2.31837-2.70066-3.61542a1.04982,1.04982,0,0,0-.905-.37635c-26.81518,2.49373-32.80692,3.0342-35.73083,4.00175a1.02035,1.02035,0,0,1-1.30735-.72627c-.42945-1.70164-1.10274-4.19244-1.7096-6.03955a1.04772,1.04772,0,0,1,.6568-1.30482A14.091,14.091,0,0,0,362.331,39.939c.863-.68546,2.56972-2.14942,4.59215-4.12633a1.03075,1.03075,0,0,0-.71757-1.76751h-6.63932a1.02871,1.02871,0,0,1-1.02871-1.02871V28.70266A1.02871,1.02871,0,0,0,357.50886,27.674Zm1.37415-5.582v2.801a1.02871,1.02871,0,0,0,1.02871,1.02872h41.87856A1.02871,1.02871,0,0,0,402.819,24.893v-2.801a1.02871,1.02871,0,0,0-1.02871-1.02871H359.91172A1.02871,1.02871,0,0,0,358.883,22.09194Zm30.82273,16.48865c-.38361-.37563-.76128-.73991-1.12869-1.09026a1.02479,1.02479,0,0,1,.082-1.552l.06754-.05253a1.02872,1.02872,0,0,0-.63158-1.84073h-8.48988a1.01505,1.01505,0,0,0-.74475.32561c-1.71272,1.84253-3.549,3.61081-5.42088,5.30456a1.02588,1.02588,0,0,0,.76125,1.7874c4.08511-.307,11.2491-.84539,14.87-1.11752A1.0287,1.0287,0,0,0,389.70574,38.58059Z"/></g></g></g></svg>