<svg width="539" height="325" viewBox="0 0 539 325" fill="none" xmlns="http://www.w3.org/2000/svg">
<rect width="538.453" height="324.004" rx="33" fill="#BDCFFE"/>
<path d="M106.209 228.957H132.434C139.89 228.957 145.934 235.001 145.934 242.457V254.012H91.7089V243.457C91.7089 235.449 98.2008 228.957 106.209 228.957Z" fill="#15047C" stroke="#15047C" stroke-width="5"/>
<path d="M83.3482 114.302C93.4254 108.204 104.882 104.79 116.626 104.365V129.651C109.495 130.058 102.559 132.202 96.4269 135.913C89.5805 140.057 83.9988 145.995 80.2868 153.084C76.5748 160.174 74.8741 168.144 75.3691 176.131C75.864 184.119 78.5357 191.818 83.0945 198.395C87.6534 204.972 93.9255 210.176 101.231 213.442C108.537 216.709 116.597 217.913 124.538 216.925C132.479 215.937 139.999 212.794 146.281 207.838C152.106 203.242 156.662 197.249 159.533 190.428L186.586 190.428C184.249 195.917 180.806 202.634 176.878 209.024C172.067 216.852 166.699 223.904 161.928 227.668C152.026 235.481 140.174 240.435 127.657 241.992C115.14 243.549 102.435 241.651 90.9204 236.502C79.4056 231.354 69.5196 223.152 62.334 212.785C55.1484 202.419 50.9373 190.283 50.1572 177.694C49.3771 165.104 52.0577 152.542 57.9085 141.367C63.7593 130.193 72.5571 120.833 83.3482 114.302Z" fill="#FFCB08" stroke="#15047C" stroke-width="5"/>
<rect x="171.706" y="159.209" width="62.3463" height="25.9386" rx="12.9693" transform="rotate(56.2649 171.706 159.209)" fill="white" stroke="#15047C" stroke-width="5"/>
<path d="M67.7977 254.593L170.73 254.593C183.887 254.593 194.552 265.258 194.552 278.415V282.299H43.9755V278.415C43.9755 265.258 54.641 254.593 67.7977 254.593Z" fill="#FFCB08" stroke="#15047C" stroke-width="5"/>
<path d="M149.673 108.504L179.23 136.34L158.789 158.045L129.232 130.209C123.238 124.564 122.955 115.13 128.6 109.136C134.244 103.142 143.679 102.859 149.673 108.504Z" fill="#FFCB08" stroke="#15047C" stroke-width="5"/>
<rect x="64.1937" y="32.8632" width="65.385" height="19.5922" rx="9.7961" transform="rotate(41.5835 64.1937 32.8632)" fill="#FFCB08" stroke="#15047C" stroke-width="5"/>
<path d="M111.984 62.5205L168.259 118.305L139.017 147.804L82.743 92.0186C74.5973 83.9438 74.5398 70.7945 82.6147 62.6488C90.6895 54.5031 103.839 54.4457 111.984 62.5205Z" fill="#FFCB08" stroke="#15047C" stroke-width="5"/>
<rect x="36.1672" y="56.7822" width="56.4992" height="25.9386" rx="12.9693" transform="rotate(-47.4074 36.1672 56.7822)" fill="#FFCB08" stroke="#15047C" stroke-width="5"/>
<path d="M204.855 284.067V251.941H320.806C329.677 251.941 336.869 259.133 336.869 268.004C336.869 276.876 329.677 284.067 320.806 284.067H204.855Z" fill="#BDCFFE" stroke="#15047C" stroke-width="5"/>
<path d="M229.32 284.801C228.1 284.801 227.11 283.811 227.11 282.591V271.983C227.11 270.763 228.1 269.773 229.32 269.773V269.773C230.541 269.773 231.53 270.763 231.53 271.983V282.591C231.53 283.811 230.541 284.801 229.32 284.801V284.801Z" fill="#15047C"/>
<path d="M241.693 284.801C240.472 284.801 239.483 283.811 239.483 282.591V269.331C239.483 268.111 240.472 267.122 241.693 267.122V267.122C242.913 267.122 243.903 268.111 243.903 269.331V282.591C243.903 283.811 242.913 284.801 241.693 284.801V284.801Z" fill="#15047C"/>
<path d="M254.952 285.684C253.731 285.684 252.742 284.694 252.742 283.474V271.982C252.742 270.762 253.731 269.772 254.952 269.772V269.772C256.172 269.772 257.161 270.762 257.161 271.982V283.474C257.161 284.694 256.172 285.684 254.952 285.684V285.684Z" fill="#15047C"/>
<path d="M265.559 286.568C264.339 286.568 263.35 285.579 263.35 284.358V269.331C263.35 268.111 264.339 267.121 265.559 267.121V267.121C266.78 267.121 267.769 268.111 267.769 269.331V284.358C267.769 285.579 266.78 286.568 265.559 286.568V286.568Z" fill="#15047C"/>
<path d="M277.051 285.684C275.831 285.684 274.841 284.694 274.841 283.474V266.678C274.841 265.458 275.831 264.469 277.051 264.469V264.469C278.272 264.469 279.261 265.458 279.261 266.678V283.474C279.261 284.694 278.272 285.684 277.051 285.684V285.684Z" fill="#15047C"/>
<path d="M222.536 151.169H254.662V267.12C254.662 275.991 247.47 283.183 238.599 283.183C229.728 283.183 222.536 275.991 222.536 267.12V151.169Z" fill="#BDCFFE" stroke="#15047C" stroke-width="5"/>
<path d="M221.803 175.628C221.803 174.407 222.793 173.418 224.013 173.418H234.621C235.841 173.418 236.831 174.407 236.831 175.628V175.628C236.831 176.848 235.841 177.838 234.621 177.838H224.013C222.793 177.838 221.803 176.848 221.803 175.628V175.628Z" fill="#15047C"/>
<path d="M221.803 188.004C221.803 186.783 222.793 185.794 224.013 185.794H237.273C238.493 185.794 239.483 186.783 239.483 188.004V188.004C239.483 189.224 238.493 190.214 237.273 190.214H224.013C222.793 190.214 221.803 189.224 221.803 188.004V188.004Z" fill="#15047C"/>
<path d="M220.918 201.267C220.918 200.046 221.907 199.057 223.127 199.057H234.619C235.839 199.057 236.829 200.046 236.829 201.267V201.267C236.829 202.487 235.839 203.476 234.619 203.476H223.127C221.907 203.476 220.918 202.487 220.918 201.267V201.267Z" fill="#15047C"/>
<path d="M220.034 211.872C220.034 210.652 221.023 209.662 222.244 209.662H237.271C238.492 209.662 239.481 210.652 239.481 211.872V211.872C239.481 213.093 238.492 214.082 237.271 214.082H222.244C221.023 214.082 220.034 213.093 220.034 211.872V211.872Z" fill="#15047C"/>
<path d="M220.918 223.362C220.918 222.142 221.907 221.152 223.127 221.152H239.923C241.143 221.152 242.133 222.142 242.133 223.362V223.362C242.133 224.583 241.143 225.572 239.923 225.572H223.127C221.907 225.572 220.918 224.583 220.918 223.362V223.362Z" fill="#15047C"/>
<mask id="path-22-inside-1_314:1769" fill="white">
<path fill-rule="evenodd" clip-rule="evenodd" d="M377.243 166.547H345.827V205.893L301.757 273.54C297.857 279.527 302.153 287.453 309.298 287.453H413.773C420.918 287.453 425.214 279.527 421.314 273.54L377.243 205.891V166.547Z"/>
</mask>
<path fill-rule="evenodd" clip-rule="evenodd" d="M377.243 166.547H345.827V205.893L301.757 273.54C297.857 279.527 302.153 287.453 309.298 287.453H413.773C420.918 287.453 425.214 279.527 421.314 273.54L377.243 205.891V166.547Z" fill="#BDCFFE"/>
<path d="M345.827 166.547V161.547H340.827V166.547H345.827ZM377.243 166.547H382.243V161.547H377.243V166.547ZM345.827 205.893L350.016 208.622L350.827 207.378V205.893H345.827ZM301.757 273.54L305.946 276.269L301.757 273.54ZM421.314 273.54L425.503 270.811L425.503 270.811L421.314 273.54ZM377.243 205.891H372.243V207.376L373.054 208.62L377.243 205.891ZM345.827 171.547H377.243V161.547H345.827V171.547ZM350.827 205.893V166.547H340.827V205.893H350.827ZM305.946 276.269L350.016 208.622L341.637 203.164L297.568 270.811L305.946 276.269ZM309.298 282.453C306.122 282.453 304.213 278.93 305.946 276.269L297.568 270.811C291.501 280.123 298.183 292.453 309.298 292.453V282.453ZM413.773 282.453H309.298V292.453H413.773V282.453ZM417.125 276.269C418.858 278.93 416.949 282.453 413.773 282.453V292.453C424.888 292.453 431.57 280.123 425.503 270.811L417.125 276.269ZM373.054 208.62L417.125 276.269L425.503 270.811L381.432 203.162L373.054 208.62ZM372.243 166.547V205.891H382.243V166.547H372.243Z" fill="#15047C" mask="url(#path-22-inside-1_314:1769)"/>
<rect x="328.166" y="151.514" width="66.4273" height="20.6406" rx="10.3203" fill="white" stroke="#15047C" stroke-width="5"/>
<mask id="path-25-inside-2_314:1769" fill="white">
<path fill-rule="evenodd" clip-rule="evenodd" d="M331.144 228.424L301.757 273.533C297.857 279.52 302.153 287.446 309.298 287.446H413.773C420.918 287.446 425.214 279.52 421.314 273.533L391.927 228.424H331.144Z"/>
</mask>
<path fill-rule="evenodd" clip-rule="evenodd" d="M331.144 228.424L301.757 273.533C297.857 279.52 302.153 287.446 309.298 287.446H413.773C420.918 287.446 425.214 279.52 421.314 273.533L391.927 228.424H331.144Z" fill="#FFCB08"/>
<path d="M301.757 273.533L305.946 276.263L301.757 273.533ZM331.144 228.424V223.424H328.434L326.955 225.695L331.144 228.424ZM421.314 273.533L417.125 276.263L417.125 276.263L421.314 273.533ZM391.927 228.424L396.116 225.695L394.637 223.424H391.927V228.424ZM305.946 276.263L335.334 231.153L326.955 225.695L297.568 270.804L305.946 276.263ZM309.298 282.446C306.122 282.446 304.213 278.923 305.946 276.263L297.568 270.804C291.501 280.117 298.183 292.446 309.298 292.446V282.446ZM413.773 282.446H309.298V292.446H413.773V282.446ZM417.125 276.263C418.858 278.923 416.949 282.446 413.773 282.446V292.446C424.888 292.446 431.57 280.117 425.503 270.804L417.125 276.263ZM387.737 231.153L417.125 276.263L425.503 270.804L396.116 225.695L387.737 231.153ZM391.927 223.424H331.144V233.424H391.927V223.424Z" fill="#15047C" mask="url(#path-25-inside-2_314:1769)"/>
<rect x="433.896" y="151.016" width="61.413" height="18.099" rx="9.04949" fill="white" stroke="#15047C" stroke-width="4"/>
<mask id="path-28-inside-3_314:1769" fill="white">
<path fill-rule="evenodd" clip-rule="evenodd" d="M479.119 164.8H449.948V195.5C430.948 201.797 417.241 219.708 417.241 240.821C417.241 267.184 438.612 288.555 464.974 288.555C491.337 288.555 512.708 267.184 512.708 240.821C512.708 219.383 498.576 201.245 479.119 195.217V164.8Z"/>
</mask>
<path fill-rule="evenodd" clip-rule="evenodd" d="M479.119 164.8H449.948V195.5C430.948 201.797 417.241 219.708 417.241 240.821C417.241 267.184 438.612 288.555 464.974 288.555C491.337 288.555 512.708 267.184 512.708 240.821C512.708 219.383 498.576 201.245 479.119 195.217V164.8Z" fill="#BDCFFE"/>
<path d="M449.948 164.8V160.8H445.948V164.8H449.948ZM479.119 164.8H483.119V160.8H479.119V164.8ZM449.948 195.5L451.206 199.297L453.948 198.389V195.5H449.948ZM479.119 195.217H475.119V198.166L477.935 199.038L479.119 195.217ZM449.948 168.8H479.119V160.8H449.948V168.8ZM453.948 195.5V164.8H445.948V195.5H453.948ZM421.241 240.821C421.241 221.483 433.794 205.067 451.206 199.297L448.69 191.703C428.102 198.526 413.241 217.933 413.241 240.821H421.241ZM464.974 284.555C440.821 284.555 421.241 264.974 421.241 240.821H413.241C413.241 269.393 436.403 292.555 464.974 292.555V284.555ZM508.708 240.821C508.708 264.974 489.128 284.555 464.974 284.555V292.555C493.546 292.555 516.708 269.393 516.708 240.821H508.708ZM477.935 199.038C495.765 204.562 508.708 221.185 508.708 240.821H516.708C516.708 217.58 501.386 197.929 480.302 191.397L477.935 199.038ZM475.119 164.8V195.217H483.119V164.8H475.119Z" fill="#15047C" mask="url(#path-28-inside-3_314:1769)"/>
<mask id="path-30-inside-4_314:1769" fill="white">
<path fill-rule="evenodd" clip-rule="evenodd" d="M449.948 183.364V196.386C430.948 202.682 417.241 220.593 417.241 241.706C417.241 268.069 438.612 289.44 464.975 289.44C491.337 289.44 512.709 268.069 512.709 241.706C512.709 220.268 498.576 202.131 479.119 196.103V183.364H449.948Z"/>
</mask>
<path fill-rule="evenodd" clip-rule="evenodd" d="M449.948 183.364V196.386C430.948 202.682 417.241 220.593 417.241 241.706C417.241 268.069 438.612 289.44 464.975 289.44C491.337 289.44 512.709 268.069 512.709 241.706C512.709 220.268 498.576 202.131 479.119 196.103V183.364H449.948Z" fill="#FFCB08"/>
<path d="M449.948 183.364V179.364H445.948V183.364H449.948ZM449.948 196.386L451.207 200.183L453.948 199.274V196.386H449.948ZM479.119 196.103H475.119V199.051L477.935 199.924L479.119 196.103ZM479.119 183.364H483.119V179.364H479.119V183.364ZM445.948 183.364V196.386H453.948V183.364H445.948ZM448.69 192.589C428.102 199.411 413.241 218.818 413.241 241.706H421.241C421.241 222.369 433.794 205.953 451.207 200.183L448.69 192.589ZM413.241 241.706C413.241 270.278 436.403 293.44 464.975 293.44V285.44C440.821 285.44 421.241 265.86 421.241 241.706H413.241ZM464.975 293.44C493.546 293.44 516.709 270.278 516.709 241.706H508.709C508.709 265.86 489.128 285.44 464.975 285.44V293.44ZM516.709 241.706C516.709 218.466 501.387 198.814 480.303 192.282L477.935 199.924C495.765 205.448 508.709 222.071 508.709 241.706H516.709ZM483.119 196.103V183.364H475.119V196.103H483.119ZM479.119 179.364H449.948V187.364H479.119V179.364Z" fill="#15047C" mask="url(#path-30-inside-4_314:1769)"/>
</svg>
