<svg width="703" height="423" viewBox="0 0 703 423" fill="none" xmlns="http://www.w3.org/2000/svg">
<rect width="702.971" height="423" rx="33" fill="#BDCFFE"/>
<path d="M118.966 312.649C118.966 304.641 125.458 298.149 133.466 298.149H177.787C185.243 298.149 191.287 304.193 191.287 311.649V332.386H118.966V312.649Z" fill="#15047C" stroke="#15047C" stroke-width="5"/>
<path d="M108.419 148.572C121.913 140.405 137.285 135.895 153.023 135.462V169.989C143.586 170.407 134.39 173.188 126.285 178.092C117.466 183.43 110.276 191.079 105.495 200.211C100.713 209.343 98.5224 219.61 99.1599 229.898C99.7974 240.186 103.239 250.104 109.111 258.576C114.984 267.048 123.063 273.751 132.473 277.959C141.883 282.166 152.266 283.718 162.495 282.445C172.725 281.172 182.41 277.124 190.503 270.739C198.139 264.714 204.081 256.826 207.767 247.846L244.746 247.846C241.676 255.239 236.973 264.502 231.572 273.288C225.28 283.524 218.215 292.827 211.876 297.828C198.839 308.115 183.235 314.637 166.755 316.687C150.276 318.737 133.549 316.238 118.389 309.459C103.228 302.681 90.2124 291.882 80.7519 278.233C71.2914 264.585 65.7472 248.607 64.7201 232.032C63.693 215.457 67.2223 198.917 74.9254 184.205C82.6285 169.493 94.2116 157.17 108.419 148.572Z" fill="#FFCB08" stroke="#15047C" stroke-width="5"/>
<rect x="224.381" y="206.792" width="82.9232" height="35.3915" rx="17.6957" transform="rotate(56.2649 224.381 206.792)" fill="white" stroke="#15047C" stroke-width="5"/>
<path d="M56.6484 355.437C56.6484 342.281 67.314 331.615 80.4707 331.615L230.938 331.615C244.094 331.615 254.76 342.281 254.76 355.437V369.315L56.6484 369.315V355.437Z" fill="#FFCB08" stroke="#15047C" stroke-width="5"/>
<path d="M167.336 141.955C174.995 133.823 187.796 133.439 195.928 141.097L235.073 177.962L207.338 207.411L168.194 170.547C160.062 162.888 159.678 150.087 167.336 141.955Z" fill="#FFCB08" stroke="#15047C" stroke-width="5"/>
<rect x="83.7429" y="41.8254" width="86.8903" height="27.1061" rx="13.553" transform="rotate(41.5835 83.7429 41.8254)" fill="#FFCB08" stroke="#15047C" stroke-width="5"/>
<path d="M107.315 81.2496C118.154 70.3155 135.804 70.2384 146.738 81.0774L220.749 154.445L181.498 194.04L107.487 120.673C96.5526 109.834 96.4755 92.1837 107.315 81.2496Z" fill="#FFCB08" stroke="#15047C" stroke-width="5"/>
<rect x="46.1389" y="74.1752" width="75.2896" height="35.3915" rx="17.6957" transform="rotate(-47.4074 46.1389 74.1752)" fill="#FFCB08" stroke="#15047C" stroke-width="5"/>
<path d="M266.683 371.623V328.153H422.059C432.277 328.153 440.559 336.436 440.559 346.653V353.123C440.559 363.34 432.277 371.623 422.059 371.623H266.683Z" fill="#BDCFFE" stroke="#15047C" stroke-width="5"/>
<path d="M299.386 371.815C297.793 371.815 296.501 370.523 296.501 368.93V355.082C296.501 353.488 297.793 352.196 299.386 352.196C300.979 352.196 302.271 353.488 302.271 355.082V368.93C302.271 370.523 300.979 371.815 299.386 371.815Z" fill="#15047C"/>
<path d="M315.539 371.815C313.946 371.815 312.654 370.523 312.654 368.93V351.619C312.654 350.026 313.946 348.734 315.539 348.734C317.133 348.734 318.425 350.026 318.425 351.619V368.93C318.425 370.523 317.133 371.815 315.539 371.815Z" fill="#15047C"/>
<path d="M332.849 372.968C331.256 372.968 329.964 371.677 329.964 370.083V355.081C329.964 353.487 331.256 352.196 332.849 352.196C334.442 352.196 335.734 353.487 335.734 355.081V370.083C335.734 371.677 334.442 372.968 332.849 372.968Z" fill="#15047C"/>
<path d="M346.699 374.123C345.105 374.123 343.813 372.831 343.813 371.238V351.619C343.813 350.025 345.105 348.734 346.699 348.734C348.292 348.734 349.584 350.025 349.584 351.619V371.238C349.584 372.831 348.292 374.123 346.699 374.123Z" fill="#15047C"/>
<path d="M361.702 372.968C360.108 372.968 358.816 371.677 358.816 370.083V348.156C358.816 346.563 360.108 345.271 361.702 345.271C363.295 345.271 364.587 346.563 364.587 348.156V370.083C364.587 371.677 363.295 372.968 361.702 372.968Z" fill="#15047C"/>
<path d="M289.765 196.593H333.234V351.97C333.234 362.187 324.952 370.47 314.734 370.47H308.265C298.047 370.47 289.765 362.187 289.765 351.97V196.593Z" fill="#BDCFFE" stroke="#15047C" stroke-width="5"/>
<path d="M289.574 229.291C289.574 227.698 290.866 226.406 292.459 226.406H306.308C307.901 226.406 309.193 227.698 309.193 229.291C309.193 230.884 307.901 232.176 306.308 232.176H292.459C290.866 232.176 289.574 230.884 289.574 229.291Z" fill="#15047C"/>
<path d="M289.574 245.448C289.574 243.855 290.866 242.563 292.459 242.563H309.77C311.363 242.563 312.655 243.855 312.655 245.448C312.655 247.042 311.363 248.334 309.77 248.334H292.459C290.866 248.334 289.574 247.042 289.574 245.448Z" fill="#15047C"/>
<path d="M288.417 262.759C288.417 261.166 289.709 259.874 291.302 259.874H306.305C307.898 259.874 309.19 261.166 309.19 262.759C309.19 264.352 307.898 265.644 306.305 265.644H291.302C289.709 265.644 288.417 264.352 288.417 262.759Z" fill="#15047C"/>
<path d="M287.264 276.606C287.264 275.013 288.555 273.721 290.149 273.721H309.768C311.361 273.721 312.653 275.013 312.653 276.606C312.653 278.2 311.361 279.491 309.768 279.491H290.149C288.555 279.491 287.264 278.2 287.264 276.606Z" fill="#15047C"/>
<path d="M288.417 291.61C288.417 290.017 289.709 288.725 291.302 288.725H313.229C314.822 288.725 316.114 290.017 316.114 291.61C316.114 293.203 314.822 294.495 313.229 294.495H291.302C289.709 294.495 288.417 293.203 288.417 291.61Z" fill="#15047C"/>
<mask id="path-22-inside-1_258:163" fill="white">
<path fill-rule="evenodd" clip-rule="evenodd" d="M492.506 217.432H451.491V268.798L391.187 361.365C387.287 367.352 391.583 375.278 398.728 375.278H545.271C552.416 375.278 556.712 367.352 552.812 361.365L492.506 268.796V217.432Z"/>
</mask>
<path fill-rule="evenodd" clip-rule="evenodd" d="M492.506 217.432H451.491V268.798L391.187 361.365C387.287 367.352 391.583 375.278 398.728 375.278H545.271C552.416 375.278 556.712 367.352 552.812 361.365L492.506 268.796V217.432Z" fill="#BDCFFE"/>
<path d="M451.491 217.432V212.432H446.491V217.432H451.491ZM492.506 217.432H497.506V212.432H492.506V217.432ZM451.491 268.798L455.681 271.528L456.491 270.283V268.798H451.491ZM391.187 361.365L395.376 364.094L391.187 361.365ZM552.812 361.365L557.001 358.636L552.812 361.365ZM492.506 268.796H487.506V270.281L488.317 271.526L492.506 268.796ZM451.491 222.432H492.506V212.432H451.491V222.432ZM456.491 268.798V217.432H446.491V268.798H456.491ZM395.376 364.094L455.681 271.528L447.302 266.069L386.997 358.636L395.376 364.094ZM398.728 370.278C395.552 370.278 393.643 366.755 395.376 364.094L386.997 358.636C380.93 367.949 387.613 380.278 398.728 380.278V370.278ZM545.271 370.278H398.728V380.278H545.271V370.278ZM548.622 364.094C550.356 366.755 548.447 370.278 545.271 370.278V380.278C556.386 380.278 563.068 367.949 557.001 358.636L548.622 364.094ZM488.317 271.526L548.622 364.094L557.001 358.636L496.696 266.067L488.317 271.526ZM487.506 217.432V268.796H497.506V217.432H487.506Z" fill="#15047C" mask="url(#path-22-inside-1_258:163)"/>
<rect x="427.67" y="197.043" width="88.2511" height="28.4748" rx="14.2374" fill="white" stroke="#15047C" stroke-width="5"/>
<mask id="path-25-inside-2_258:163" fill="white">
<path fill-rule="evenodd" clip-rule="evenodd" d="M432.324 298.215L391.187 361.361C387.287 367.348 391.583 375.274 398.728 375.274H545.271C552.416 375.274 556.712 367.348 552.812 361.361L511.674 298.215H432.324Z"/>
</mask>
<path fill-rule="evenodd" clip-rule="evenodd" d="M432.324 298.215L391.187 361.361C387.287 367.348 391.583 375.274 398.728 375.274H545.271C552.416 375.274 556.712 367.348 552.812 361.361L511.674 298.215H432.324Z" fill="#FFCB08"/>
<path d="M391.187 361.361L395.376 364.091L391.187 361.361ZM432.324 298.215V293.215H429.614L428.135 295.486L432.324 298.215ZM552.812 361.361L557.001 358.632V358.632L552.812 361.361ZM511.674 298.215L515.864 295.486L514.384 293.215H511.674V298.215ZM395.376 364.091L436.514 300.945L428.135 295.486L386.997 358.632L395.376 364.091ZM398.728 370.274C395.552 370.274 393.643 366.751 395.376 364.091L386.997 358.632C380.93 367.945 387.613 380.274 398.728 380.274V370.274ZM545.271 370.274H398.728V380.274H545.271V370.274ZM548.622 364.091C550.356 366.751 548.447 370.274 545.271 370.274V380.274C556.386 380.274 563.068 367.945 557.001 358.632L548.622 364.091ZM507.485 300.945L548.622 364.091L557.001 358.632L515.864 295.486L507.485 300.945ZM511.674 293.215H432.324V303.215H511.674V293.215Z" fill="#15047C" mask="url(#path-25-inside-2_258:163)"/>
<rect x="565.857" y="196.545" width="81.3992" height="24.8511" rx="12.4255" fill="white" stroke="#15047C" stroke-width="4"/>
<mask id="path-28-inside-3_258:163" fill="white">
<path fill-rule="evenodd" clip-rule="evenodd" d="M625.509 215.151H587.425V255.231C562.62 263.452 544.725 286.836 544.725 314.399C544.725 348.817 572.625 376.718 607.043 376.718C641.46 376.718 669.361 348.817 669.361 314.399C669.361 286.411 650.911 262.732 625.509 254.862V215.151Z"/>
</mask>
<path fill-rule="evenodd" clip-rule="evenodd" d="M625.509 215.151H587.425V255.231C562.62 263.452 544.725 286.836 544.725 314.399C544.725 348.817 572.625 376.718 607.043 376.718C641.46 376.718 669.361 348.817 669.361 314.399C669.361 286.411 650.911 262.732 625.509 254.862V215.151Z" fill="#BDCFFE"/>
<path d="M587.425 215.151V211.151H583.425V215.151H587.425ZM625.509 215.151H629.509V211.151H625.509V215.151ZM587.425 255.231L588.684 259.028L591.425 258.12V255.231H587.425ZM625.509 254.862H621.509V257.811L624.325 258.683L625.509 254.862ZM587.425 219.151H625.509V211.151H587.425V219.151ZM591.425 255.231V215.151H583.425V255.231H591.425ZM548.725 314.399C548.725 288.611 565.466 266.723 588.684 259.028L586.167 251.435C559.774 260.181 540.725 285.06 540.725 314.399H548.725ZM607.043 372.718C574.835 372.718 548.725 346.608 548.725 314.399H540.725C540.725 351.026 570.416 380.718 607.043 380.718V372.718ZM665.361 314.399C665.361 346.608 639.251 372.718 607.043 372.718V380.718C643.67 380.718 673.361 351.026 673.361 314.399H665.361ZM624.325 258.683C648.1 266.049 665.361 288.214 665.361 314.399H673.361C673.361 284.609 653.721 259.415 626.693 251.042L624.325 258.683ZM621.509 215.151V254.862H629.509V215.151H621.509Z" fill="#15047C" mask="url(#path-28-inside-3_258:163)"/>
<mask id="path-30-inside-4_258:163" fill="white">
<path fill-rule="evenodd" clip-rule="evenodd" d="M587.425 239.386V256.387C562.62 264.607 544.725 287.991 544.725 315.555C544.725 349.972 572.625 377.873 607.043 377.873C641.46 377.873 669.361 349.972 669.361 315.555C669.361 287.567 650.911 263.888 625.509 256.018V239.386H587.425Z"/>
</mask>
<path fill-rule="evenodd" clip-rule="evenodd" d="M587.425 239.386V256.387C562.62 264.607 544.725 287.991 544.725 315.555C544.725 349.972 572.625 377.873 607.043 377.873C641.46 377.873 669.361 349.972 669.361 315.555C669.361 287.567 650.911 263.888 625.509 256.018V239.386H587.425Z" fill="#FFCB08"/>
<path d="M587.425 239.386V235.386H583.425V239.386H587.425ZM587.425 256.387L588.684 260.184L591.425 259.275V256.387H587.425ZM625.509 256.018H621.509V258.966L624.325 259.839L625.509 256.018ZM625.509 239.386H629.509V235.386H625.509V239.386ZM583.425 239.386V256.387H591.425V239.386H583.425ZM586.167 252.59C559.774 261.336 540.725 286.216 540.725 315.555H548.725C548.725 289.767 565.466 267.878 588.684 260.184L586.167 252.59ZM540.725 315.555C540.725 352.181 570.416 381.873 607.043 381.873V373.873C574.835 373.873 548.725 347.763 548.725 315.555H540.725ZM607.043 381.873C643.67 381.873 673.361 352.181 673.361 315.555H665.361C665.361 347.763 639.251 373.873 607.043 373.873V381.873ZM673.361 315.555C673.361 285.764 653.721 260.571 626.693 252.197L624.325 259.839C648.1 267.204 665.361 289.369 665.361 315.555H673.361ZM629.509 256.018V239.386H621.509V256.018H629.509ZM625.509 235.386H587.425V243.386H625.509V235.386Z" fill="#15047C" mask="url(#path-30-inside-4_258:163)"/>
</svg>
