<svg width="485" height="99" viewBox="0 0 485 99" fill="none" xmlns="http://www.w3.org/2000/svg">
<g clip-path="url(#clip0_679:2368)">
<path d="M11.1221 30.3703L64.7938 99L485 3.27686L11.1221 30.3703Z" fill="#D84618"/>
<path d="M43.5124 92.4983C41.9787 92.4929 40.4923 91.9669 39.2959 91.0063C38.0996 90.0457 37.2642 88.7073 36.9263 87.21C36.3115 84.6908 35.4973 82.2245 34.4914 79.8347C33.8453 78.2988 33.7902 76.5779 34.3368 75.0038C34.8833 73.4298 35.9928 72.114 37.4513 71.3102H26.7556C26.7015 73.0633 25.9682 74.7265 24.7109 75.9482C23.4536 77.1699 21.7709 77.8542 20.0186 77.8564H13.5965C11.8096 77.8545 10.0965 77.1431 8.83297 75.8784C7.56946 74.6138 6.85876 72.8991 6.85681 71.1106V33.4545C6.85642 32.4799 7.06743 31.5169 7.47525 30.6319C7.88307 29.747 8.47798 28.9612 9.21888 28.3288H6.73968C4.9527 28.3266 3.23955 27.6151 1.97606 26.3502C0.712576 25.0854 0.00192154 23.3706 0 21.5819L0 13.4715C0.00191297 11.6829 0.712564 9.96809 1.97605 8.70324C3.23954 7.43839 4.95269 6.72681 6.73968 6.72461H71.6673C73.4543 6.72681 75.1674 7.43839 76.4309 8.70323C77.6944 9.96807 78.4051 11.6829 78.407 13.4715V21.5819C78.4051 23.3705 77.6944 25.0853 76.4309 26.3502C75.1674 27.615 73.4543 28.3266 71.6673 28.3288H69.8365V74.032C69.8365 80.0163 68.8963 86.5963 61.9202 90.0268L61.7989 90.0849C57.023 92.2934 50.9586 92.4814 43.5272 92.4983H43.5124ZM45.9305 70.6258C46.9757 70.6395 48.0836 70.6469 49.2634 70.648V66.9894C48.6477 68.5772 47.458 69.8752 45.9305 70.6258H45.9305ZM29.6633 50.2225V47.7087H26.7582V50.2225H29.6633ZM47.3514 28.3288C48.2023 29.0567 48.8593 29.9847 49.2634 31.0295L49.2639 28.3288H47.3514Z" fill="#15047C"/>
<path d="M138.292 92.9196C136.96 92.9221 135.657 92.5308 134.546 91.7948C134.159 91.8632 133.766 91.8975 133.373 91.8972H128.516C127.37 91.8983 126.243 91.6056 125.243 91.047C124.242 91.6056 123.115 91.8983 121.97 91.8972H117.113C116.26 91.8978 115.415 91.7358 114.623 91.4198C113.484 92.2358 112.117 92.6739 110.716 92.6725H104.965C103.178 92.6703 101.465 91.9587 100.201 90.6939C98.9376 89.429 98.2269 87.7142 98.225 85.9256V78.7235C94.8098 79.8472 91.3698 80.9615 88.2173 81.9828L83.6371 83.4689C82.7153 83.7696 81.7394 83.8674 80.7763 83.7557C79.8132 83.644 78.8856 83.3253 78.0569 82.8216C77.2283 82.3178 76.5181 81.6408 75.975 80.8368C75.432 80.0329 75.0688 79.1211 74.9105 78.1637L73.6532 70.6373C73.3654 68.9671 73.7199 67.2498 74.6453 65.8305C75.5707 64.4112 76.9985 63.3951 78.6417 62.9863C79.3092 62.8162 79.9966 62.6335 80.7105 62.4381V51.2321C78.9829 51.1451 77.3546 50.3975 76.1619 49.1435C74.9691 47.8895 74.303 46.225 74.3011 44.4936V37.3306C74.3031 35.5993 74.9692 33.935 76.162 32.6812C77.3547 31.4274 78.983 30.6799 80.7105 30.5932V26.6917H80.519C78.7321 26.6897 77.0189 25.9784 75.7554 24.7137C74.4919 23.449 73.7812 21.7343 73.7793 19.9458V12.6096C73.7812 10.821 74.4919 9.10614 75.7553 7.8413C77.0188 6.57645 78.732 5.86488 80.519 5.86268H100.282C100.798 5.86251 101.313 5.92169 101.816 6.03905C103.006 5.08785 104.485 4.57047 106.008 4.57202H111.76C113.047 4.57088 114.308 4.94046 115.391 5.63665C115.829 4.27768 116.686 3.09259 117.839 2.25143C118.992 1.41026 120.381 0.956271 121.808 0.95459H127.783C129.248 0.956398 130.672 1.43467 131.841 2.3173C133.01 3.19993 133.861 4.43907 134.265 5.84789C135.411 5.01693 136.79 4.5703 138.205 4.57202H144.329C146.116 4.57397 147.829 5.28532 149.092 6.54998C150.356 7.81465 151.066 9.52935 151.068 11.3179V31.0569C151.069 31.5218 151.021 31.9854 150.926 32.4405C151.736 33.0702 152.392 33.877 152.843 34.7993C153.294 35.7215 153.528 36.7347 153.528 37.7615V44.7524C153.53 46.414 152.916 48.0174 151.806 49.2528C152.35 50.2451 152.634 51.3591 152.633 52.491V77.6493C152.633 81.5699 152.122 86.4737 148.163 89.7183C145.046 92.4031 141.509 92.8436 138.455 92.9175L138.292 92.9196Z" fill="#15047C"/>
<path d="M167.116 92.6725C165.329 92.6703 163.616 91.9587 162.352 90.6938C161.089 89.429 160.378 87.7142 160.376 85.9256V69.8695L158.93 70.2993C158.036 70.5661 157.096 70.6441 156.17 70.5282C155.244 70.4124 154.353 70.1054 153.552 69.6266C152.751 69.1478 152.058 68.5076 151.517 67.7467C150.976 66.9858 150.6 66.1208 150.41 65.2064L148.719 57.0506C148.363 55.3098 148.706 53.4989 149.673 52.0089C150.64 50.5189 152.154 49.4694 153.887 49.087C154.225 49.013 154.571 48.9366 154.926 48.8578C153.852 48.3613 152.604 47.8195 151.607 47.4193C150.032 46.7764 148.756 45.5629 148.035 44.0206C147.313 42.4783 147.199 40.7205 147.715 39.0976C149.447 33.691 150.761 25.0377 151.513 14.0703C151.578 13.1247 151.841 12.2033 152.285 11.3662C152.729 10.5292 153.345 9.79527 154.091 9.21241C154.838 8.62957 155.699 8.21087 156.618 7.98364C157.538 7.75642 158.495 7.72578 159.427 7.89372L160.376 8.06482V7.78599C160.378 5.99737 161.089 4.28255 162.352 3.0177C163.616 1.75286 165.329 1.04129 167.116 1.03909H173.315C175.102 1.04139 176.815 1.75301 178.078 3.01784C179.342 4.28268 180.052 5.99745 180.054 7.78599V9.92581C181.207 9.07625 182.602 8.61877 184.034 8.6204H191.305V7.70044C191.307 5.91187 192.018 4.19716 193.282 2.9325C194.545 1.66784 196.259 0.956519 198.046 0.95459H204.616C206.403 0.956522 208.117 1.66783 209.38 2.93247C210.644 4.19712 211.355 5.91183 211.357 7.70044V8.62037H219.523C221.31 8.62229 223.023 9.33363 224.287 10.5983C225.551 11.863 226.261 13.5777 226.263 15.3662V22.4427C226.262 23.6658 225.93 24.8658 225.301 25.9145C224.672 26.9631 223.77 27.8209 222.691 28.3964C223.371 29.4713 223.731 30.7175 223.73 31.9895V39.2402C223.731 40.4768 223.391 41.6897 222.746 42.7446C224.215 43.1025 225.522 43.9432 226.457 45.1324C227.392 46.3215 227.901 47.7903 227.903 49.3035V56.4676C227.901 58.2562 227.19 59.9709 225.926 61.2355C224.662 62.5002 222.949 63.2115 221.162 63.2134H220.748V75.5824C220.748 79.035 220.748 86.2202 214.024 89.9105C210.33 91.932 205.699 92.3704 199.878 92.4094H199.833C198.232 92.4165 196.682 91.8499 195.462 90.8121C194.242 89.7744 193.434 88.334 193.183 86.7515C192.775 84.4781 192.194 82.2394 191.443 80.0553C190.365 79.3887 189.497 78.4319 188.937 77.2944C186.997 73.6155 184.76 70.101 182.249 66.7854C181.595 65.9112 181.161 64.8916 180.985 63.8134L180.054 64.0933V85.9256C180.052 87.7141 179.342 89.4289 178.078 90.6937C176.815 91.9585 175.102 92.6702 173.315 92.6725H167.116ZM180.054 42.9516C180.405 42.9722 180.753 43.0206 181.096 43.0963C181.139 43.0773 181.183 43.0593 181.226 43.0414C180.495 41.9747 180.088 40.7191 180.054 39.4261L180.054 42.9516Z" fill="#15047C"/>
<path d="M234.925 93.0686C233.738 93.0667 232.572 92.7512 231.546 92.1538C230.52 91.5565 229.669 90.6985 229.08 89.6666C228.216 88.1855 227.271 86.7533 226.249 85.3764C225.566 84.4546 225.129 83.3734 224.98 82.2352C224.832 81.0971 224.976 79.9398 225.399 78.8731C225.823 77.8063 226.511 76.8656 227.4 76.1399C228.288 75.4143 229.347 74.9279 230.476 74.7269C231.298 74.5801 232.13 74.4195 232.963 74.2474C232.963 74.2073 232.961 48.4427 232.961 48.4427C232.96 46.9415 233.461 45.483 234.385 44.3004C234.369 44.1166 234.361 43.9318 234.36 43.7469H230.013C228.226 43.745 226.513 43.0337 225.249 41.7691C223.986 40.5044 223.275 38.7897 223.272 37.0011V31.9039C223.272 30.9919 223.457 30.0893 223.816 29.251C224.175 28.4127 224.701 27.6562 225.361 27.0275V14.6776C225.363 12.889 226.073 11.1742 227.337 9.90935C228.6 8.64451 230.313 7.93293 232.1 7.93073H250.93C251.137 6.7156 251.672 5.58053 252.479 4.64903C253.285 3.71754 254.332 3.02532 255.504 2.6477L261.172 0.820505C262.683 0.331944 264.317 0.393523 265.787 0.994366C267.257 1.59521 268.468 2.69666 269.205 4.10417C269.734 5.11177 270.4 6.44569 271.053 7.93073H293.301C295.088 7.93293 296.801 8.6445 298.065 9.90934C299.328 11.1742 300.039 12.889 300.041 14.6776V26.7593C300.788 27.3918 301.389 28.1797 301.8 29.0682C302.212 29.9567 302.426 30.9245 302.426 31.904V37.0011C302.424 38.7896 301.713 40.5043 300.449 41.769C299.186 43.0336 297.473 43.745 295.686 43.7469H290.906C292.129 45.0034 292.813 46.6886 292.811 48.4427V74.1249C292.811 74.277 292.806 74.428 292.796 74.577C293.494 74.8241 294.167 75.066 294.81 75.2994C295.865 75.6818 296.808 76.3221 297.553 77.1622C298.299 78.0022 298.822 79.0154 299.076 80.1096C299.33 81.2037 299.307 82.3441 299.009 83.427C298.71 84.5099 298.146 85.501 297.368 86.3101L293.037 90.82C292.09 91.8068 290.866 92.4817 289.526 92.7547C288.187 93.0277 286.796 92.886 285.539 92.3483C282.499 91.0461 274.487 87.7243 265.664 84.9656C264.598 84.6333 263.631 84.041 262.851 83.2419C262.307 83.8747 261.65 84.4005 260.913 84.7924C253.084 88.6947 244.734 91.4462 236.12 92.9619C235.726 93.0328 235.326 93.0685 234.925 93.0686Z" fill="#15047C"/>
<path d="M320.246 92.3527C318.59 92.3308 317 91.6985 315.78 90.5766C314.56 89.4548 313.797 87.9222 313.636 86.2722C313.543 85.397 313.388 84.5294 313.173 83.6761L312.609 83.7511C312.315 83.7899 312.019 83.8093 311.723 83.8092C311.574 83.8092 311.425 83.8039 311.277 83.7944C310.382 84.9561 309.134 85.7944 307.72 86.1826C306.307 86.5708 304.806 86.4877 303.444 85.9459L300.78 84.8876C299.255 84.2766 298.004 83.1306 297.262 81.6638C296.52 80.1971 296.336 78.5099 296.746 76.9176C297.917 71.8628 298.753 66.7362 299.25 61.5713C299.36 60.4761 299.737 59.4247 300.348 58.5094C300.188 57.9282 300.108 57.3282 300.108 56.7255V10.9738C300.11 9.18516 300.821 7.47034 302.084 6.20549C303.348 4.94065 305.061 4.22908 306.848 4.22688H330.413C332.2 4.22908 333.913 4.94065 335.176 6.20549C336.44 7.47034 337.151 9.18516 337.152 10.9738V12.8232C339.804 10.028 342.113 6.92588 344.03 3.58264C344.828 2.14823 346.121 1.05474 347.668 0.507636C349.214 -0.0394655 350.907 -0.00250641 352.428 0.611568L358.28 2.97214C359.624 3.51498 360.757 4.47653 361.512 5.71437C362.267 6.95221 362.603 8.4005 362.471 9.84472C365.927 12.8411 369.758 15.3746 373.867 17.3816C375.475 18.1437 376.718 19.5089 377.328 21.1819C377.937 22.8548 377.864 24.7008 377.124 26.3201C376.271 28.2781 375.567 30.2976 375.018 32.3615C374.74 33.4125 374.21 34.38 373.475 35.1804C374.235 36.2964 374.641 37.6161 374.64 38.9669V57.6729C374.639 59.0075 374.242 60.3118 373.501 61.4212C372.76 62.5305 371.707 63.3954 370.475 63.9065C370.152 65.871 369.796 67.7141 369.397 69.4726C371.378 71.0733 373.274 72.7772 375.077 74.5771C376.198 75.7208 376.874 77.2277 376.983 78.8262C377.092 80.4246 376.626 82.0094 375.671 83.2949L371.917 88.3889C371.321 89.196 370.554 89.8602 369.67 90.3329C368.785 90.8056 367.807 91.0749 366.806 91.1214C365.805 91.1678 364.806 90.9902 363.882 90.6013C362.958 90.2125 362.132 89.6223 361.465 88.8737C361.448 88.8546 361.431 88.8346 361.413 88.8156C361.305 88.9729 361.197 89.1292 361.087 89.2824C360.462 90.1608 359.637 90.8773 358.68 91.3723C357.723 91.8674 356.661 92.1267 355.584 92.1288C354.688 92.1312 353.801 91.9534 352.975 91.6059C352.149 91.2585 351.402 90.7485 350.776 90.1062C349.514 88.8515 348.174 87.6772 346.766 86.5902C346.664 86.5131 346.565 86.4328 346.469 86.3494C345.589 86.2127 344.745 85.9029 343.985 85.4379C343.152 86.8344 342.239 88.1822 341.252 89.4746C340.664 90.2429 339.919 90.8759 339.066 91.3306C338.212 91.7852 337.271 92.051 336.306 92.1099C335.342 92.1688 334.375 92.0194 333.473 91.6719C332.571 91.3244 331.754 90.7868 331.078 90.0956C329.718 91.0254 328.168 91.637 326.54 91.8848C324.704 92.2324 322.837 92.3909 320.969 92.358L320.246 92.3527Z" fill="#15047C"/>
<path d="M380.03 90.3459C378.243 90.3439 376.53 89.6326 375.266 88.3679C374.003 87.1033 373.292 85.3886 373.29 83.6001V76.7813C373.292 74.9928 374.003 73.2781 375.266 72.0135C376.53 70.7488 378.243 70.0374 380.03 70.0355H380.424C379.996 69.1333 379.774 68.1468 379.775 67.1479V60.5879C379.776 59.4542 380.062 58.3388 380.606 57.3447C381.151 56.3507 381.937 55.5101 382.893 54.9004C382.442 53.1397 381.808 50.8288 381.262 49.1695C380.768 47.6603 380.821 46.0249 381.411 44.5508C382.002 43.0767 383.094 41.8583 384.493 41.1098C383.653 40.4824 382.971 39.6675 382.501 38.7298C382.031 37.7921 381.787 36.7575 381.787 35.7085V35.5638H380.254C378.467 35.5619 376.754 34.8506 375.491 33.5859C374.227 32.3213 373.516 30.6066 373.514 28.818V14.5912C373.516 12.8026 374.227 11.0878 375.491 9.8232C376.754 8.55856 378.467 7.84725 380.254 7.84533H400.633C400.725 7.28794 400.888 6.74457 401.117 6.22831C401.496 5.3779 402.046 4.61492 402.733 3.98718C403.42 3.35944 404.229 2.88048 405.109 2.58031L411.674 0.356992C413.227 -0.170411 414.92 -0.111786 416.433 0.521853C417.947 1.15549 419.177 2.32052 419.893 3.79804C420.529 5.11087 421.138 6.48813 421.687 7.84533H443.17C444.957 7.84728 446.67 8.55863 447.933 9.8233C449.197 11.088 449.908 12.8027 449.909 14.5912V28.818C449.908 30.6065 449.197 32.3212 447.933 33.5858C446.67 34.8505 444.957 35.5618 443.17 35.5638H442.009V35.7085C442.009 36.6977 441.792 37.6748 441.372 38.5704C440.952 39.466 440.34 40.258 439.58 40.8901C441.084 42.5356 442.585 44.2826 443.859 45.9608C444.929 47.3784 445.4 49.1604 445.169 50.9222C444.937 52.6839 444.023 54.2839 442.623 55.3767L442.376 55.5679C443.082 56.1996 443.647 56.9732 444.033 57.8383C444.419 58.7034 444.619 59.6403 444.619 60.5879V67.1479C444.62 68.1472 444.398 69.1342 443.969 70.0365C445.733 70.0722 447.413 70.7982 448.649 72.059C449.885 73.3198 450.578 75.015 450.581 76.7813V83.6C450.579 85.3885 449.868 87.1032 448.604 88.3679C447.341 89.6326 445.628 90.3439 443.841 90.3459L380.03 90.3459Z" fill="#15047C"/>
<path d="M71.6683 22.6953H65.3207C65.1747 22.6953 65.0302 22.7241 64.8953 22.78C64.7605 22.8359 64.6379 22.9178 64.5347 23.0212C64.4315 23.1245 64.3496 23.2471 64.2937 23.3821C64.2379 23.5171 64.2091 23.6618 64.2091 23.8079V74.0318C64.2091 80.2335 62.942 83.2484 59.4392 84.9708C55.8646 86.6239 50.6446 86.8494 43.5153 86.865C43.2625 86.8672 43.0166 86.7829 42.8183 86.6261C42.6199 86.4693 42.481 86.2494 42.4246 86.0028C41.7371 83.148 40.8188 80.3539 39.6789 77.6481C39.6061 77.4757 39.5781 77.2876 39.5978 77.1014C39.6174 76.9152 39.6839 76.7371 39.7911 76.5837C39.8983 76.4303 40.0427 76.3067 40.2107 76.2244C40.3786 76.1421 40.5647 76.1039 40.7515 76.1133C45.6238 76.3396 50.9187 76.2714 52.5078 76.2714C54.2219 76.2714 54.8928 75.6688 54.8928 73.8591V23.8079C54.8928 23.5128 54.7757 23.2298 54.5672 23.0212C54.3587 22.8125 54.076 22.6953 53.7812 22.6953H6.74047C6.5945 22.6953 6.44996 22.6665 6.31509 22.6106C6.18023 22.5547 6.05769 22.4727 5.95448 22.3694C5.85126 22.2661 5.76938 22.1435 5.71352 22.0085C5.65766 21.8735 5.62891 21.7288 5.62891 21.5827V13.4715C5.6289 13.3254 5.65766 13.1807 5.71352 13.0457C5.76938 12.9107 5.85125 12.7881 5.95447 12.6848C6.05769 12.5814 6.18023 12.4995 6.31509 12.4436C6.44995 12.3877 6.5945 12.3589 6.74047 12.3589H71.6683C71.8143 12.3589 71.9588 12.3877 72.0937 12.4436C72.2285 12.4995 72.3511 12.5814 72.4543 12.6848C72.5575 12.7881 72.6394 12.9107 72.6953 13.0457C72.7511 13.1807 72.7799 13.3254 72.7799 13.4715V21.5827C72.7799 21.7288 72.7511 21.8735 72.6952 22.0085C72.6394 22.1435 72.5575 22.2661 72.4543 22.3694C72.3511 22.4727 72.2285 22.5547 72.0937 22.6106C71.9588 22.6665 71.8143 22.6953 71.6683 22.6953ZM21.131 66.7895V71.1105C21.131 71.2566 21.1022 71.4013 21.0464 71.5362C20.9905 71.6712 20.9086 71.7939 20.8054 71.8972C20.7022 72.0005 20.5797 72.0825 20.4448 72.1384C20.3099 72.1943 20.1654 72.2231 20.0194 72.2231H13.5972C13.4512 72.2231 13.3066 72.1943 13.1718 72.1384C13.0369 72.0825 12.9144 72.0005 12.8112 71.8972C12.7079 71.7939 12.6261 71.6712 12.5702 71.5362C12.5143 71.4013 12.4856 71.2566 12.4856 71.1105V33.4543C12.4856 33.3082 12.5143 33.1636 12.5702 33.0286C12.6261 32.8936 12.7079 32.7709 12.8112 32.6676C12.9144 32.5643 13.0369 32.4824 13.1718 32.4264C13.3066 32.3705 13.4512 32.3418 13.5972 32.3418H42.9744C43.1204 32.3418 43.2649 32.3705 43.3998 32.4264C43.5347 32.4824 43.6572 32.5643 43.7604 32.6676C43.8636 32.7709 43.9455 32.8936 44.0014 33.0286C44.0572 33.1636 44.086 33.3082 44.086 33.4543V64.5643C44.086 64.8594 43.9689 65.1424 43.7604 65.351C43.552 65.5597 43.2692 65.6769 42.9744 65.6769H22.2425C22.0966 65.6769 21.952 65.7057 21.8172 65.7616C21.6823 65.8175 21.5598 65.8995 21.4565 66.0028C21.3533 66.1061 21.2714 66.2287 21.2156 66.3637C21.1597 66.4987 21.131 66.6434 21.131 66.7895ZM21.131 43.1881V54.7442C21.131 55.0393 21.2481 55.3222 21.4566 55.5309C21.665 55.7395 21.9477 55.8568 22.2425 55.8568H34.1802C34.3262 55.8568 34.4707 55.828 34.6056 55.7721C34.7404 55.7162 34.863 55.6342 34.9662 55.5309C35.0694 55.4276 35.1513 55.3049 35.2072 55.17C35.263 55.035 35.2918 54.8903 35.2918 54.7442V43.1881C35.2918 43.042 35.263 42.8974 35.2072 42.7624C35.1513 42.6274 35.0694 42.5047 34.9662 42.4014C34.863 42.2981 34.7404 42.2162 34.6056 42.1602C34.4707 42.1043 34.3262 42.0756 34.1802 42.0756H22.2425C21.9477 42.0756 21.665 42.1928 21.4566 42.4014C21.2481 42.6101 21.131 42.8931 21.131 43.1881Z" fill="#FFCB08"/>
<path d="M101.095 63.6383L101.888 70.6392C101.917 70.8917 101.859 71.1468 101.723 71.3616C101.588 71.5764 101.382 71.7379 101.141 71.819C94.6773 73.988 87.7416 76.2101 81.896 78.1126C81.7442 78.1619 81.5835 78.1778 81.4249 78.1591C81.2664 78.1405 81.1137 78.0878 80.9774 78.0046C80.8411 77.9214 80.7244 77.8097 80.6352 77.6771C80.5461 77.5445 80.4866 77.3942 80.4609 77.2365L79.2035 69.7077C79.1577 69.4317 79.2174 69.1485 79.3708 68.9146C79.5242 68.6807 79.7599 68.5131 80.0312 68.4454C81.7022 68.0208 83.511 67.5073 85.5201 66.9405C85.7538 66.8758 85.9602 66.7365 86.1077 66.5438C86.2552 66.3511 86.3359 66.1154 86.3375 65.8727C86.3375 62.5704 86.3375 50.4505 86.3375 46.7121C86.3373 46.5664 86.3084 46.4221 86.2524 46.2876C86.1964 46.153 86.1144 46.0309 86.0112 45.9282C85.9079 45.8255 85.7853 45.7442 85.6506 45.689C85.5158 45.6338 85.3715 45.6058 85.2259 45.6066H81.0398C80.745 45.6066 80.4623 45.4894 80.2538 45.2807C80.0453 45.0721 79.9282 44.7891 79.9282 44.494V37.3308C79.9282 37.0357 80.0453 36.7527 80.2538 36.5441C80.4623 36.3355 80.745 36.2182 81.0398 36.2182H85.2259C85.5207 36.2182 85.8035 36.101 86.0119 35.8924C86.2204 35.6837 86.3375 35.4007 86.3375 35.1056V22.1707C86.3375 21.8756 86.2204 21.5926 86.0119 21.384C85.8035 21.1753 85.5207 21.0581 85.2259 21.0581H80.5182C80.2234 21.0581 79.9407 20.9409 79.7322 20.7322C79.5238 20.5236 79.4066 20.2406 79.4066 19.9455V12.6096C79.4066 12.4635 79.4354 12.3188 79.4913 12.1839C79.5471 12.0489 79.629 11.9262 79.7322 11.8229C79.8354 11.7196 79.958 11.6376 80.0928 11.5817C80.2277 11.5258 80.3722 11.497 80.5182 11.497H100.281C100.427 11.497 100.572 11.5258 100.706 11.5817C100.841 11.6376 100.964 11.7196 101.067 11.8229C101.17 11.9262 101.252 12.0489 101.308 12.1839C101.364 12.3188 101.393 12.4635 101.393 12.6096V19.9455C101.393 20.2406 101.276 20.5236 101.067 20.7322C100.859 20.9409 100.576 21.0581 100.281 21.0581H95.424C95.1292 21.0581 94.8465 21.1753 94.638 21.384C94.4296 21.5926 94.3125 21.8756 94.3125 22.1707V35.1056C94.3125 35.4007 94.4296 35.6837 94.638 35.8924C94.8465 36.101 95.1292 36.2182 95.424 36.2182H98.7158C99.0106 36.2182 99.2933 36.3355 99.5018 36.5441C99.7103 36.7528 99.8274 37.0357 99.8274 37.3308V44.494C99.8274 44.7891 99.7103 45.0721 99.5018 45.2807C99.2933 45.4893 99.0106 45.6066 98.7158 45.6066H95.4241C95.1293 45.6066 94.8465 45.7238 94.6381 45.9324C94.4296 46.1411 94.3125 46.4241 94.3125 46.7192V62.805C94.3125 62.9782 94.3529 63.1491 94.4306 63.304C94.5083 63.4589 94.621 63.5935 94.7598 63.6971C94.8987 63.8006 95.0597 63.8703 95.2302 63.9005C95.4007 63.9307 95.5759 63.9206 95.7418 63.8711L99.673 62.6974C99.8287 62.6509 99.9928 62.6391 100.154 62.6629C100.314 62.6868 100.468 62.7456 100.604 62.8354C100.739 62.9251 100.854 63.0435 100.938 63.1822C101.023 63.3209 101.077 63.4766 101.095 63.6383ZM128.654 46.6671C128.312 47.812 127.993 48.9008 127.682 49.9515C127.632 50.1171 127.622 50.292 127.652 50.4622C127.682 50.6324 127.751 50.7933 127.854 50.9319C127.957 51.0705 128.091 51.1831 128.245 51.2606C128.4 51.3382 128.57 51.3785 128.743 51.3784C132.546 51.3784 142.553 51.3784 145.898 51.3784C146.044 51.3785 146.188 51.4073 146.322 51.4634C146.457 51.5194 146.579 51.6014 146.682 51.7048C146.785 51.8081 146.866 51.9308 146.922 52.0657C146.977 52.2006 147.005 52.3451 147.005 52.4909V77.6492C147.005 81.2668 146.483 83.8509 144.545 85.4015C142.887 86.8583 140.934 87.2231 138.318 87.2858C138.051 87.2955 137.79 87.2087 137.582 87.0412C137.374 86.8737 137.233 86.6368 137.185 86.3739C136.755 84.136 136.092 81.9495 135.206 79.8502C135.135 79.6793 135.109 79.4934 135.128 79.3095C135.148 79.1256 135.213 78.9496 135.318 78.7973C135.423 78.645 135.564 78.5214 135.729 78.4377C135.893 78.3539 136.076 78.3127 136.261 78.3177C137.159 78.3383 137.886 78.3383 138.21 78.3383C138.806 78.2528 139.03 78.0801 139.03 77.3912V61.104C139.03 60.9578 139.001 60.8132 138.945 60.6782C138.889 60.5432 138.808 60.4205 138.704 60.3172C138.601 60.2139 138.479 60.132 138.344 60.0761C138.209 60.0201 138.064 59.9914 137.918 59.9914H135.595C135.3 59.9914 135.018 60.1086 134.809 60.3173C134.601 60.5259 134.484 60.8089 134.484 61.104V85.1506C134.484 85.4457 134.367 85.7287 134.158 85.9373C133.95 86.146 133.667 86.2632 133.372 86.2632H128.515C128.22 86.2632 127.938 86.146 127.729 85.9373C127.521 85.7287 127.403 85.4457 127.403 85.1506V61.104C127.403 60.8089 127.286 60.5259 127.078 60.3172C126.869 60.1086 126.587 59.9914 126.292 59.9914H124.192C123.897 59.9914 123.615 60.1086 123.406 60.3172C123.198 60.5259 123.081 60.8089 123.081 61.104V85.1506C123.081 85.2967 123.052 85.4414 122.996 85.5764C122.94 85.7114 122.858 85.834 122.755 85.9374C122.652 86.0407 122.529 86.1226 122.394 86.1785C122.259 86.2344 122.115 86.2632 121.969 86.2632H117.112C116.817 86.2632 116.534 86.146 116.326 85.9373C116.117 85.7287 116 85.4457 116 85.1506V61.104C116 60.9578 115.972 60.8132 115.916 60.6782C115.86 60.5432 115.778 60.4205 115.675 60.3172C115.572 60.2139 115.449 60.132 115.314 60.0761C115.179 60.0201 115.035 59.9914 114.889 59.9914H112.938C112.643 59.9914 112.361 60.1086 112.152 60.3172C111.944 60.5259 111.827 60.8089 111.827 61.104V85.9259C111.827 86.221 111.71 86.504 111.501 86.7127C111.293 86.9213 111.01 87.0385 110.715 87.0385H104.964C104.818 87.0385 104.673 87.0098 104.538 86.9538C104.404 86.8979 104.281 86.816 104.178 86.7127C104.075 86.6094 103.993 86.4867 103.937 86.3517C103.881 86.2167 103.852 86.0721 103.852 85.9259V52.4909C103.852 52.1959 103.969 51.9129 104.178 51.7042C104.386 51.4956 104.669 51.3783 104.964 51.3783H118.262C118.525 51.3786 118.78 51.2852 118.981 51.1147C119.182 50.9443 119.315 50.7079 119.358 50.4478C119.537 49.3628 119.715 48.2724 119.894 47.1586C119.92 46.9997 119.911 46.8371 119.869 46.682C119.826 46.5268 119.75 46.3828 119.646 46.2599C119.542 46.137 119.413 46.0381 119.267 45.97C119.121 45.902 118.963 45.8664 118.802 45.8657C115.414 45.8657 106.342 45.8657 103.174 45.8657C103.028 45.8657 102.884 45.8369 102.749 45.7809C102.614 45.725 102.492 45.643 102.389 45.5397C102.285 45.4364 102.204 45.3137 102.148 45.1788C102.092 45.0438 102.063 44.8992 102.064 44.7531V37.7616C102.064 37.6155 102.092 37.4709 102.148 37.3359C102.204 37.2009 102.286 37.0782 102.389 36.9749C102.492 36.8716 102.615 36.7897 102.75 36.7337C102.885 36.6778 103.029 36.649 103.175 36.649H146.787C146.933 36.649 147.078 36.6778 147.213 36.7337C147.348 36.7897 147.47 36.8716 147.573 36.9749C147.677 37.0782 147.758 37.2009 147.814 37.3359C147.87 37.4709 147.899 37.6155 147.899 37.7616V44.7531C147.899 44.899 147.871 45.0436 147.815 45.1785C147.76 45.3135 147.678 45.4361 147.575 45.5395C147.472 45.6428 147.35 45.7248 147.215 45.7808C147.08 45.8368 146.936 45.8656 146.79 45.8656C143.327 45.8656 132.762 45.8656 129.721 45.8656C129.481 45.8671 129.248 45.9458 129.055 46.0901C128.863 46.2344 128.723 46.4367 128.654 46.6671ZM144.328 32.1698H106.007C105.861 32.1698 105.716 32.1411 105.582 32.0852C105.447 32.0292 105.324 31.9473 105.221 31.844C105.118 31.7407 105.036 31.618 104.98 31.483C104.924 31.348 104.895 31.2033 104.895 31.0572V11.3181C104.895 11.172 104.924 11.0273 104.98 10.8923C105.036 10.7573 105.118 10.6346 105.221 10.5313C105.324 10.428 105.447 10.3461 105.582 10.2902C105.716 10.2342 105.861 10.2055 106.007 10.2055H111.759C111.905 10.2055 112.049 10.2342 112.184 10.2902C112.319 10.3461 112.442 10.428 112.545 10.5313C112.648 10.6347 112.73 10.7573 112.786 10.8923C112.842 11.0273 112.87 11.172 112.87 11.3181V22.0988C112.87 22.3938 112.988 22.6768 113.196 22.8855C113.404 23.0941 113.687 23.2114 113.982 23.2114H119.584C119.879 23.2114 120.162 23.0941 120.37 22.8855C120.579 22.6768 120.696 22.3938 120.696 22.0988V7.70048C120.696 7.40541 120.813 7.12242 121.021 6.91377C121.23 6.70511 121.512 6.58789 121.807 6.58789H127.782C128.077 6.5879 128.36 6.70512 128.568 6.91377C128.777 7.12242 128.894 7.40541 128.894 7.70048V22.0988C128.894 22.3939 129.011 22.6768 129.22 22.8855C129.428 23.0942 129.711 23.2114 130.006 23.2114H135.98C136.275 23.2114 136.558 23.0941 136.766 22.8855C136.975 22.6768 137.092 22.3939 137.092 22.0988V11.3181C137.092 11.172 137.121 11.0273 137.177 10.8923C137.233 10.7573 137.314 10.6347 137.418 10.5314C137.521 10.428 137.643 10.3461 137.778 10.2902C137.913 10.2343 138.058 10.2055 138.204 10.2055H144.328C144.474 10.2055 144.618 10.2343 144.753 10.2902C144.888 10.3461 145.011 10.428 145.114 10.5314C145.217 10.6347 145.299 10.7573 145.355 10.8923C145.411 11.0273 145.439 11.172 145.439 11.3181V31.0572C145.439 31.2033 145.411 31.348 145.355 31.483C145.299 31.618 145.217 31.7406 145.114 31.844C145.011 31.9473 144.888 32.0292 144.753 32.0851C144.618 32.1411 144.474 32.1698 144.328 32.1698Z" fill="#FFCB08"/>
<path d="M180.703 58.0163L175.219 59.6668C174.99 59.7356 174.789 59.8764 174.647 60.0684C174.504 60.2603 174.427 60.4931 174.427 60.7322V85.9259C174.427 86.0721 174.398 86.2167 174.342 86.3517C174.287 86.4867 174.205 86.6094 174.101 86.7127C173.998 86.816 173.876 86.8979 173.741 86.9538C173.606 87.0098 173.461 87.0385 173.315 87.0385H167.117C166.822 87.0385 166.539 86.9213 166.331 86.7127C166.122 86.504 166.005 86.221 166.005 85.9259V63.809C166.005 63.6358 165.965 63.465 165.887 63.3101C165.81 63.1553 165.697 63.0207 165.558 62.9172C165.419 62.8136 165.258 62.7439 165.088 62.7136C164.918 62.6833 164.743 62.6932 164.577 62.7426L157.327 64.9008C157.179 64.9447 157.024 64.9575 156.872 64.9383C156.719 64.9192 156.572 64.8685 156.44 64.7895C156.308 64.7105 156.193 64.6049 156.104 64.4795C156.015 64.354 155.953 64.2113 155.921 64.0605L154.23 55.9056C154.171 55.6182 154.227 55.3188 154.387 55.0728C154.547 54.8267 154.798 54.6539 155.084 54.5921C157.967 53.9633 161.461 53.123 165.142 52.2673C165.387 52.2115 165.605 52.0744 165.762 51.8783C165.919 51.6822 166.004 51.4387 166.005 51.1876C166.005 48.0862 166.005 37.6641 166.005 34.2269C166.005 34.081 165.976 33.9364 165.92 33.8016C165.864 33.6668 165.782 33.5444 165.679 33.4413C165.576 33.3382 165.453 33.2565 165.319 33.2008C165.184 33.1452 165.039 33.1167 164.894 33.117H162.613C162.352 33.1177 162.1 33.2102 161.9 33.3783C161.7 33.5464 161.566 33.7795 161.52 34.0367C160.985 37.1685 160.276 40.2682 159.398 43.3214C159.353 43.4752 159.275 43.6175 159.169 43.7383C159.064 43.8591 158.934 43.9556 158.787 44.0212C158.641 44.0868 158.482 44.1199 158.322 44.1182C158.162 44.1165 158.004 44.08 157.859 44.0114C156.602 43.4157 154.976 42.7027 153.708 42.1927C153.448 42.0867 153.237 41.8854 153.12 41.6297C153.002 41.3741 152.986 41.0832 153.075 40.8163C155.229 34.0948 156.467 24.1014 157.129 14.4566C157.139 14.3008 157.183 14.149 157.256 14.011C157.329 13.8731 157.43 13.7521 157.553 13.6561C157.676 13.56 157.818 13.491 157.969 13.4536C158.121 13.4162 158.278 13.4112 158.432 13.439L162.923 14.2467C163.196 14.2967 163.441 14.4461 163.611 14.6662C163.78 14.8863 163.862 15.1614 163.84 15.4384C163.66 17.685 163.438 19.894 163.174 22.1381C163.155 22.2939 163.17 22.4519 163.216 22.6018C163.263 22.7517 163.34 22.8901 163.444 23.0078C163.548 23.1255 163.675 23.2198 163.818 23.2847C163.961 23.3495 164.116 23.3834 164.272 23.384H164.894C165.188 23.384 165.471 23.2668 165.68 23.0582C165.888 22.8495 166.005 22.5665 166.005 22.2714V7.78592C166.005 7.63982 166.034 7.49514 166.09 7.36016C166.146 7.22517 166.227 7.10252 166.331 6.99921C166.434 6.89589 166.556 6.81394 166.691 6.75803C166.826 6.70212 166.971 6.67334 167.117 6.67334H173.315C173.461 6.67334 173.606 6.70212 173.741 6.75803C173.876 6.81394 173.998 6.89589 174.101 6.99921C174.205 7.10252 174.287 7.22517 174.342 7.36016C174.398 7.49514 174.427 7.63982 174.427 7.78592V22.2715C174.427 22.4176 174.456 22.5623 174.512 22.6973C174.568 22.8323 174.649 22.9549 174.753 23.0582C174.856 23.1615 174.978 23.2435 175.113 23.2994C175.248 23.3553 175.393 23.3841 175.539 23.3841H179.725C180.02 23.3841 180.302 23.5013 180.511 23.71C180.719 23.9186 180.836 24.2016 180.836 24.4967V32.0043C180.836 32.1504 180.808 32.2951 180.752 32.4301C180.696 32.5651 180.614 32.6877 180.511 32.791C180.408 32.8943 180.285 32.9763 180.15 33.0322C180.015 33.0881 179.871 33.1169 179.725 33.1169H175.539C175.244 33.1169 174.961 33.2341 174.753 33.4428C174.544 33.6514 174.427 33.9344 174.427 34.2295V48.4691C174.427 48.6394 174.466 48.8075 174.541 48.9603C174.616 49.1132 174.726 49.2467 174.86 49.3506C174.995 49.4545 175.152 49.5261 175.319 49.5597C175.486 49.5934 175.658 49.5882 175.823 49.5447L179.355 48.6098C179.511 48.5687 179.673 48.5618 179.831 48.5895C179.989 48.6173 180.14 48.679 180.272 48.7704C180.404 48.8619 180.515 48.9809 180.596 49.1193C180.678 49.2577 180.729 49.4122 180.745 49.5721L181.488 56.8376C181.515 57.0948 181.451 57.3532 181.307 57.5684C181.164 57.7835 180.95 57.9419 180.703 58.0163ZM221.164 57.58H216.232C215.937 57.58 215.654 57.6972 215.446 57.9059C215.237 58.1145 215.12 58.3975 215.12 58.6926V75.5823C215.12 80.6642 214.3 83.3346 211.319 84.9707C208.658 86.4278 204.812 86.7436 199.843 86.7764C199.579 86.7791 199.324 86.6877 199.121 86.5187C198.919 86.3496 198.784 86.114 198.739 85.854C198.275 83.242 197.608 80.67 196.745 78.1615C196.686 77.9908 196.669 77.8082 196.696 77.6295C196.723 77.4509 196.794 77.2815 196.901 77.136C197.008 76.9905 197.149 76.8733 197.311 76.7944C197.473 76.7156 197.653 76.6775 197.833 76.6835C200.865 76.7875 203.901 76.7875 204.91 76.7875C206.027 76.7875 206.326 76.443 206.326 75.3232V58.6925C206.326 58.3975 206.209 58.1145 206.001 57.9058C205.792 57.6972 205.509 57.5799 205.215 57.5799H183.737C183.442 57.5799 183.159 57.4627 182.951 57.2541C182.742 57.0454 182.625 56.7624 182.625 56.4674V49.3033C182.625 49.1572 182.654 49.0125 182.71 48.8775C182.766 48.7425 182.847 48.6199 182.951 48.5165C183.054 48.4132 183.176 48.3313 183.311 48.2754C183.446 48.2195 183.591 48.1907 183.737 48.1907H205.215C205.509 48.1907 205.792 48.0735 206.001 47.8648C206.209 47.6562 206.326 47.3732 206.326 47.0781V43.2743C206.326 42.9793 206.443 42.6963 206.652 42.4876C206.86 42.279 207.143 42.1618 207.438 42.1618H214.009C214.304 42.1618 214.586 42.279 214.795 42.4876C215.003 42.6963 215.12 42.9793 215.12 43.2743V47.0781C215.12 47.3732 215.237 47.6562 215.446 47.8648C215.654 48.0735 215.937 48.1907 216.232 48.1907H221.164C221.458 48.1907 221.741 48.3079 221.95 48.5165C222.158 48.7252 222.275 49.0082 222.275 49.3033V56.4674C222.275 56.7625 222.158 57.0455 221.95 57.2541C221.741 57.4628 221.458 57.58 221.164 57.58ZM195.823 23.5558H184.035C183.74 23.5558 183.458 23.4386 183.249 23.23C183.041 23.0213 182.924 22.7383 182.924 22.4433V15.3665C182.924 15.0714 183.041 14.7884 183.249 14.5797C183.458 14.3711 183.74 14.2539 184.035 14.2539H195.823C196.118 14.2539 196.401 14.1366 196.609 13.928C196.818 13.7193 196.935 13.4364 196.935 13.1413V7.70048C196.935 7.40541 197.052 7.12241 197.26 6.91376C197.469 6.70511 197.751 6.58789 198.046 6.58789H204.617C204.912 6.5879 205.195 6.70513 205.403 6.91378C205.612 7.12243 205.729 7.40541 205.729 7.70048V13.1412C205.729 13.4363 205.846 13.7193 206.054 13.928C206.263 14.1366 206.546 14.2538 206.84 14.2538H219.524C219.819 14.2538 220.102 14.371 220.31 14.5797C220.519 14.7884 220.636 15.0713 220.636 15.3664V22.4432C220.636 22.7383 220.519 23.0213 220.31 23.2299C220.102 23.4386 219.819 23.5558 219.524 23.5558H206.84C206.546 23.5558 206.263 23.673 206.054 23.8817C205.846 24.0903 205.729 24.3733 205.729 24.6684V29.7647C205.729 30.0598 205.846 30.3427 206.054 30.5514C206.263 30.76 206.546 30.8773 206.84 30.8773H216.99C217.285 30.8773 217.567 30.9945 217.776 31.2031C217.984 31.4118 218.101 31.6948 218.101 31.9899V39.2404C218.101 39.5354 217.984 39.8184 217.776 40.0271C217.567 40.2357 217.285 40.3529 216.99 40.3529H186.792C186.498 40.3529 186.215 40.2357 186.006 40.0271C185.798 39.8184 185.681 39.5354 185.681 39.2404V31.9899C185.681 31.6948 185.798 31.4118 186.006 31.2032C186.215 30.9945 186.498 30.8773 186.792 30.8773H195.823C196.118 30.8773 196.401 30.7601 196.609 30.5514C196.818 30.3428 196.935 30.0598 196.935 29.7647V24.6684C196.935 24.3734 196.818 24.0904 196.609 23.8817C196.401 23.6731 196.118 23.5558 195.823 23.5558ZM193.268 58.6251C196.197 62.1543 198.821 65.9267 201.111 69.9014C201.239 70.1365 201.278 70.4099 201.221 70.6714C201.164 70.933 201.015 71.1652 200.8 71.3254L195.643 75.193C195.513 75.2913 195.363 75.3595 195.203 75.3928C195.043 75.4261 194.878 75.4237 194.72 75.3857C194.561 75.3477 194.413 75.2751 194.285 75.173C194.158 75.0709 194.055 74.9419 193.983 74.7953C191.89 70.804 189.471 66.9931 186.75 63.4016C186.66 63.2833 186.594 63.1481 186.557 63.004C186.521 62.8598 186.513 62.7097 186.535 62.5627C186.558 62.4156 186.61 62.2745 186.688 62.1479C186.766 62.0213 186.868 61.9117 186.99 61.8257C188.27 60.9177 190.548 59.3017 191.775 58.4318C192.002 58.2688 192.282 58.1981 192.559 58.234C192.836 58.2698 193.089 58.4096 193.268 58.6251H193.268Z" fill="#FFCB08"/>
<path d="M296.798 31.9047V37.001C296.798 37.296 296.681 37.579 296.472 37.7877C296.264 37.9963 295.981 38.1136 295.686 38.1136H284.326C284.048 38.1136 283.78 38.2177 283.575 38.4053C283.37 38.5931 283.243 38.8507 283.218 39.1277L282.802 43.8173C282.778 44.0943 282.65 44.352 282.445 44.5396C282.241 44.7273 281.973 44.8314 281.695 44.8314H241.1C240.944 44.8314 240.789 44.7985 240.647 44.7346C240.504 44.6708 240.376 44.5775 240.272 44.4609C240.168 44.3444 240.089 44.2071 240.042 44.0581C239.994 43.9091 239.978 43.7517 239.995 43.5962L240.466 39.3488C240.483 39.1933 240.468 39.0359 240.42 38.8869C240.372 38.7379 240.294 38.6007 240.19 38.4841C240.085 38.3675 239.958 38.2743 239.815 38.2104C239.672 38.1466 239.518 38.1136 239.361 38.1136H230.014C229.719 38.1136 229.436 37.9964 229.228 37.7877C229.019 37.5791 228.902 37.2961 228.902 37.001V31.9047C228.902 31.6096 229.019 31.3266 229.228 31.118C229.436 30.9093 229.719 30.7921 230.014 30.7921H240.505C240.778 30.7921 241.042 30.6915 241.245 30.5096C241.449 30.3276 241.579 30.077 241.61 29.8055L242.131 25.2316C242.161 24.9601 242.291 24.7095 242.495 24.5275C242.699 24.3456 242.962 24.245 243.235 24.245H283.223C283.376 24.245 283.528 24.2768 283.668 24.3384C283.809 24.3999 283.935 24.49 284.039 24.6028C284.143 24.7156 284.223 24.8488 284.273 24.9939C284.323 25.139 284.343 25.2929 284.331 25.446L284 29.5911C283.988 29.7441 284.008 29.8981 284.058 30.0432C284.108 30.1883 284.188 30.3215 284.292 30.4343C284.396 30.5471 284.522 30.6372 284.663 30.6987C284.803 30.7603 284.955 30.7921 285.109 30.7921H295.686C295.981 30.7921 296.264 30.9093 296.472 31.118C296.681 31.3266 296.798 31.6096 296.798 31.9047ZM283.673 77.4072C287.078 78.5385 290.264 79.642 292.893 80.5956C293.066 80.6582 293.222 80.7634 293.344 80.9015C293.467 81.0396 293.553 81.2063 293.595 81.3864C293.637 81.5664 293.633 81.754 293.583 81.9321C293.534 82.1101 293.441 82.273 293.312 82.4058L288.982 86.915C288.827 87.0779 288.626 87.1893 288.405 87.2343C288.185 87.2793 287.956 87.2556 287.749 87.1665C282.684 84.998 275.038 81.9947 267.342 79.5893C267.17 79.5362 267.013 79.4419 266.886 79.3146C266.758 79.1872 266.663 79.0307 266.61 78.8584C266.556 78.6861 266.545 78.5034 266.578 78.326C266.611 78.1486 266.686 77.9818 266.798 77.8402L267.429 77.0399C267.558 76.8759 267.639 76.6787 267.661 76.471C267.684 76.2633 267.648 76.0534 267.557 75.8653C267.465 75.6773 267.323 75.5188 267.146 75.4078C266.97 75.2969 266.765 75.238 266.556 75.238H258.244C258.016 75.238 257.794 75.308 257.607 75.4385C257.421 75.569 257.279 75.7538 257.2 75.9678C257.122 76.1818 257.111 76.4147 257.169 76.635C257.227 76.8553 257.352 77.0525 257.526 77.1997L258.457 77.989C258.596 78.106 258.704 78.2553 258.772 78.4238C258.84 78.5923 258.866 78.7749 258.847 78.9557C258.828 79.1364 258.766 79.3099 258.665 79.4608C258.564 79.6117 258.427 79.7356 258.267 79.8215C250.95 83.4366 243.158 85.9944 235.123 87.4186C234.898 87.4593 234.667 87.4291 234.46 87.332C234.254 87.235 234.083 87.076 233.971 86.8771C232.995 85.2001 231.926 83.5788 230.771 82.0206C230.658 81.8694 230.587 81.6921 230.562 81.5054C230.538 81.3188 230.561 81.1289 230.631 80.9539C230.7 80.7789 230.813 80.6245 230.958 80.5053C231.104 80.3861 231.278 80.3061 231.463 80.2729C235.456 79.5614 239.402 78.6067 243.278 77.414C243.532 77.3334 243.748 77.1648 243.888 76.9385C244.028 76.7123 244.082 76.4434 244.041 76.1805C244 75.9176 243.867 75.6781 243.664 75.5052C243.462 75.3323 243.205 75.2375 242.939 75.238H240.136C239.085 75.238 238.591 74.7398 238.591 74.1254V48.4427C238.591 48.2966 238.62 48.1519 238.676 48.017C238.732 47.882 238.814 47.7593 238.917 47.656C239.02 47.5527 239.143 47.4707 239.278 47.4148C239.412 47.3589 239.557 47.3301 239.703 47.3301H286.072C286.367 47.3301 286.65 47.4474 286.858 47.656C287.066 47.8647 287.184 48.1477 287.184 48.4427V74.1255C287.184 74.4205 287.066 74.7035 286.858 74.9122C286.65 75.1208 286.367 75.238 286.072 75.238H284.018C283.754 75.2387 283.499 75.3334 283.298 75.5052C283.097 75.677 282.964 75.9147 282.923 76.1757C282.881 76.4367 282.934 76.7039 283.072 76.9296C283.209 77.1552 283.422 77.3245 283.673 77.4072ZM237.852 28.5525H232.101C231.806 28.5525 231.524 28.4353 231.315 28.2266C231.107 28.018 230.99 27.735 230.99 27.4399V14.6776C230.99 14.3825 231.107 14.0996 231.315 13.8909C231.524 13.6823 231.806 13.565 232.101 13.565H256.605C256.786 13.5652 256.964 13.5214 257.124 13.4374C257.284 13.3533 257.421 13.2315 257.523 13.0825C257.626 12.9335 257.69 12.7618 257.712 12.5823C257.733 12.4027 257.71 12.2206 257.645 12.0518C257.307 11.1837 256.935 10.3327 256.564 9.52861C256.499 9.38604 256.464 9.23113 256.463 9.07414C256.461 8.91715 256.493 8.76166 256.557 8.618C256.62 8.47433 256.713 8.34577 256.83 8.24082C256.946 8.13588 257.084 8.05695 257.233 8.00928L262.9 6.1825C263.148 6.10166 263.416 6.11088 263.657 6.20855C263.898 6.30622 264.098 6.48605 264.219 6.71634C265.266 8.68761 266.18 10.7269 266.954 12.8204C267.03 13.0376 267.172 13.2259 267.359 13.3593C267.546 13.4927 267.77 13.5646 268 13.5651H293.301C293.596 13.5651 293.879 13.6823 294.087 13.891C294.296 14.0996 294.413 14.3826 294.413 14.6777V27.4399C294.413 27.735 294.296 28.018 294.087 28.2266C293.879 28.4353 293.596 28.5525 293.301 28.5525H287.252C287.106 28.5525 286.961 28.5237 286.827 28.4678C286.692 28.4119 286.569 28.3299 286.466 28.2266C286.363 28.1233 286.281 28.0006 286.225 27.8657C286.169 27.7307 286.14 27.586 286.14 27.4399V22.6017C286.14 22.3066 286.023 22.0237 285.815 21.815C285.606 21.6064 285.324 21.4891 285.029 21.4891H240.075C239.78 21.4891 239.498 21.6064 239.289 21.815C239.081 22.0237 238.964 22.3066 238.964 22.6017V27.4399C238.964 27.735 238.847 28.018 238.638 28.2266C238.43 28.4353 238.147 28.5525 237.852 28.5525ZM248.274 54.9961H277.055C277.35 54.9961 277.632 54.8789 277.841 54.6702C278.049 54.4616 278.166 54.1786 278.166 53.8835V53.6109C278.166 53.3159 278.049 53.0329 277.841 52.8242C277.632 52.6156 277.35 52.4983 277.055 52.4983H248.274C248.128 52.4983 247.983 52.5271 247.848 52.583C247.713 52.639 247.591 52.7209 247.488 52.8242C247.384 52.9275 247.303 53.0502 247.247 53.1852C247.191 53.3202 247.162 53.4648 247.162 53.6109V53.8835C247.162 54.0296 247.191 54.1743 247.247 54.3093C247.303 54.4442 247.384 54.5669 247.488 54.6702C247.591 54.7735 247.713 54.8555 247.848 54.9114C247.983 54.9673 248.128 54.9961 248.274 54.9961ZM248.274 62.5757H277.055C277.35 62.5756 277.632 62.4584 277.841 62.2498C278.049 62.0411 278.166 61.7581 278.166 61.4631V61.0178C278.166 60.7227 278.049 60.4397 277.841 60.2311C277.632 60.0224 277.35 59.9052 277.055 59.9052H248.274C247.979 59.9052 247.696 60.0224 247.488 60.2311C247.279 60.4397 247.162 60.7227 247.162 61.0178V61.4631C247.162 61.7581 247.279 62.0411 247.488 62.2498C247.696 62.4584 247.979 62.5756 248.274 62.5757ZM248.274 70.1562H277.055C277.35 70.1562 277.632 70.039 277.841 69.8303C278.049 69.6217 278.166 69.3387 278.166 69.0436V68.5119C278.166 68.2168 278.049 67.9339 277.841 67.7252C277.632 67.5166 277.35 67.3993 277.055 67.3993H248.274C247.979 67.3993 247.696 67.5166 247.488 67.7252C247.279 67.9339 247.162 68.2168 247.162 68.5119V69.0436C247.162 69.1897 247.191 69.3344 247.247 69.4694C247.303 69.6043 247.384 69.727 247.488 69.8303C247.591 69.9336 247.713 70.0156 247.848 70.0715C247.983 70.1274 248.128 70.1562 248.274 70.1562ZM249.593 39.7496H257.146C257.415 39.7496 257.675 39.652 257.877 39.4748C258.08 39.2976 258.211 39.0529 258.247 38.7861L258.319 38.2554C258.34 38.0981 258.328 37.9381 258.282 37.7862C258.237 37.6342 258.159 37.4937 258.055 37.3742C257.95 37.2547 257.822 37.1589 257.677 37.0933C257.533 37.0277 257.376 36.9937 257.218 36.9937H249.65C249.376 36.9937 249.112 37.0951 248.908 37.2784C248.704 37.4617 248.574 37.714 248.545 37.9868L248.488 38.5174C248.471 38.6727 248.487 38.8298 248.535 38.9785C248.583 39.1271 248.661 39.264 248.766 39.3803C248.87 39.4965 248.997 39.5895 249.14 39.6531C249.282 39.7167 249.437 39.7496 249.593 39.7496ZM249.355 30.3936L249.323 30.6672C249.304 30.8233 249.319 30.9817 249.365 31.1317C249.412 31.2818 249.491 31.4202 249.595 31.5378C249.699 31.6555 249.827 31.7496 249.971 31.8141C250.114 31.8786 250.269 31.9119 250.426 31.9119H257.921C258.198 31.9119 258.466 31.8079 258.671 31.6203C258.876 31.4327 259.003 31.1751 259.028 30.8983L259.052 30.6248C259.066 30.4709 259.048 30.3159 258.998 30.1696C258.949 30.0233 258.87 29.8888 258.765 29.7749C258.661 29.6609 258.535 29.5699 258.393 29.5076C258.252 29.4454 258.1 29.4132 257.945 29.4132H250.459C250.187 29.4132 249.925 29.513 249.721 29.6937C249.518 29.8743 249.388 30.1234 249.355 30.3936ZM275.119 38.7268L275.162 38.1962C275.174 38.043 275.154 37.8889 275.104 37.7436C275.054 37.5983 274.975 37.465 274.871 37.3521C274.767 37.2391 274.64 37.1489 274.5 37.0873C274.359 37.0256 274.207 36.9938 274.054 36.9938H266.717C266.443 36.9938 266.178 37.0951 265.974 37.2784C265.77 37.4617 265.641 37.714 265.612 37.9868L265.555 38.5175C265.538 38.6727 265.554 38.8298 265.602 38.9785C265.65 39.1271 265.728 39.264 265.833 39.3803C265.937 39.4965 266.064 39.5895 266.207 39.6531C266.349 39.7167 266.504 39.7496 266.66 39.7496H274.011C274.29 39.7496 274.559 39.6444 274.764 39.4549C274.97 39.2654 275.096 39.0054 275.119 38.7268V38.7268ZM274.601 29.4132H267.437C267.154 29.4132 266.881 29.5216 266.675 29.7161C266.469 29.9106 266.345 30.1767 266.328 30.4598L266.312 30.7333C266.303 30.8847 266.325 31.0364 266.376 31.1789C266.428 31.3215 266.508 31.452 266.612 31.5624C266.716 31.6727 266.842 31.7607 266.981 31.8208C267.12 31.8809 267.27 31.9119 267.421 31.9119H274.585C274.868 31.9119 275.141 31.8036 275.347 31.6092C275.553 31.4148 275.678 31.1488 275.695 30.8658L275.711 30.5922C275.72 30.4408 275.698 30.2891 275.646 30.1465C275.595 30.0039 275.514 29.8733 275.41 29.7629C275.307 29.6525 275.181 29.5645 275.042 29.5044C274.903 29.4442 274.753 29.4132 274.601 29.4132V29.4132Z" fill="#FFCB08"/>
<path d="M302.194 78.3284C303.44 73.0006 304.327 67.5949 304.848 62.148C304.866 61.9769 304.924 61.8123 305.016 61.6673C305.109 61.5223 305.234 61.4008 305.381 61.3125C305.529 61.2241 305.695 61.1714 305.866 61.1584C306.038 61.1454 306.21 61.1725 306.369 61.2375L308.695 62.1783C308.916 62.2662 309.104 62.4237 309.228 62.6272C309.353 62.8307 309.409 63.0691 309.386 63.3068C308.909 68.8867 308.116 74.4351 307.012 79.9253C306.977 80.0818 306.908 80.2288 306.81 80.3561C306.713 80.4834 306.589 80.5879 306.447 80.6626C306.305 80.7372 306.149 80.7801 305.989 80.7883C305.828 80.7965 305.669 80.7698 305.52 80.7101L302.854 79.6509C302.601 79.5493 302.395 79.3586 302.273 79.1149C302.152 78.8712 302.124 78.5914 302.194 78.3284ZM346.28 63.066C345.938 64.6869 345.558 66.3004 345.137 67.8737C345.08 68.0889 345.089 68.3166 345.163 68.5266C345.238 68.7366 345.374 68.9189 345.555 69.0493C347.671 70.5797 349.629 72.3184 351.399 74.2393C351.56 74.4222 351.656 74.6529 351.673 74.896C351.691 75.1391 351.628 75.3811 351.494 75.5849L348.429 80.2876C348.337 80.43 348.213 80.5493 348.068 80.6365C347.923 80.7236 347.759 80.7763 347.591 80.7903C347.422 80.8044 347.252 80.7795 347.094 80.7176C346.936 80.6557 346.795 80.5584 346.681 80.4332C345.788 79.443 344.673 78.3144 343.486 77.2192C343.355 77.1005 343.198 77.0146 343.028 76.9687C342.858 76.9227 342.679 76.9181 342.506 76.9551C342.334 76.9921 342.172 77.0696 342.036 77.1814C341.899 77.2932 341.791 77.4359 341.72 77.5978C340.408 80.5943 338.753 83.4284 336.788 86.0432C336.69 86.1744 336.563 86.2822 336.418 86.359C336.274 86.4358 336.114 86.4798 335.95 86.4877C335.786 86.4956 335.622 86.4672 335.471 86.4047C335.319 86.3422 335.183 86.247 335.072 86.1259C334.105 85.0678 332.766 83.7839 331.58 82.7117C331.452 82.5965 331.298 82.513 331.131 82.4677C330.965 82.4225 330.79 82.4168 330.621 82.4511C330.451 82.4854 330.293 82.5588 330.157 82.6654C330.021 82.772 329.912 82.9089 329.838 83.0651C329.766 83.2187 329.681 83.3662 329.586 83.5063C329.194 84.2848 328.613 84.9527 327.897 85.4491C327.181 85.9456 326.352 86.2548 325.487 86.3485C323.786 86.6618 322.056 86.7864 320.328 86.72C320.056 86.7178 319.794 86.6151 319.592 86.4314C319.391 86.2478 319.264 85.9963 319.237 85.725C319.057 84.0287 318.704 82.3551 318.185 80.7302C318.131 80.5571 318.12 80.3733 318.153 80.1948C318.186 80.0164 318.263 79.8489 318.376 79.7071C318.489 79.5653 318.636 79.4536 318.802 79.3817C318.969 79.3098 319.15 79.2801 319.331 79.2951C320.402 79.3716 321.263 79.3716 321.76 79.3716C322.131 79.4306 322.51 79.3708 322.845 79.2007C323.18 79.0306 323.452 78.7589 323.623 78.4245C324.013 77.6742 324.289 76.0103 324.551 72.6358C324.564 72.4671 324.533 72.2979 324.462 72.1445C324.39 71.991 324.281 71.8586 324.143 71.7599C324.006 71.6611 323.846 71.5995 323.678 71.5808C323.51 71.5621 323.34 71.587 323.184 71.6532L323.181 71.6543C323.048 71.7124 322.904 71.74 322.759 71.7351C322.614 71.7302 322.471 71.693 322.343 71.6261C322.214 71.5592 322.101 71.4644 322.014 71.3486C321.926 71.2327 321.865 71.0988 321.836 70.9565C321.283 68.2734 320.302 64.8785 319.398 62.0246C319.311 61.7541 319.332 61.4609 319.454 61.2049C319.577 60.9489 319.793 60.7495 320.057 60.6474L321.14 60.2305C321.28 60.1768 321.428 60.1517 321.577 60.1567C321.726 60.1617 321.873 60.1967 322.008 60.2596C322.144 60.3225 322.265 60.4121 322.365 60.5229C322.465 60.6338 322.541 60.7636 322.59 60.9047C322.693 61.2011 322.797 61.5032 322.901 61.8109C322.983 62.0587 323.149 62.2699 323.37 62.4074C323.592 62.545 323.854 62.6002 324.113 62.5635C324.371 62.5267 324.608 62.4002 324.782 62.2062C324.956 62.0122 325.057 61.7631 325.066 61.5023C325.092 60.7019 325.119 59.8664 325.148 58.9959C325.154 58.8465 325.129 58.6974 325.076 58.5576C325.023 58.4178 324.943 58.2901 324.839 58.1821C324.736 58.0741 324.612 57.9879 324.474 57.9288C324.337 57.8698 324.189 57.8389 324.04 57.8381H306.843C306.698 57.838 306.553 57.8091 306.419 57.7531C306.284 57.6971 306.162 57.6151 306.059 57.5117C305.956 57.4084 305.875 57.2857 305.819 57.1508C305.764 57.0159 305.736 56.8713 305.736 56.7255V10.9735C305.736 10.6784 305.853 10.3954 306.062 10.1868C306.27 9.97815 306.553 9.86093 306.848 9.86093H330.412C330.707 9.86093 330.989 9.97815 331.198 10.1868C331.406 10.3954 331.523 10.6784 331.523 10.9735V17.1033C331.523 17.3983 331.406 17.6813 331.198 17.89C330.989 18.0986 330.707 18.2158 330.412 18.2158H325.033C324.739 18.2158 324.456 18.3331 324.247 18.5417C324.039 18.7504 323.922 19.0334 323.922 19.3284V22.7877C323.922 23.0828 324.039 23.3658 324.247 23.5744C324.456 23.7831 324.739 23.9003 325.033 23.9003H329.219C329.514 23.9003 329.797 24.0175 330.005 24.2261C330.214 24.4348 330.331 24.7178 330.331 25.0129V25.8818C337.968 20.901 344.34 14.2073 348.942 6.33175C349.072 6.09425 349.284 5.91272 349.539 5.82151C349.794 5.7303 350.074 5.73573 350.325 5.83677L356.175 8.19677C356.322 8.25667 356.455 8.34718 356.564 8.46227C356.673 8.57736 356.757 8.71441 356.809 8.86431C356.861 9.01421 356.881 9.17353 356.867 9.33169C356.853 9.48985 356.806 9.64323 356.728 9.78164C356.579 10.0503 356.425 10.3144 356.27 10.5763C356.141 10.7891 356.087 11.0393 356.116 11.2866C356.146 11.5339 356.258 11.764 356.434 11.94C360.86 16.2247 365.935 19.782 371.471 22.4802C371.604 22.5414 371.723 22.6283 371.823 22.7359C371.922 22.8435 371.999 22.9696 372.05 23.1071C372.1 23.2446 372.123 23.3908 372.117 23.5371C372.11 23.6834 372.075 23.8271 372.014 23.9599C371.024 26.2119 370.21 28.5372 369.578 30.9149C369.533 31.0827 369.449 31.2375 369.333 31.367C369.218 31.4965 369.073 31.597 368.911 31.6605C368.75 31.7239 368.575 31.7485 368.403 31.7324C368.23 31.7162 368.063 31.6597 367.916 31.5674C366.636 30.7826 365.357 29.902 364.077 28.9551C363.912 28.8322 363.716 28.7576 363.511 28.7396C363.306 28.7216 363.1 28.7609 362.916 28.8532C362.732 28.9455 362.578 29.0871 362.47 29.2622C362.361 29.4374 362.304 29.6391 362.304 29.845V32.177C362.304 32.4721 362.187 32.7551 361.978 32.9637C361.77 33.1724 361.487 33.2896 361.192 33.2896H341.504C341.209 33.2896 340.926 33.1724 340.718 32.9637C340.509 32.7551 340.392 32.4721 340.392 32.177V31.1964C340.392 30.9909 340.335 30.7894 340.228 30.6144C340.12 30.4393 339.966 30.2976 339.783 30.2048C339.6 30.1121 339.395 30.072 339.19 30.0891C338.985 30.1061 338.79 30.1796 338.624 30.3014C337.819 30.8937 337.013 31.4733 336.182 32.0493C335.941 32.2159 335.645 32.2815 335.356 32.2322C335.067 32.1829 334.809 32.0225 334.638 31.7854C333.993 30.8829 333.158 29.8228 332.32 28.8373C332.174 28.6651 331.978 28.5416 331.76 28.4834C331.541 28.4252 331.31 28.4351 331.097 28.5116C330.885 28.5881 330.7 28.7277 330.569 28.9118C330.437 29.0958 330.365 29.3156 330.362 29.5419L330.348 30.3858C330.344 30.6778 330.225 30.9562 330.017 31.1611C329.809 31.366 329.529 31.4808 329.237 31.4808H325.033C324.739 31.4808 324.456 31.598 324.247 31.8067C324.039 32.0153 323.922 32.2983 323.922 32.5934V35.4501C323.922 35.7451 324.039 36.0281 324.247 36.2368C324.456 36.4454 324.739 36.5626 325.033 36.5626H329.443C329.589 36.5626 329.734 36.5914 329.869 36.6473C330.004 36.7032 330.126 36.7852 330.229 36.8885C330.333 36.9918 330.415 37.1145 330.47 37.2495C330.526 37.3844 330.555 37.5291 330.555 37.6752V42.9443C330.555 43.0904 330.526 43.2351 330.47 43.37C330.415 43.505 330.333 43.6277 330.229 43.731C330.126 43.8343 330.004 43.9163 329.869 43.9722C329.734 44.0281 329.589 44.0569 329.443 44.0569H325.033C324.887 44.0569 324.743 44.0856 324.608 44.1416C324.473 44.1975 324.351 44.2794 324.247 44.3827C324.144 44.486 324.062 44.6087 324.006 44.7437C323.951 44.8787 323.922 45.0233 323.922 45.1695V48.3706C323.922 48.5167 323.951 48.6614 324.006 48.7964C324.062 48.9314 324.144 49.054 324.247 49.1573C324.351 49.2606 324.473 49.3426 324.608 49.3985C324.743 49.4544 324.887 49.4832 325.033 49.4832H331.075C331.222 49.4829 331.368 49.5119 331.503 49.5684C331.639 49.6249 331.762 49.7078 331.866 49.8124C331.969 49.9169 332.051 50.041 332.106 50.1774C332.161 50.3137 332.188 50.4597 332.187 50.6068C332.178 51.3197 332.159 52.2078 332.12 52.7562C331.849 64.4245 331.577 71.9811 331.104 76.7565C331.08 77.0062 331.14 77.2568 331.276 77.4677C331.412 77.6787 331.615 77.8376 331.852 77.9189C332.089 78.0003 332.346 77.9991 332.583 77.9158C332.819 77.8324 333.021 77.6717 333.154 77.4596C336.034 72.5624 337.968 67.167 338.857 61.5546C338.882 61.4081 338.937 61.2681 339.017 61.1431C339.097 61.018 339.202 60.9104 339.325 60.8266C339.447 60.7427 339.585 60.6844 339.731 60.655C339.877 60.6257 340.027 60.6259 340.172 60.6556L345.412 61.7458C345.702 61.8059 345.956 61.9786 346.119 62.2262C346.282 62.4738 346.34 62.7758 346.28 63.066ZM313.88 63.2641C314.234 67.6826 314.425 72.9194 314.453 76.8375C314.456 77.1088 314.359 77.3717 314.182 77.5767C314.004 77.7817 313.758 77.9148 313.49 77.9507L311.872 78.1662C311.714 78.1881 311.553 78.1754 311.4 78.129C311.247 78.0826 311.106 78.0036 310.987 77.8975C310.867 77.7914 310.772 77.6606 310.708 77.5142C310.644 77.3677 310.612 77.2091 310.615 77.0493C310.693 73.1289 310.568 67.9008 310.284 63.5659C310.264 63.2772 310.358 62.9923 310.545 62.7718C310.732 62.5513 310.998 62.4126 311.286 62.3853L312.666 62.2524C312.812 62.2378 312.96 62.2525 313.101 62.2956C313.241 62.3388 313.372 62.4095 313.485 62.5036C313.598 62.5978 313.691 62.7135 313.759 62.8441C313.827 62.9746 313.868 63.1174 313.88 63.2641V63.2641ZM312.593 19.3284V22.7877C312.593 23.0828 312.71 23.3657 312.919 23.5744C313.127 23.783 313.41 23.9003 313.705 23.9003H316.102C316.248 23.9003 316.393 23.8715 316.528 23.8156C316.663 23.7597 316.785 23.6777 316.888 23.5744C316.992 23.4711 317.073 23.3484 317.129 23.2135C317.185 23.0785 317.214 22.9338 317.214 22.7877V19.3284C317.214 19.1823 317.185 19.0376 317.129 18.9026C317.073 18.7677 316.992 18.645 316.888 18.5417C316.785 18.4384 316.663 18.3564 316.528 18.3005C316.393 18.2446 316.248 18.2158 316.102 18.2158H313.705C313.41 18.2158 313.127 18.3331 312.919 18.5417C312.71 18.7504 312.593 19.0333 312.593 19.3284ZM316.102 31.4808H313.705C313.41 31.4808 313.127 31.598 312.919 31.8067C312.71 32.0153 312.593 32.2983 312.593 32.5934V35.4501C312.593 35.7451 312.71 36.0281 312.919 36.2368C313.127 36.4454 313.41 36.5627 313.705 36.5627H316.102C316.248 36.5627 316.393 36.5339 316.528 36.478C316.663 36.4221 316.785 36.3401 316.888 36.2368C316.992 36.1335 317.073 36.0108 317.129 35.8758C317.185 35.7409 317.214 35.5962 317.214 35.4501V32.5934C317.214 32.4473 317.185 32.3026 317.129 32.1676C317.073 32.0326 316.992 31.91 316.888 31.8067C316.785 31.7034 316.663 31.6214 316.528 31.5655C316.393 31.5096 316.248 31.4808 316.102 31.4808ZM313.705 49.4832H316.102C316.397 49.4832 316.68 49.3659 316.888 49.1573C317.097 48.9486 317.214 48.6656 317.214 48.3706V45.1694C317.214 44.8743 317.097 44.5914 316.888 44.3827C316.68 44.174 316.397 44.0568 316.102 44.0568H313.705C313.559 44.0568 313.414 44.0856 313.28 44.1415C313.145 44.1974 313.022 44.2794 312.919 44.3827C312.816 44.486 312.734 44.6087 312.678 44.7437C312.622 44.8786 312.593 45.0233 312.593 45.1694V48.3706C312.593 48.5167 312.622 48.6613 312.678 48.7963C312.734 48.9313 312.816 49.054 312.919 49.1573C313.022 49.2606 313.145 49.3425 313.28 49.3985C313.414 49.4544 313.559 49.4832 313.705 49.4832ZM318.396 62.2802C319.15 66.1699 319.915 70.7269 320.255 74.0863C320.283 74.356 320.211 74.6266 320.054 74.8472C319.896 75.0677 319.663 75.223 319.399 75.2836L318.061 75.5932C317.898 75.6521 317.724 75.6735 317.552 75.6558C317.379 75.6381 317.213 75.5818 317.066 75.491C316.919 75.4002 316.793 75.2773 316.7 75.1314C316.607 74.9856 316.547 74.8205 316.526 74.6485C316.178 70.7362 315.615 66.846 314.84 62.9954C314.81 62.8509 314.808 62.7018 314.836 62.5568C314.864 62.4117 314.92 62.2736 315.001 62.1505C315.083 62.0274 315.188 61.9218 315.31 61.8397C315.433 61.7577 315.571 61.7008 315.716 61.6725L317.097 61.4065C317.24 61.3784 317.386 61.3787 317.529 61.4074C317.671 61.4361 317.807 61.4926 317.927 61.5738C318.048 61.6549 318.151 61.7591 318.232 61.8803C318.312 62.0015 318.368 62.1374 318.396 62.2802ZM335.244 37.8542H348.97C349.265 37.8542 349.547 37.9714 349.756 38.1801C349.964 38.3887 350.081 38.6717 350.081 38.9668V57.6726C350.081 57.9676 349.964 58.2506 349.756 58.4593C349.547 58.6679 349.265 58.7852 348.97 58.7852H335.244C334.949 58.7852 334.666 58.6679 334.458 58.4593C334.25 58.2506 334.132 57.9676 334.132 57.6726V38.9668C334.132 38.6717 334.25 38.3887 334.458 38.1801C334.666 37.9714 334.949 37.8542 335.244 37.8542ZM340.982 52.3254H342.858C343.004 52.3254 343.149 52.2966 343.284 52.2407C343.418 52.1848 343.541 52.1028 343.644 51.9995C343.747 51.8962 343.829 51.7735 343.885 51.6385C343.941 51.5036 343.97 51.3589 343.97 51.2128V45.3411C343.97 45.195 343.941 45.0504 343.885 44.9154C343.829 44.7804 343.747 44.6577 343.644 44.5544C343.541 44.4511 343.418 44.3692 343.284 44.3132C343.149 44.2573 343.004 44.2286 342.858 44.2286H340.982C340.836 44.2286 340.692 44.2573 340.557 44.3132C340.422 44.3692 340.3 44.4511 340.196 44.5544C340.093 44.6577 340.011 44.7804 339.955 44.9154C339.9 45.0504 339.871 45.195 339.871 45.3411V51.2128C339.871 51.3589 339.9 51.5036 339.955 51.6385C340.011 51.7735 340.093 51.8962 340.196 51.9995C340.3 52.1028 340.422 52.1848 340.557 52.2407C340.692 52.2966 340.836 52.3254 340.982 52.3254H340.982ZM357.551 23.5963C355.755 21.9928 354.011 20.3464 352.376 18.6354C352.267 18.5203 352.134 18.43 351.987 18.3706C351.84 18.3113 351.682 18.2844 351.524 18.2916C351.365 18.2989 351.21 18.3402 351.069 18.4127C350.928 18.4852 350.804 18.5873 350.706 18.7119C349.315 20.4365 347.827 22.0812 346.251 23.6384C346.094 23.7929 345.987 23.9905 345.943 24.2062C345.899 24.4219 345.92 24.6458 346.004 24.8494C346.087 25.0531 346.229 25.2273 346.412 25.3498C346.595 25.4723 346.81 25.5375 347.03 25.5373H356.815C357.04 25.5374 357.259 25.4689 357.445 25.341C357.63 25.2132 357.772 25.0319 357.852 24.8212C357.932 24.6106 357.946 24.3807 357.892 24.1619C357.839 23.9431 357.72 23.7458 357.551 23.5963H357.551ZM364.97 62.6932C364.534 65.461 363.958 68.2047 363.243 70.9138C363.186 71.1226 363.191 71.3438 363.26 71.5493C363.328 71.7548 363.456 71.9354 363.627 72.0681C366.229 74.0602 368.707 76.2108 371.046 78.5078C371.23 78.6969 371.342 78.9457 371.36 79.2096C371.378 79.4734 371.301 79.7351 371.144 79.9476L367.387 85.0435C367.289 85.177 367.162 85.2867 367.015 85.3646C366.869 85.4426 366.707 85.4867 366.542 85.4938C366.376 85.5009 366.211 85.4709 366.058 85.4058C365.906 85.3407 365.77 85.2423 365.66 85.1178C364.241 83.5738 362.744 82.1021 361.177 80.7084C361.05 80.5934 360.899 80.5092 360.735 80.4623C360.57 80.4155 360.397 80.4073 360.229 80.4383C360.061 80.4694 359.903 80.539 359.766 80.6415C359.629 80.744 359.518 80.8768 359.441 81.0295C358.591 82.7661 357.607 84.4341 356.5 86.0184C356.406 86.1525 356.284 86.2644 356.143 86.346C356.001 86.4276 355.843 86.4769 355.68 86.4906C355.518 86.5042 355.354 86.4817 355.201 86.4248C355.048 86.3678 354.909 86.2778 354.794 86.1611C353.346 84.7174 351.807 83.3672 350.187 82.1186C350.072 82.0311 349.975 81.9217 349.902 81.7966C349.829 81.6715 349.782 81.5332 349.763 81.3897C349.744 81.2462 349.753 81.1004 349.79 80.9605C349.828 80.8206 349.892 80.6895 349.981 80.5747C353.681 75.8731 355.956 68.9092 357.076 61.2409C357.097 61.0916 357.148 60.9481 357.225 60.8191C357.303 60.6902 357.407 60.5784 357.529 60.4907C357.652 60.403 357.791 60.3411 357.938 60.3089C358.085 60.2767 358.237 60.2747 358.385 60.3032L364.082 61.4214C364.365 61.4772 364.616 61.6409 364.782 61.8781C364.948 62.1152 365.015 62.4074 364.97 62.6932ZM353.578 37.8542H367.9C368.195 37.8542 368.478 37.9714 368.686 38.1801C368.894 38.3887 369.012 38.6717 369.012 38.9668V57.6726C369.012 57.9677 368.894 58.2506 368.686 58.4593C368.478 58.6679 368.195 58.7852 367.9 58.7852H353.578C353.432 58.7852 353.287 58.7564 353.153 58.7005C353.018 58.6446 352.895 58.5626 352.792 58.4593C352.689 58.356 352.607 58.2333 352.551 58.0983C352.495 57.9634 352.466 57.8187 352.466 57.6726V38.9668C352.466 38.8207 352.495 38.676 352.551 38.541C352.607 38.406 352.689 38.2834 352.792 38.1801C352.895 38.0768 353.018 37.9948 353.153 37.9389C353.287 37.883 353.432 37.8542 353.578 37.8542H353.578ZM359.316 52.3254H361.788C362.083 52.3254 362.366 52.2082 362.574 51.9995C362.783 51.7909 362.9 51.5079 362.9 51.2128V45.3411C362.9 45.0461 362.783 44.7631 362.574 44.5544C362.366 44.3458 362.083 44.2286 361.788 44.2286H359.316C359.021 44.2286 358.739 44.3458 358.53 44.5544C358.322 44.7631 358.205 45.0461 358.205 45.3411V51.2128C358.205 51.3589 358.233 51.5036 358.289 51.6386C358.345 51.7736 358.427 51.8962 358.53 51.9995C358.633 52.1028 358.756 52.1848 358.891 52.2407C359.026 52.2966 359.17 52.3254 359.316 52.3254H359.316Z" fill="#FFCB08"/>
<path d="M444.953 76.7809V83.5996C444.953 83.8947 444.835 84.1777 444.627 84.3864C444.418 84.595 444.136 84.7122 443.841 84.7122H380.031C379.736 84.7122 379.453 84.595 379.245 84.3864C379.036 84.1777 378.919 83.8947 378.919 83.5996V76.7809C378.919 76.4859 379.036 76.2029 379.245 75.9942C379.453 75.7856 379.736 75.6684 380.031 75.6684H405.98C406.126 75.6684 406.27 75.6396 406.405 75.5837C406.54 75.5278 406.662 75.4458 406.766 75.3425C406.869 75.2392 406.951 75.1165 407.007 74.9815C407.063 74.8466 407.091 74.7019 407.091 74.5558V69.3731C407.091 69.0781 406.974 68.7951 406.766 68.5864C406.557 68.3778 406.274 68.2605 405.98 68.2605H386.515C386.369 68.2605 386.225 68.2318 386.09 68.1759C385.955 68.1199 385.833 68.038 385.729 67.9347C385.626 67.8314 385.544 67.7087 385.488 67.5737C385.433 67.4387 385.404 67.2941 385.404 67.148V60.5874C385.404 60.2923 385.521 60.0093 385.729 59.8007C385.938 59.592 386.221 59.4748 386.515 59.4748H405.98C406.126 59.4748 406.27 59.446 406.405 59.3901C406.54 59.3342 406.662 59.2522 406.766 59.1489C406.869 59.0456 406.951 58.923 407.007 58.788C407.062 58.653 407.091 58.5083 407.091 58.3622V54.0403C407.091 53.8942 407.12 53.7495 407.176 53.6145C407.232 53.4795 407.314 53.3569 407.417 53.2536C407.52 53.1503 407.643 53.0683 407.777 53.0124C407.912 52.9565 408.057 52.9277 408.203 52.9277H415.072C415.218 52.9277 415.363 52.9565 415.498 53.0124C415.633 53.0683 415.755 53.1503 415.858 53.2536C415.962 53.3569 416.044 53.4795 416.099 53.6145C416.155 53.7495 416.184 53.8942 416.184 54.0403V58.3622C416.184 58.6573 416.301 58.9403 416.51 59.1489C416.718 59.3576 417.001 59.4748 417.296 59.4748H437.879C438.173 59.4748 438.456 59.592 438.665 59.8007C438.873 60.0093 438.99 60.2923 438.99 60.5874V67.148C438.99 67.443 438.873 67.726 438.665 67.9347C438.456 68.1433 438.173 68.2605 437.879 68.2605H417.296C417.001 68.2605 416.718 68.3778 416.51 68.5864C416.301 68.7951 416.184 69.0781 416.184 69.3731V74.5558C416.184 74.8509 416.301 75.1339 416.51 75.3426C416.718 75.5512 417.001 75.6684 417.296 75.6684H443.841C444.136 75.6684 444.418 75.7856 444.627 75.9943C444.835 76.2029 444.952 76.4859 444.953 76.7809ZM386.304 29.9299H380.254C380.108 29.9299 379.964 29.9012 379.829 29.8452C379.694 29.7893 379.572 29.7074 379.468 29.6041C379.365 29.5008 379.283 29.3781 379.227 29.2431C379.172 29.1081 379.143 28.9635 379.143 28.8173V14.5909C379.143 14.2958 379.26 14.0128 379.468 13.8042C379.677 13.5955 379.96 13.4783 380.254 13.4783H406.21C406.387 13.4783 406.562 13.4358 406.72 13.3543C406.878 13.2728 407.014 13.1547 407.117 13.0099C407.22 12.865 407.286 12.6976 407.311 12.5217C407.336 12.3457 407.319 12.1663 407.261 11.9985C406.945 11.0982 406.612 10.2112 406.26 9.40022C406.199 9.26012 406.167 9.10876 406.168 8.9558C406.168 8.80284 406.2 8.65162 406.262 8.51181C406.324 8.37199 406.415 8.24664 406.528 8.14374C406.641 8.04085 406.774 7.96267 406.919 7.9142L413.479 5.69193C413.733 5.60469 414.01 5.61347 414.259 5.71662C414.507 5.81977 414.709 6.01018 414.827 6.25204C415.846 8.35231 416.738 10.5118 417.5 12.719C417.573 12.94 417.714 13.1322 417.903 13.2685C418.092 13.4047 418.318 13.4781 418.551 13.4782H443.17C443.465 13.4782 443.748 13.5954 443.956 13.8041C444.165 14.0127 444.282 14.2957 444.282 14.5908V28.8173C444.282 28.9634 444.253 29.1081 444.197 29.243C444.141 29.378 444.059 29.5007 443.956 29.604C443.853 29.7073 443.73 29.7893 443.595 29.8452C443.461 29.9011 443.316 29.9299 443.17 29.9299H437.493C437.198 29.9299 436.915 30.0471 436.707 30.2557C436.498 30.4644 436.381 30.7474 436.381 31.0424V35.7079C436.381 36.003 436.264 36.286 436.056 36.4946C435.847 36.7033 435.565 36.8205 435.27 36.8205H430.378C430.156 36.8201 429.939 36.8862 429.755 37.0102C429.572 37.1342 429.429 37.3104 429.346 37.5162C429.263 37.722 429.244 37.9478 429.291 38.1647C429.337 38.3816 429.448 38.5796 429.607 38.7332C433.11 42.0432 436.375 45.5968 439.378 49.3674C439.556 49.6012 439.635 49.8962 439.597 50.1879C439.558 50.4796 439.406 50.7443 439.174 50.9241L433.964 54.9592C433.846 55.0522 433.709 55.1199 433.564 55.1582C433.418 55.1964 433.266 55.2045 433.117 55.1817C432.968 55.159 432.825 55.106 432.698 55.026C432.57 54.946 432.46 54.8407 432.374 54.7166C431.574 53.5543 430.593 52.2092 429.456 50.8064C429.339 50.664 429.188 50.5526 429.018 50.4816C428.847 50.4107 428.662 50.3825 428.478 50.3994C399.503 53.0964 393.029 53.6809 389.87 54.7274C389.725 54.7745 389.573 54.7913 389.422 54.7768C389.271 54.7622 389.125 54.7167 388.992 54.643C388.86 54.5692 388.744 54.4689 388.652 54.3483C388.559 54.2277 388.493 54.0893 388.457 53.9419C387.993 52.1015 387.265 49.4076 386.61 47.4099C386.521 47.1285 386.546 46.8236 386.678 46.5601C386.811 46.2966 387.041 46.0952 387.319 45.9987C388.864 45.3041 390.282 44.3565 391.514 43.1949C392.447 42.4536 394.291 40.8703 396.476 38.7322C396.634 38.5775 396.743 38.3792 396.788 38.1626C396.833 37.9461 396.813 37.721 396.73 37.516C396.646 37.311 396.504 37.1354 396.321 37.0116C396.138 36.8878 395.922 36.8212 395.701 36.8205H388.527C388.232 36.8205 387.949 36.7033 387.741 36.4947C387.533 36.286 387.415 36.003 387.415 35.708V31.0425C387.415 30.7474 387.298 30.4644 387.09 30.2558C386.881 30.0472 386.599 29.9299 386.304 29.9299ZM387.789 23.8928V26.9222C387.789 27.0683 387.817 27.213 387.873 27.348C387.929 27.483 388.011 27.6056 388.114 27.7089C388.218 27.8122 388.34 27.8942 388.475 27.9501C388.61 28.006 388.754 28.0348 388.9 28.0348H434.152C434.298 28.0348 434.442 28.006 434.577 27.9501C434.712 27.8942 434.835 27.8122 434.938 27.7089C435.041 27.6056 435.123 27.483 435.179 27.348C435.235 27.213 435.264 27.0683 435.263 26.9222V23.8928C435.263 23.5978 435.146 23.3148 434.938 23.1061C434.729 22.8975 434.447 22.7802 434.152 22.7802H388.9C388.605 22.7802 388.323 22.8975 388.114 23.1061C387.906 23.3147 387.789 23.5977 387.789 23.8928V23.8928ZM421.094 41.7258C420.68 41.3196 420.271 40.9256 419.874 40.5467C419.759 40.4364 419.669 40.3025 419.61 40.1541C419.552 40.0058 419.525 39.8464 419.534 39.687C419.542 39.5277 419.585 39.372 419.659 39.2306C419.733 39.0893 419.837 38.9657 419.963 38.8681L420.036 38.8113C420.219 38.669 420.353 38.473 420.419 38.2508C420.485 38.0286 420.48 37.7913 420.405 37.572C420.33 37.3527 420.188 37.1624 420 37.0277C419.811 36.8929 419.585 36.8205 419.354 36.8205H410.18C410.029 36.8206 409.879 36.8519 409.741 36.9125C409.602 36.9731 409.478 37.0616 409.375 37.1727C407.524 39.1654 405.54 41.0779 403.518 42.9097C403.345 43.0643 403.225 43.2691 403.175 43.4954C403.125 43.7216 403.146 43.958 403.237 44.1712C403.328 44.3845 403.483 44.5639 403.681 44.6844C403.879 44.8049 404.109 44.8603 404.34 44.8428C408.754 44.5108 416.495 43.9285 420.408 43.6342C420.621 43.6174 420.825 43.5394 420.995 43.4095C421.165 43.2796 421.294 43.1033 421.367 42.9018C421.439 42.7003 421.452 42.4821 421.404 42.2735C421.355 42.0649 421.248 41.8747 421.094 41.7258V41.7258Z" fill="#FFCB08"/>
</g>
<defs>
<clipPath id="clip0_679:2368">
<rect width="485" height="99" fill="white"/>
</clipPath>
</defs>
</svg>
