<svg width="683" height="130" viewBox="0 0 683 130" fill="none" xmlns="http://www.w3.org/2000/svg">
<path d="M11.3235 36.6621L87.3004 129.529L682.152 0L11.3235 36.6621Z" fill="#D84618"/>
<path d="M60.4927 125.287C33.0931 125.287 0 98.1522 0 64.4553C0 27.2264 39.9484 6.63672 67.5615 6.63672C81.025 6.63672 99.8702 16.7831 107.098 25.5114C108.554 27.2691 109.273 29.5257 109.103 31.8052C108.933 34.0848 107.888 36.2089 106.188 37.7295L82.2058 59.1816C80.4817 60.7238 78.222 61.5219 75.916 61.4033C73.61 61.2846 71.4435 60.2586 69.8855 58.5475C66.2163 54.5183 65.3382 48.9693 64.5639 44.074C64.4551 43.3887 64.3248 42.5633 64.1835 41.7683C55.7008 43.4047 44.1579 50.3718 44.1579 64.4553C44.1579 81.0951 60.0231 88.0018 68.5167 88.0018C69.8379 88.0018 70.9736 86.9979 74.4734 83.2912C76.1834 81.4801 78.1211 79.428 80.5328 77.3105C82.1329 75.9051 84.1866 75.1305 86.3125 75.1305C86.3631 75.1305 96.5744 75.3071 96.5744 75.3071C98.8764 75.347 101.071 76.2931 102.685 77.9416C104.298 79.5902 105.203 81.8094 105.203 84.121C105.203 110.924 88.0266 119.205 69.465 124.161C66.5354 124.925 63.5194 125.303 60.4927 125.287Z" fill="#15047C"/>
<path d="M106.751 121.75C105.598 121.75 104.456 121.522 103.391 121.079C102.325 120.636 101.358 119.987 100.542 119.168C99.727 118.35 99.0803 117.378 98.639 116.308C98.1978 115.239 97.9707 114.092 97.9707 112.935V37.4533C97.9707 36.2957 98.1978 35.1493 98.639 34.0798C99.0803 33.0103 99.727 32.0385 100.542 31.2199C101.358 30.4013 102.325 29.752 103.391 29.309C104.456 28.866 105.598 28.638 106.751 28.638H120.702C121.888 28.6371 123.061 28.8777 124.151 29.3452C125.241 29.8127 126.226 30.4974 127.045 31.3579C131.051 28.4312 135.862 26.8224 140.815 26.7524C144.772 26.6567 148.695 27.5041 152.262 29.2252C153.989 30.0504 155.4 31.4189 156.281 33.1228C157.162 34.8268 157.465 36.7729 157.144 38.6656L154.238 55.7835C154.024 57.0455 153.538 58.2454 152.816 59.3C152.093 60.3546 151.15 61.2385 150.052 61.8902C148.955 62.5418 147.729 62.9457 146.461 63.0737C145.192 63.2017 143.911 63.0507 142.706 62.6313C141.439 62.1312 140.086 61.8843 138.723 61.9046C137.357 61.9046 134.699 63.9361 132.621 69.4277V112.935C132.622 114.092 132.394 115.239 131.953 116.308C131.512 117.378 130.865 118.35 130.05 119.168C129.235 119.987 128.267 120.636 127.202 121.079C126.136 121.522 124.995 121.75 123.842 121.75H106.751Z" fill="#15047C"/>
<path d="M184.41 123.637C160.142 123.637 143.193 103.717 143.193 75.1946C143.193 61.802 147.238 49.52 154.583 40.611C161.844 31.8032 171.953 26.752 182.317 26.752C204.177 26.752 218.303 44.3384 218.303 71.5548C218.348 75.395 217.976 79.2287 217.193 82.9879C216.695 84.8655 215.593 86.5253 214.059 87.7093C212.525 88.8934 210.644 89.5353 208.709 89.5352H208.634C208.836 89.8485 209.019 90.1744 209.18 90.511L214.993 102.642C215.855 104.441 216.083 106.48 215.641 108.426C215.198 110.372 214.111 112.11 212.557 113.354C204.573 119.827 194.67 123.445 184.41 123.637ZM181.894 89.5352C183.305 90.4243 184.955 90.8569 186.619 90.7747C188.54 90.7698 190.436 90.347 192.178 89.5352H181.894Z" fill="#15047C"/>
<path d="M238.003 123.637C221.733 123.637 209.924 110.52 209.924 92.4474C209.924 79.866 215.193 71.6615 222.763 66.2258C221.235 65.3296 220.012 63.991 219.255 62.3852L213.093 49.3117C212.213 47.446 212.014 45.3297 212.529 43.3315C213.044 41.3333 214.241 39.5801 215.912 38.3773C226.624 30.6635 237.499 26.752 248.234 26.752C258.39 26.752 282.01 30.8552 282.01 68.8596V112.934C282.01 114.092 281.783 115.238 281.342 116.308C280.901 117.377 280.254 118.349 279.439 119.168C278.623 119.986 277.656 120.636 276.59 121.079C275.525 121.522 274.383 121.75 273.23 121.75H259.279C257.05 121.751 254.904 120.9 253.278 119.369C248.652 122.123 243.381 123.596 238.003 123.637ZM247.476 87.8138C245.363 88.6577 244.058 89.5861 243.805 90.5034C244.444 90.4803 245.434 90.2705 247.476 88.3587V87.8138Z" fill="#15047C"/>
<path d="M312.288 123.638C303.216 123.638 282.115 120.021 282.115 86.5167V61.9049H281.71C280.557 61.9049 279.416 61.6769 278.35 61.2338C277.285 60.7908 276.317 60.1415 275.502 59.3229C274.687 58.5043 274.04 57.5325 273.599 56.463C273.157 55.3935 272.93 54.2472 272.93 53.0895V38.3981C272.93 36.2014 273.747 34.0839 275.221 32.4603C276.695 30.8367 278.719 29.8239 280.897 29.6205L283.791 29.3508L285.063 16.247C285.275 14.0674 286.287 12.0448 287.902 10.5733C289.517 9.10173 291.62 8.28661 293.801 8.28662H307.986C309.139 8.28661 310.28 8.51462 311.346 8.95763C312.411 9.40064 313.379 10.05 314.194 10.8686C315.009 11.6871 315.656 12.6589 316.097 13.7285C316.538 14.798 316.765 15.9443 316.765 17.102V28.6382H324.03C325.183 28.6382 326.325 28.8662 327.39 29.3092C328.455 29.7522 329.423 30.4016 330.239 31.2202C331.054 32.0387 331.701 33.0105 332.142 34.0801C332.583 35.1496 332.81 36.2959 332.81 37.4536V53.0895C332.81 54.2472 332.583 55.3935 332.142 56.463C331.701 57.5325 331.054 58.5043 330.239 59.3229C329.423 60.1415 328.455 60.7908 327.39 61.2338C326.325 61.6769 325.183 61.9049 324.03 61.9049H316.765V86.5167C316.729 87.8003 316.858 89.0833 317.15 90.3336C317.974 90.1744 318.776 89.9164 319.539 89.5652C320.747 89.0054 322.066 88.7288 323.397 88.7562C324.727 88.7837 326.034 89.1145 327.219 89.7236C328.403 90.3327 329.434 91.2043 330.234 92.2723C331.034 93.3403 331.581 94.5769 331.835 95.8886L334.625 110.311C335.019 112.344 334.687 114.452 333.687 116.264C332.687 118.076 331.084 119.477 329.158 120.22C323.8 122.418 318.076 123.577 312.288 123.638Z" fill="#15047C"/>
<path d="M362.278 123.637C356.848 123.614 351.489 122.393 346.581 120.062C341.672 117.732 337.333 114.347 333.871 110.148C326.25 101.224 322.222 89.1377 322.222 75.1946C322.222 61.251 326.25 49.1642 333.871 40.2412C337.318 36.024 341.653 32.6268 346.565 30.2943C351.477 27.9618 356.843 26.752 362.277 26.752C367.71 26.752 373.076 27.9618 377.988 30.2943C382.9 32.6268 387.236 36.024 390.683 40.2412C398.303 49.1642 402.331 61.251 402.331 75.1946C402.331 89.1377 398.303 101.224 390.683 110.148C387.22 114.347 382.882 117.731 377.973 120.062C373.065 122.393 367.707 123.613 362.278 123.637ZM362.278 60.5555C359.396 60.5555 357.222 66.8488 357.222 75.1946C357.222 83.5389 359.396 89.8317 362.278 89.8317C365.159 89.8317 367.333 83.5389 367.333 75.1946C367.333 66.8488 365.159 60.5555 362.278 60.5555Z" fill="#15047C"/>
<path d="M407.846 121.75C406.693 121.75 405.552 121.522 404.486 121.079C403.421 120.636 402.453 119.987 401.638 119.168C400.823 118.35 400.176 117.378 399.735 116.308C399.293 115.239 399.066 114.092 399.066 112.935V37.4533C399.066 36.2956 399.293 35.1493 399.735 34.0798C400.176 33.0102 400.823 32.0384 401.638 31.2199C402.453 30.4013 403.421 29.7519 404.486 29.3089C405.552 28.8659 406.693 28.6379 407.846 28.6379H421.797C422.983 28.6371 424.156 28.8777 425.247 29.3452C426.337 29.8127 427.321 30.4974 428.14 31.3578C432.147 28.4314 436.958 26.8225 441.912 26.7524C445.868 26.657 449.79 27.5042 453.357 29.2247C455.084 30.0499 456.495 31.4186 457.376 33.1227C458.257 34.8268 458.56 36.7732 458.239 38.666L455.332 55.7839C455.118 57.046 454.632 58.246 453.91 59.3006C453.187 60.3552 452.244 61.239 451.146 61.8906C450.049 62.5422 448.823 62.946 447.554 63.0738C446.285 63.2016 445.004 63.0504 443.8 62.6307C442.532 62.1307 441.18 61.884 439.819 61.9046C438.452 61.9046 435.794 63.9361 433.717 69.4277V112.935C433.717 114.092 433.49 115.239 433.049 116.308C432.608 117.378 431.961 118.35 431.146 119.168C430.33 119.987 429.363 120.636 428.297 121.079C427.232 121.522 426.09 121.75 424.937 121.75H407.846Z" fill="#15047C"/>
<path d="M459.928 121.75C458.775 121.75 457.634 121.522 456.569 121.079C455.503 120.636 454.535 119.987 453.72 119.168C452.905 118.35 452.258 117.378 451.817 116.308C451.376 115.239 451.149 114.093 451.149 112.935V13.058C451.149 11.9004 451.376 10.7541 451.817 9.68455C452.258 8.61502 452.905 7.6432 453.72 6.82461C454.535 6.00603 455.503 5.35672 456.569 4.91371C457.634 4.4707 458.775 4.24267 459.928 4.24268H477.134C478.287 4.24266 479.429 4.47068 480.494 4.91368C481.559 5.35669 482.527 6.00603 483.343 6.82461C484.158 7.6432 484.805 8.61499 485.246 9.68452C485.687 10.754 485.914 11.9004 485.914 13.058V87.4057H512.13C513.283 87.4057 514.425 87.6337 515.49 88.0767C516.555 88.5197 517.523 89.1691 518.338 89.9876C519.154 90.8062 519.8 91.778 520.242 92.8476C520.683 93.9171 520.91 95.0634 520.91 96.2211V112.935C520.91 114.092 520.683 115.239 520.242 116.308C519.8 117.378 519.154 118.35 518.338 119.168C517.523 119.987 516.555 120.636 515.49 121.079C514.425 121.522 513.283 121.75 512.13 121.75L459.928 121.75Z" fill="#15047C"/>
<path d="M572.93 121.75C570.954 121.75 569.035 121.081 567.485 119.85C565.934 118.619 564.843 116.899 564.387 114.968L558.341 89.3598L553.045 66.5701L541.473 114.992C541.013 116.917 539.92 118.631 538.371 119.857C536.822 121.083 534.908 121.75 532.935 121.75H515.496C514.144 121.75 512.809 121.437 511.597 120.833C510.384 120.23 509.327 119.353 508.508 118.272C507.689 117.191 507.13 115.934 506.875 114.6C506.619 113.266 506.674 111.891 507.035 110.582L534.589 10.705C535.102 8.84709 536.207 7.20911 537.735 6.04193C539.263 4.87475 541.13 4.24274 543.05 4.24268H563.279C565.198 4.24264 567.064 4.87357 568.591 6.03897C570.119 7.20437 571.224 8.84009 571.738 10.6959L599.408 110.573C599.77 111.882 599.827 113.258 599.572 114.593C599.317 115.928 598.759 117.186 597.94 118.268C597.121 119.35 596.064 120.228 594.851 120.832C593.638 121.436 592.303 121.75 590.949 121.75H572.93Z" fill="#15047C"/>
<path d="M601.059 121.75C599.849 121.75 598.651 121.499 597.541 121.012C596.432 120.525 595.435 119.812 594.613 118.92C593.791 118.027 593.162 116.973 592.765 115.825C592.368 114.676 592.212 113.458 592.307 112.246L600.112 12.3686C600.284 10.1568 601.281 8.09172 602.904 6.5855C604.526 5.07927 606.655 4.24269 608.864 4.24268H629.543C640.918 4.24268 650.06 6.56502 656.713 11.1448C662.537 15.1539 669.48 23.0197 669.48 37.7237C669.609 44.9343 667.534 52.0115 663.536 58.0028C670.177 63.9126 673.899 72.8084 673.899 83.551C673.899 106.756 657.356 121.75 631.753 121.75L601.059 121.75ZM630.24 88.7544C639.598 88.7544 639.598 85.4926 639.598 82.3379C639.598 79.7317 639.598 77.27 630.24 77.27H629.361L628.082 88.7544H630.24ZM628.264 44.9479C635.179 44.9479 635.179 42.8797 635.179 40.6897C635.259 39.878 635.135 39.0592 634.817 38.3084C634.808 38.2989 633.654 37.2763 628.771 37.2396L627.987 44.9479H628.264Z" fill="#15047C"/>
<path d="M8.77966 64.4551C8.77966 31.5667 45.8199 15.4517 67.5615 15.4517C78.4897 15.4517 94.7668 24.4081 100.347 31.147L76.3653 52.5992C71.9477 47.7477 74.4207 32.5693 67.9101 32.5693C54.8887 32.5693 35.3779 43.0235 35.3779 64.4551C35.3779 86.1555 54.9138 96.8169 68.5167 96.8169C75.9574 96.8169 79.0605 90.3138 86.3123 83.9456L96.423 84.1207C96.423 104.697 84.3506 111.065 67.2085 115.642C46.1981 121.252 8.77966 97.7474 8.77966 64.4551Z" fill="#FFCB08"/>
<path d="M106.751 37.4533H120.702L121.982 50.7976H122.33C127.096 40.9579 134.073 35.5674 140.816 35.5674C143.466 35.4707 146.1 36.0258 148.489 37.1846L145.583 54.3022C143.39 53.4786 141.065 53.0673 138.723 53.0889C133.607 53.0889 127.446 56.9975 123.842 67.9152V112.935H106.751V37.4533Z" fill="#FFCB08"/>
<path d="M151.973 75.1948C151.973 50.7976 166.855 35.5674 182.317 35.5674C200.222 35.5674 209.522 50.7976 209.522 71.555C209.58 74.6306 209.307 77.7035 208.709 80.7205H168.598C169.994 93.1203 176.969 99.5905 186.619 99.5905C191.967 99.5905 196.618 97.703 201.268 94.3335L207.082 106.465C200.655 111.695 192.68 114.634 184.41 114.822C166.157 114.822 151.973 100.129 151.973 75.1948ZM194.874 67.5113C194.874 57.4029 190.921 50.9327 182.55 50.9327C175.69 50.9327 169.645 56.5936 168.365 67.5113H194.874Z" fill="#FFCB08"/>
<path d="M218.704 92.4476C218.704 76.2729 229.98 67.7816 256.256 64.5458C255.908 57.1327 253.118 51.4718 245.094 51.4718C239.05 51.4718 233.236 54.571 227.191 58.6147L221.028 45.5406C228.702 40.0149 238.003 35.5674 248.234 35.5674C264.743 35.5674 273.23 47.0242 273.23 68.8597V112.935H259.279L258.116 104.847H257.652C251.955 110.508 245.444 114.822 238.003 114.822C226.376 114.822 218.704 105.251 218.704 92.4476ZM256.256 91.9085V76.6768C240.328 78.9682 234.98 84.09 234.98 90.8289C234.98 96.76 238.584 99.3217 243.584 99.3217C248.467 99.3217 252.071 96.6249 256.256 91.9085Z" fill="#FFCB08"/>
<path d="M290.894 86.5167V53.0892H281.71V38.398L291.826 37.4535L293.801 17.1016H307.986V37.4535H324.03V53.0892H307.986V86.5167C307.986 95.1431 311.009 99.1867 316.822 99.1867C319.039 99.0742 321.211 98.5247 323.216 97.5696L326.007 111.992C321.654 113.8 316.998 114.761 312.288 114.822C296.824 114.822 290.894 103.366 290.894 86.5167Z" fill="#FFCB08"/>
<path d="M331.002 75.1947C331.002 50.1234 346 35.5674 362.278 35.5674C378.553 35.5674 393.551 50.1234 393.551 75.1947C393.551 100.265 378.553 114.822 362.278 114.822C346 114.822 331.002 100.265 331.002 75.1947ZM376.112 75.1947C376.112 61.0411 371.113 51.7405 362.278 51.7405C353.441 51.7405 348.443 61.0411 348.443 75.1947C348.443 89.4819 353.441 98.6474 362.278 98.6474C371.113 98.6474 376.112 89.4819 376.112 75.1947Z" fill="#FFCB08"/>
<path d="M407.846 37.4538H421.798L423.077 50.7981H423.425C428.192 40.9584 435.168 35.5679 441.912 35.5679C444.562 35.4712 447.196 36.0264 449.584 37.185L446.677 54.3027C444.485 53.479 442.16 53.0678 439.819 53.0894C434.702 53.0894 428.541 56.998 424.937 67.9157V112.935H407.846V37.4538Z" fill="#FFCB08"/>
<path d="M459.928 13.0581H477.134V96.2214H512.13V112.935H459.928V13.0581Z" fill="#FFCB08"/>
<path d="M543.05 13.0581H563.279L590.949 112.935H572.93L566.883 87.3262L553.165 28.2883L532.936 112.935H515.497L543.05 13.0581ZM545.26 60.9064L553.165 28.2883L560.606 60.9064C557.932 50.5292 555.606 39.0709 553.165 28.2883H552.584C550.374 39.2061 547.817 50.5293 545.26 60.9064Z" fill="#FFCB08"/>
<path d="M608.864 13.0581H629.543C647.215 13.0581 660.701 19.1229 660.701 37.724C660.701 46.8895 656.283 56.3237 648.959 59.2893V59.9635C658.26 62.5251 665.12 70.0734 665.12 83.5513C665.12 103.634 650.702 112.935 631.753 112.935H601.06L608.864 13.0581ZM628.264 53.7636C639.193 53.7636 643.959 48.6418 643.959 40.6896C643.959 31.9281 638.844 28.4234 628.497 28.4234L620.855 28.2883L618.266 53.7636H628.264ZM630.24 97.5697C641.984 97.5697 648.378 92.7167 648.378 82.338C648.378 72.6335 642.099 68.4547 630.24 68.4547H621.509L618.266 97.5697H630.24Z" fill="#FFCB08"/>
</svg>
